<?xml version="1.0" encoding="utf-8"?>
<!-- Generator: Adobe Illustrator 17.0.0, SVG Export Plug-In . SVG Version: 6.00 Build 0)  -->
<!DOCTYPE svg PUBLIC "-//W3C//DTD SVG 1.1//EN" "http://www.w3.org/Graphics/SVG/1.1/DTD/svg11.dtd">
<svg version="1.1" id="Laag_1" xmlns="http://www.w3.org/2000/svg" xmlns:xlink="http://www.w3.org/1999/xlink" x="0px" y="0px"
	 width="200px" height="200px" viewBox="0 0 200 200" enable-background="new 0 0 200 200" xml:space="preserve">
<g>
	<circle fill="#FFFFFF" cx="100" cy="100" r="100"/>
	<path fill="#9944EE" d="M145.522,86.19l-3.711-4.126c-1.083-1.204-2.855-3.175-3.938-4.379l-3.71-4.125
		c-1.083-1.204-2.31-0.863-2.727,0.758l-1.418,5.514c-0.417,1.621-1.101,4.275-1.519,5.895l-0.428,1.662L108.902,108.2
		l-6.206-36.729c-0.14-0.828-0.889-1.471-1.663-1.471H90.386H73.301c-0.775,0-1.524,0.632-1.663,1.46l-1.321,7.757l-1.233,7.297
		l-7.456-1.436c-0.156-0.032-0.317-0.046-0.476-0.046c-1.326,0-2.458,1.029-2.689,2.445l-4.575,27.928
		c-0.127,0.776,0.034,1.563,0.451,2.215c0.417,0.65,1.041,1.083,1.759,1.221l7.283,1.405l-1.422,8.397
		c-0.138,0.828,0.38,1.359,1.156,1.359h27.27h20.829c0.776,0,1.296-0.531,1.155-1.359l-2.059-12.118l22.128-24.006l1.729-0.476
		c1.503-0.414,3.962-1.089,5.465-1.503l5.124-1.408C146.261,88.718,146.605,87.393,145.522,86.19z M65.961,105l-1.962,11.6
		l-6.631-1.277l4.337-26.471l6.764,1.305L65.961,105z"/>
</g>
</svg>
