<svg xmlns="http://www.w3.org/2000/svg" width="1920" height="1080" viewBox="0 0 1920 1080"><g fill="#A9CBCB"><path d="M1212.884 466.832c-14.606-3.862-24.96 3.984-30.616 10.297-8.742 2.54-26.776 7.202-38.427 6.204-6.22.69-26.037 9.748-47.024 20.95.6-1.695 1.23-3.422 1.853-5.18.473-1.214.947-2.43 1.414-3.624.476-1.192.91-2.39 1.396-3.508.976-2.236 1.87-4.347 2.675-6.136l.133-.268c5.89 2.485 17.2 5.326 26.67-3.692 13.472-12.83 10.62-37.69 10.62-37.69s-24.692-4.058-38.163 8.774-3.145 30.57-3.145 30.57.71.458 1.937 1.078l-.056.076c-1.117 1.645-2.377 3.594-3.756 5.68-.69 1.042-1.326 2.155-2.014 3.27l-2.06 3.396c-1.308 2.31-2.66 4.61-3.853 6.8-1.084 2-2.11 3.865-2.972 5.53-5.67 3.15-11.287 6.388-16.618 9.594 2.196-2.324 4.03-5.335 5.13-9.236 5.05-17.906-10.074-37.84-10.074-37.84s-23.31 9.095-28.36 27.002c-3.538 12.546 4.2 21.203 9.152 25.266l-2.667 3.25c-.945 1.146-1.834 2.38-2.786 3.612l-2.858 3.754-2.75 3.824c-.902 1.266-1.816 2.5-2.642 3.728-1.675 2.443-3.26 4.716-4.555 6.707-.807 1.208-1.513 2.288-2.122 3.23-23.615 18.138-53.708 33.193-58.476 30.81-1.705-.852-.808-18.766 1.303-43.594.774-.82 1.623-1.692 2.52-2.716l3.55-4.054 1.933-2.208c.63-.77 1.272-1.558 1.926-2.36l3.998-4.946c1.307-1.72 2.633-3.47 3.96-5.218 1.336-1.74 2.575-3.542 3.844-5.28 1.22-1.674 2.386-3.335 3.51-4.955-.72 4.412-.344 10.537 5.27 15.22 9.865 8.234 26.7 4.317 26.7 4.317s.707-14.765-6.993-23.496c1.927-.81 3.858-1.957 5.745-3.56 13.733-11.668 12.344-35.865 12.344-35.865s-23.656-5.28-37.39 6.387c-13.732 11.668-4.72 29.39-4.72 29.39s.165.12.466.32c-1.33 1.52-2.733 3.128-4.198 4.807-1.336 1.53-2.727 3.105-4.163 4.674-1.438 1.567-2.855 3.202-4.35 4.754-1.484 1.558-2.968 3.117-4.43 4.65-1.503 1.486-2.98 2.948-4.414 4.362l-2.113 2.068-1.937 1.768c3.747-40.837 9.83-94.173 13.303-123.817 6.622 3.852 22.004 10.436 36.172-.892 18.694-14.947 17.807-47.127 17.807-47.127s-31.196-7.946-49.89 7c-12.822 10.252-11.553 24.705-9.49 32.777-7.91 12.73-20.556 30.14-32.893 34.765-.256-.907-.512-1.82-.776-2.738-.277-1.088-.553-2.176-.827-3.247-.264-1.072-.562-2.128-.782-3.156-.438-2.054-.872-3.98-1.204-5.636l-.558-3.436c4.633-1.127 13.097-4.536 14.706-14.538 2.24-13.915-10.88-27.598-10.88-27.598s-16.75 8.878-18.987 22.793c-.1.62-.155 1.22-.19 1.81-9.996-1.116-20.26 4.876-20.26 4.876s4.085 15.882 15.336 20.574c10.004 4.172 17.363-3.955 18.874-5.812l-.02 1.532c.043 1.714.14 3.71.218 5.86.04 1.077.153 2.175.23 3.3l.26 3.41c.242 2.273.45 4.56.713 6.692.268 2.13.504 4.127.76 5.83l.152 1.08c-2.47 10.078-5.373 22.78-8.434 36.637-.54-.67-1.08-1.332-1.567-1.993-.81-1.1-1.593-2.145-2.317-3.124.89-2.182 1.214-3.748 1.214-3.748s-4.462-16.486-19.935-16.015c-15.473.47-27.512 17.46-27.512 17.46s13.05 16.224 28.522 15.752c8.976-.273 13.9-6.014 16.46-10.79.337.672.683 1.36 1.04 2.077.48.963 1.037 1.917 1.57 2.91l1.404 2.56c-4.903 22.36-10.113 47.148-14.525 68.51l-.056-.08c-1.435-1.998-2.888-4.176-4.39-6.338l-2.13-3.283c-.693-1.087-1.417-2.143-2.044-3.197-1.254-2.11-2.453-4.077-3.44-5.785l-1.846-3.482c-.04-.107-.083-.216-.124-.32.897-2.526 9.768-29.365-12.248-44.323-23.118-15.707-58.718-3.63-58.718-3.63s1.883 37.545 25 53.252c5.34 3.627 10.656 5.292 15.68 5.732-1.986 8.085-.957 15.86-.957 15.86s18.27 2.67 28.04-6.972c3.34-3.296 4.62-6.977 4.86-10.397l.626 1.64c.447 1.177.982 2.35 1.487 3.565l1.564 3.676c1.12 2.42 2.202 4.874 3.29 7.135 1.094 2.257 2.1 4.377 3.02 6.164l.346.687c-2.153 10.493-4.042 19.804-5.508 27.09-7.478 37.172-55.296-46.38-72.62-62.26-6.13-5.616-25.566-23.34-47.935-43.504-.546-1.724-1.183-3.628-1.85-5.65-.824-2.492-1.796-5.125-2.715-7.76l-1.49-3.906c-.5-1.284-.957-2.554-1.463-3.766l-.775-1.82c3.27 3.672 9.87 8.994 19.053 6.15 13.464-4.168 19.903-21.996 19.903-21.996s-9.957-7.16-20.86-7.79c1.716-4.377 2.455-9.55 1.325-15.558-4.424-23.523-33.255-37.844-33.255-37.844s-21.66 23.817-17.236 47.34c3.28 17.444 18.626 22.645 26.342 24.17l.448 1.552 1.625 6.86c.286 1.255.52 2.575.792 3.9.26 1.326.527 2.672.793 4.02.245 1.463.5 2.913.745 4.344-39.023-35.08-82.734-73.688-80.13-68.306 1.95 4.023 17.177 27.504 35.314 54.22-.704-.386-1.422-.78-2.168-1.185-2.158-1.182-4.41-2.516-6.7-3.816l-3.34-2.037c-1.095-.682-2.206-1.32-3.227-2-2.044-1.358-3.976-2.613-5.606-3.726l-3.166-2.34c-.085-.08-.17-.16-.252-.235-.285-2.67-3.9-30.7-30.218-34.663-27.64-4.16-54.51 22.13-54.51 22.13s17.94 33.034 45.58 37.195c6.383.96 11.896.162 16.617-1.616 1.707 8.148 6 14.714 6 14.714s17.624-5.498 22.262-18.42c1.585-4.415 1.145-8.288-.118-11.474l1.274 1.208c.91.866 1.9 1.69 2.883 2.57l3 2.638c2.057 1.7 4.095 3.443 6.055 5.01 1.962 1.562 3.788 3.037 5.39 4.25 1.583 1.23 2.937 2.247 3.893 2.956l1.48 1.094 1.52-2.506c9.27 13.524 18.95 27.358 27.774 39.534l-1.057-.404c-1.017-.376-2.04-.818-3.094-1.24-1.055-.43-2.123-.87-3.192-1.306-1.056-.464-2.112-.93-3.15-1.388-.487-.22-.976-.43-1.46-.64-.817-.458-1.98-1.046-3.392-1.61l-.09-.043c.11-3.876-.682-12.42-9.25-15.993-11.252-4.693-25.41 3.578-25.41 3.578s3 11.643 10.93 17.935c-9.25 11.115-7.71 29.472-7.71 29.472s20.97 4.096 32.8-6.51c7.35-6.59 6.904-15.033 5.514-20.483l2.16 1.366c.984.613 1.943 1.243 2.894 1.8 1.894 1.135 3.658 2.214 5.2 3.085 1.526.89 2.827 1.62 3.747 2.125l1.42.78.32-.735c7.786 10.47 14.497 18.97 19.06 23.82 18.144 19.28 23.865 23.943 38.83 50.424-1.687-.344-3.494-.724-5.4-1.13-2.923-.595-6.006-1.335-9.113-2.027-1.557-.337-3.086-.746-4.607-1.114l-4.46-1.106c-1.526-.41-2.988-.816-4.375-1.204.385-.755.575-1.216.575-1.216s-1.61-19.09-18.948-21.748-34.217 13.593-34.217 13.593 11.233 20.565 28.57 23.224c1.563.24 3.04.307 4.44.244-1.784 6.802-1.074 13.333-1.074 13.333s15.59 2.645 24.144-5.418c5.576-5.257 4.77-11.86 3.533-15.825.16.066.318.13.48.198 1.464.595 2.947 1.235 4.447 1.803 2.995 1.153 5.984 2.36 8.813 3.387 2.822 1.056 5.462 2.032 7.735 2.837l4.72 1.668c1.453 2.67 2.986 5.52 4.618 8.578 11.604 21.757 31.744 40.606 42.043 75.5 4.51 15.28 4.564 36.12 2.913 58.862-1.46-1.834-2.95-3.68-4.46-5.517-1.6-1.987-3.29-3.915-4.902-5.84-.393-.458-.787-.9-1.18-1.35-.02-.48-.04-1.02-.063-1.644-.04-.75-.03-1.545-.12-2.502l-.31-3.084-.172-1.673c-.074-.564-.185-1.13-.28-1.71-.2-1.153-.386-2.348-.62-3.55l-.836-3.604c-.27-1.207-.647-2.375-.96-3.543-.316-1.167-.66-2.297-1.006-3.385l-1.875-5.93-1.554-4.997c.72-.6 1.113-1 1.113-1s4.707-14.82-7.37-22.085-29.666-.19-29.666-.19 1.275 11.99 7.918 20.53c-.33-.06-.65-.134-.99-.186-23.658-3.628-46.73 18.82-46.73 18.82s15.283 28.333 38.942 31.962c19.705 3.02 29.89-13.434 32.745-19.02l.187.248 3.91 5.536c.395.593.803 1.197 1.207 1.798l-.1.897.72.025c.565.842 1.132 1.7 1.7 2.564-2.107-.51-4.502-.554-7.175.225-11.288 3.29-16.903 18.072-16.903 18.072s12.682 9.446 23.967 6.153c5.593-1.63 8.254-5.635 9.517-9.26.904 1.53 1.79 3.05 2.637 4.537.52.905 1.027 1.794 1.524 2.674-2.362 24.776-6.023 50.865-7.707 73.918-1.225 16.766-2.528 34.348-4.107 52.084-4.293 9.415-10.818 21.395-13.105 34.496-2.097 12.017 1.938 23.03 5.212 33.308-2.57 16.71-5.655 32.744-9.44 47.495-10.902 35.848-71.622 42.983-97.71 45.164-26.95 2.254-88.552 33.263-88.552 33.263h138.106c-.318.13-.63.274-.952.396l232.01-.19-.208-.205h115.194s-35.613-16.267-74.114-21.08-77.44-27.5-86.855-45.447c-8.26-17.504-15.135-37.734-17.91-59.814-1.435-11.437-2.838-43.457-3.86-82.272 4.818-20.56 10.272-44.617 11.608-69.768 1.153-21.73-2.782-41.405-7.5-59.895.79-1.072 1.586-2.154 2.39-3.23l2.838-4.058c.924-1.346 1.867-2.637 2.716-3.94.28-.44.555-.866.83-1.294-.083 7.606 2.122 17.72 12.64 24.19 18.692 11.495 46.18.754 46.18.754s-1.23-12.8-7.438-24.808c22.248-15.61 24.588-51.753 24.588-51.753s-35.098-12.46-58.22 2.778c-15.942 10.507-15.928 27.416-14.382 36.906-1.195.97-1.858 1.63-1.858 1.63s-.43 1.32-.833 3.474c-1.49 1.625-3.177 3.43-4.957 5.356-1.04 1.108-2.185 2.203-3.308 3.34l-3.15 3.142c-1.18-4.42-2.372-8.78-3.513-13.088.36-26.203 1.193-46.35 2.657-54.302 1.263-6.863 8.296-17.712 18.868-30.542l.19.473 2.03-1.038c1.31-.676 3.174-1.64 5.358-2.828 2.204-1.16 4.735-2.594 7.448-4.11 2.714-1.517 5.555-3.246 8.412-4.91l1.583-.99c-3.28 4.997-8.94 16.537-.852 27.927 10.733 15.112 35.653 15.845 35.653 15.845s2.17-6.87 2.513-15.57c26.72 4.11 53.41-19.936 53.41-19.936s-16.43-33.426-43.62-38.66c-22.683-4.365-35.183 14.275-38.71 20.58-1.224.55-2.506 1.122-3.828 1.717-1.392.614-2.873 1.173-4.352 1.78l-4.495 1.806c-2.54.928-5.048 1.888-7.476 2.758 26.763-29.083 65.134-63.436 95.297-85.22 1.498.03 3.104.047 4.794.07 1.593.024 3.256.012 4.94-.003-4.254 1.832-8.597 5.28-10.48 11.76-4.258 14.637 8 31.074 8 31.074s11.597-4.418 18.75-13.272c12.368 14.114 36.712 14.84 36.712 14.84s8.128-25.692-3.473-42.028c-11.6-16.335-32.1-8.062-32.1-8.062s-.704.805-1.68 2.233l-4.173-.42c-1.276-.14-2.593-.35-3.93-.525l-4.044-.564c-1.728-.292-3.45-.564-5.13-.845 12.77-8.654 23.512-14.444 30.437-15.756 10.664-2.02 25.092-16.66 34.59-27.59.79 7.5 4.546 24.093 22.282 28.784 23.14 6.118 48.465-13.757 48.465-13.757s-12.185-29.797-35.326-35.915zM871.78 725.235l-3.228-3.264c-.986-4.48-3.39-11.942-9.018-17.805 5.177-.14 9.498-2.73 11.905-4.545.16 1.052.408 2.665.717 4.675l.97 6.12c.177 1.115.347 2.267.48 3.435.133 1.17.33 2.35.41 3.533l.28 3.518c.05 1.16.05 2.3.08 3.397.006.547.03 1.09.022 1.612l-.075 1.518-.024.52-2.52-2.713zm156.588-106.333c.036.248.077.513.12.787-.648.104-1.26.22-1.82.344.234-.152.477-.3.707-.455.337-.232.662-.452.993-.678zm99.207-81.916c-.22-.184-.435-.357-.64-.518l.952-.066c-.104.188-.208.388-.312.584zm-82.142-3.333c.71-1.348 1.367-2.71 2.083-3.97l1.973-3.498c.597.392.962.597.962.597s4.935.197 10.558-1.71c-7.065 4.53-13.182 8.828-17.612 12.52l2.035-3.94zM1233.358 1080.903l40.425.396s18.288-14.947 34.65-14.947c16.365 0 49.09 14.55 49.09 14.55h48.126s-46.203-40.33-98.178-41.04c-51.976-.708-74.114 41.04-74.114 41.04zM1495.165 1081.298h184.182c-24.795-.346-45.08-11.21-86.966-20.722-43.313-9.834-97.215 20.722-97.215 20.722zM1681.895 1081.298h-2.548c.844.012 1.692.013 2.548 0zM306.857 1063.905c-32.172 7.985-47.75 17.105-66.795 17.396h141.46s-41.4-25.652-74.665-17.395zM240.062 1081.3h-1.957c.657.012 1.31.01 1.957 0zM626.7 1052.375c-14.468-7.985-37.628.024-50.722 5.827-10.507-5.86-24.494-10.49-42.34-10.275-47.41.57-89.55 33.054-89.55 33.054h122.035v.33h87.795s-6.146-17.307-27.218-28.935z"/></g><head><style>.pkt_added {text-decoration:none !important;}</style></head></svg>