<?xml version="1.0" encoding="utf-8"?>
<!-- Generator: Adobe Illustrator 17.0.0, SVG Export Plug-In . SVG Version: 6.00 Build 0)  -->
<!DOCTYPE svg PUBLIC "-//W3C//DTD SVG 1.1//EN" "http://www.w3.org/Graphics/SVG/1.1/DTD/svg11.dtd">
<svg version="1.1" id="Laag_1" xmlns="http://www.w3.org/2000/svg" xmlns:xlink="http://www.w3.org/1999/xlink" x="0px" y="0px"
	 width="1920px" height="1080px" viewBox="0 0 1920 1080" enable-background="new 0 0 1920 1080" xml:space="preserve">
<g>
	<path fill="#A9CBCB" d="M254.289-1.8c20.429,15.744,42.99,32.637,67.526,50.481c24.564,17.819,51.072,36.639,79.496,56.035
		c14.189,9.731,28.868,19.602,43.944,29.675c15.096,10.045,30.646,20.207,46.584,30.536c15.95,10.311,32.311,20.751,49.059,31.292
		c16.757,10.526,33.917,21.115,51.429,31.8c17.519,10.668,35.384,21.451,53.62,32.182c18.235,10.732,36.808,21.494,55.689,32.228
		c37.74,21.484,76.809,42.805,116.667,63.272c19.913,10.183,40.014,20.201,60.083,29.602c10.021,4.689,20.004,9.222,29.89,13.573
		c9.842,4.302,19.565,8.377,28.797,12.031l3.455,1.366c0.109,0.062,0.977,0.345,0.463,0.226l1.102,0.325l2.204,0.649l3.38,1.019
		l0.78,0.239l0.888,0.256l1.777,0.513c4.745,1.359,9.53,2.649,14.354,3.867c9.647,2.436,19.447,4.586,29.374,6.439
		c19.854,3.703,40.223,6.23,60.864,7.445c20.638,1.226,41.548,1.168,62.404-0.228c20.85-1.395,41.655-4.147,61.912-8.304
		c20.234-4.157,39.966-9.741,58.162-16.709c9.09-3.476,17.787-7.293,25.834-11.37c8.043-4.07,15.436-8.416,21.793-12.757
		c6.336-4.323,11.617-8.682,15.271-12.237c1.832-1.771,3.257-3.32,4.273-4.456c1.021-1.137,1.629-1.847,1.972-1.971
		c0.331-0.127,0.425,0.353,0.567,1.287c0.118,0.924,0.368,2.272,0.76,3.44c0.393,1.172,0.958,2.1,1.333,2.34
		c0.385,0.259,0.57-0.149,0.26-1.162c-0.302-1.005-1.096-2.586-2.415-4.504c-1.298-1.919-3.185-4.175-5.456-6.573
		c-4.612-4.817-10.965-10.165-18.432-15.375c-7.46-5.232-15.984-10.379-25.15-15.271c-9.164-4.902-18.97-9.568-29.177-13.973
		c-20.432-8.818-42.396-16.608-64.994-23.552c-22.613-6.96-45.917-13.033-69.518-18.458c-5.898-1.363-11.824-2.669-17.759-3.952
		l-8.919-1.886l-2.232-0.465l-1.116-0.232c0.35,0.029-0.575-0.151-0.8-0.215l-4.495-1.067l-3.651-0.898l-3.923-0.897
		c-2.602-0.569-5.183-1.106-7.732-1.611c-5.095-1.001-10.065-1.869-14.83-2.552c-4.768-0.679-9.325-1.183-13.49-1.493
		c-4.181-0.338-7.958-0.401-11.006-0.384c-1.542,0.004-2.841,0.054-3.886,0.083c-1.04,0.04-1.808,0.073-2.183-0.001
		c-0.376-0.077-0.349-0.257,0.172-0.741c0.509-0.49,1.537-1.287,2.946-2.655c1.386-1.358,3.249-3.37,4.876-5.933
		c1.673-2.544,3.117-5.632,3.96-8.516c0.899-2.853,1.182-5.525,1.208-7.36c0.02-1.875-0.247-3.092-0.462-3.649
		c-0.467-1.097-0.62,0.099-0.09,2.198c0.26,1.055,0.655,2.355,1.208,3.784c0.569,1.439,1.27,3.019,2.077,4.681
		c3.23,6.72,8.312,14.504,14.171,22.25c5.945,7.745,12.705,15.578,20.018,23.177c14.599,15.274,31.133,29.78,48.387,43.379
		c17.287,13.609,35.391,26.325,53.83,38.289c18.454,11.952,37.293,23.103,56.3,33.5c19.027,10.364,38.22,19.981,57.44,28.89
		c9.614,4.448,19.23,8.73,28.848,12.821c9.625,4.076,19.25,7.959,28.855,11.677c19.21,7.433,38.348,14.177,57.333,20.237
		c18.995,6.033,37.846,11.344,56.453,16.036c18.606,4.702,36.987,8.723,55.074,12.065c18.083,3.362,35.859,6.107,53.265,8.272
		c17.412,2.129,34.454,3.649,51.063,4.656c33.223,2.061,64.718,1.743,94.085-0.078c29.369-1.922,56.616-5.43,81.474-10.05
		c24.867-4.583,47.347-10.22,67.344-16.153c39.995-11.956,70.001-25.059,90.057-34.617c10.02-4.82,17.591-8.726,22.648-11.444
		c5.047-2.733,7.652-4.143,7.652-4.143l59.428,117.429c0,0-3.232,1.49-9.496,4.376c-6.281,2.844-15.622,7.022-27.949,12.107
		c-24.644,10.115-61.309,24.054-109.34,36.351c-23.991,6.176-50.821,11.815-80.195,16.354c-29.383,4.447-61.314,7.828-95.42,9.171
		c-17.048,0.728-34.635,0.963-52.7,0.671c-9.033-0.144-18.184-0.444-27.446-0.874c-9.263-0.411-18.637-0.966-28.115-1.671
		c-18.955-1.407-38.32-3.437-58.031-6.09c-19.716-2.617-39.777-5.886-60.114-9.84c-20.332-3.977-40.958-8.554-61.792-13.853
		c-20.835-5.297-41.878-11.316-63.067-18.056c-21.206-6.689-42.553-14.131-63.978-22.336c-10.712-4.102-21.444-8.396-32.185-12.891
		c-10.756-4.458-21.517-9.128-32.284-13.989c-21.53-9.736-43.07-20.277-64.534-31.71c-21.481-11.403-42.892-23.687-64.147-36.981
		c-21.267-13.281-42.336-27.622-63.158-43.237c-10.404-7.819-20.766-15.944-31.011-24.524c-10.28-8.543-20.424-17.56-30.5-27.135
		c-10.041-9.612-20.014-19.779-29.746-31.048c-9.765-11.293-19.328-23.558-28.418-38.405c-4.513-7.464-8.892-15.61-12.867-25.121
		c-3.928-9.519-7.5-20.431-9.366-33.961c-0.901-6.768-1.287-14.268-0.716-22.379c0.546-8.074,2.206-16.912,5.204-25.67
		c2.988-8.773,7.417-17.453,12.8-25.061c5.374-7.6,11.617-14.189,17.91-19.482c6.308-5.314,12.667-9.509,18.755-12.918
		c6.102-3.405,11.958-6.029,17.538-8.179c5.583-2.146,10.903-3.815,16.016-5.2c5.109-1.394,10.029-2.508,14.75-3.397
		c9.473-1.804,18.349-2.841,26.847-3.542c8.516-0.7,16.669-0.998,24.604-1.055c7.939-0.067,15.667,0.084,23.251,0.417
		c3.79,0.167,7.543,0.378,11.272,0.617l5.568,0.377l5.831,0.475l4.979,0.399c0.565,0.059,0.43,0.002,1.569,0.156l1.25,0.156
		l2.501,0.312c3.337,0.426,6.677,0.853,10.018,1.28c6.687,0.884,13.387,1.799,20.106,2.784c26.871,3.921,53.989,8.653,81.432,14.587
		c27.443,5.969,55.192,13.138,83.414,22.535c14.112,4.709,28.346,9.993,42.737,16.137c14.389,6.146,28.941,13.143,43.673,21.555
		c14.719,8.423,29.665,18.265,44.587,30.719c7.456,6.272,14.896,13.16,22.178,21.058c7.272,7.882,14.393,16.714,20.989,26.774
		c6.586,10.047,12.641,21.357,17.497,33.864c4.866,12.477,8.461,26.184,10.219,40.319c1.799,14.129,1.693,28.607-0.062,42.422
		c-1.755,13.829-5.139,26.946-9.5,38.964c-4.374,12.02-9.704,22.956-15.499,32.906c-5.803,9.953-12.077,18.935-18.565,27.161
		c-12.999,16.45-26.798,29.951-40.767,41.802c-13.987,11.81-28.202,21.942-42.509,30.979c-14.311,9.027-28.727,16.944-43.21,24.056
		c-28.969,14.202-58.213,25.226-87.626,34.068c-29.413,8.81-59,15.381-88.661,20.022c-29.659,4.633-59.393,7.339-89.066,8.2
		c-29.671,0.859-59.285-0.078-88.656-2.868c-14.686-1.391-29.309-3.238-43.843-5.54c-7.267-1.151-14.511-2.416-21.729-3.794
		l-2.706-0.522l-2.808-0.557l-5.553-1.136l-5.135-1.032l-5.418-0.954c-28.768-5.13-54.739-11.114-80.166-17.381
		c-25.311-6.309-49.796-12.876-73.767-19.67c-47.865-13.614-93.701-27.963-138.053-42.441
		c-44.319-14.523-87.054-29.295-128.247-44.018c-20.589-7.377-40.796-14.734-60.576-22.113
		c-19.793-7.355-39.197-14.662-58.17-21.957c-37.934-14.617-74.226-29.027-108.712-43.181
		c-34.467-14.182-67.188-28.013-97.945-41.478c-30.754-13.493-59.559-26.601-86.261-39.202
		c-26.72-12.591-51.388-24.617-73.768-36.011c-22.393-11.368-4.431-337.333-4.431-337.333S233.894-17.582,254.289-1.8z"/>
</g>
<g>
	<path fill="#A9CBCB" d="M3.303,481.124c0,0,2.081,1.225,6.112,3.598c2,1.174,4.593,2.721,7.305,4.258
		c1.392,0.798,2.894,1.66,4.503,2.584c1.633,0.929,3.376,1.921,5.228,2.975c15.04,8.514,37.309,20.768,66.357,35.396
		c29.04,14.63,64.867,31.617,106.789,49.682c41.913,18.074,89.916,37.22,143.03,56.448c53.111,19.232,111.338,38.529,173.535,57.118
		c62.189,18.604,128.358,36.474,197.247,52.983c68.892,16.478,140.507,31.621,213.511,44.621
		c72.99,13,147.384,23.927,221.544,31.757c37.073,3.916,74.08,7.025,110.724,9.153c36.641,2.139,72.923,3.245,108.375,3.079
		c35.406-0.219,70.064-1.697,102.714-5.1c8.156-0.848,16.196-1.797,24.034-2.908c7.852-1.092,15.547-2.301,22.977-3.678
		c14.898-2.702,28.891-6.01,41.155-9.802c1.498-0.489,3.082-0.931,4.506-1.439l2.174-0.738l1.087-0.365
		c0.013-0.01,0.737-0.235,0.167-0.067l0.798-0.278c4.258-1.482,8.507-2.96,12.747-4.435c4.239-1.475,8.47-2.947,12.69-4.415
		c4.064-1.449,8.119-2.895,12.164-4.338c15.978-5.677,32.272-11.635,48.265-17.495c32.025-11.792,63.365-23.723,93.854-35.492
		c60.983-23.575,118.561-46.739,171.623-68.449c106.123-43.506,194.194-81.274,255.634-107.927
		c30.721-13.333,54.792-23.907,71.128-31.126c16.159-7.177,24.777-11.005,24.777-11.005l101.885,249.053
		c0,0-9.276,3.425-26.669,9.848c-17.237,6.327-42.449,15.519-74.561,27.066c-64.233,23.084-156,55.635-267.005,93.012
		c-55.529,18.653-115.853,38.527-180.182,58.752c-32.178,10.098-65.32,20.331-99.449,30.461
		c-17.102,5.046-34.265,10.101-52.18,15.195c-4.424,1.262-8.858,2.527-13.303,3.795c-4.306,1.194-8.622,2.391-12.948,3.591
		c-4.325,1.2-8.661,2.402-13.005,3.607l-4.424,1.237l-4.317,1.183c-2.896,0.809-5.699,1.466-8.559,2.198
		c-22.707,5.59-44.595,9.325-66.059,12.042c-10.747,1.381-21.365,2.461-31.917,3.352c-10.563,0.912-21.03,1.58-31.452,2.1
		c-41.678,2.069-82.527,1.533-123.119-0.366c-40.557-1.969-80.809-5.373-120.813-9.843c-40.006-4.463-79.774-9.951-119.255-16.251
		c-78.957-12.602-156.812-28.319-232.736-46.033C814.07,952,740.114,932.212,669.131,911.203
		c-70.973-21.04-138.962-43.328-202.872-66.198c-63.915-22.855-123.755-46.268-178.461-69.423
		c-54.708-23.151-104.284-46.03-147.754-67.575C96.568,686.474,59.2,666.276,28.75,648.852
		c-30.455-17.418-53.998-32.045-69.954-42.232c-2.017-1.295-3.917-2.514-5.697-3.656c-1.795-1.162-3.469-2.245-5.02-3.249
		c-3.186-2.047-5.502-3.603-7.47-4.903c-3.9-2.583-5.913-3.917-5.913-3.917L3.303,481.124z"/>
</g>
<g>
	<path fill="#FFFFFF" d="M1233.019,665.992c-13.425,19.328,3.886,38.679,3.886,38.679s24.177,9.465,37.601-9.863
		c13.425-19.328,3.564-49.405,3.564-49.405S1246.444,646.664,1233.019,665.992z"/>
	<path fill="#FFFFFF" d="M1396.4,600.735c-19.704-4.227-29.28,15.839-29.28,15.839s0.502,22.228,20.207,26.456
		s40.215-13.494,40.215-13.494S1416.104,604.962,1396.4,600.735z"/>
	<path fill="#FFFFFF" d="M1430.131,716.942c-20.048-2.05-27.375,18.942-27.375,18.942s2.927,22.041,22.975,24.091
		s38.501-17.804,38.501-17.804S1450.179,718.992,1430.131,716.942z"/>
	<path fill="#FFFFFF" d="M1161.422,641.114c-6.898,13.059,5.203,23.722,5.203,23.722s15.629,3.984,22.527-9.075
		s-1.375-30.969-1.375-30.969S1168.321,628.055,1161.422,641.114z"/>
	<path fill="#FFFFFF" d="M1202.036,847.497c-1.813-15.502-18.913-17.52-18.913-17.52s-16.173,5.909-14.361,21.411
		c1.813,15.502,19.919,26.123,19.919,26.123S1203.848,862.998,1202.036,847.497z"/>
	<path fill="#FFFFFF" d="M1316.546,832.253c-6.006-15.764-24.461-13.349-24.461-13.349s-15.383,10.477-9.376,26.241
		c6.006,15.764,27.794,22.097,27.794,22.097S1322.552,848.017,1316.546,832.253z"/>
	<path fill="#FFFFFF" d="M1289.348,841.32c6.561-11.033-3.602-20.895-3.602-20.895s-13.518-4.22-20.079,6.812
		c-6.561,11.033-0.04,27.018-0.04,27.018S1282.786,852.353,1289.348,841.32z"/>
	<path fill="#FFFFFF" d="M1220.341,701.869c8.034,8.31,19.007,1.812,19.007,1.812s6.864-10.748-1.171-19.057
		s-23.466-6.423-23.466-6.423S1212.306,693.559,1220.341,701.869z"/>
	<path fill="#FFFFFF" d="M1263.796,600.505c-6.906,7.594-0.522,16.948-0.522,16.948s9.916,5.47,16.822-2.124
		c6.906-7.594,4.355-21.162,4.355-21.162S1270.703,592.911,1263.796,600.505z"/>
	<path fill="#FFFFFF" d="M1241.826,611.152c5.062,12.382,19.646,10.115,19.646,10.115s11.994-8.599,6.932-20.981
		c-5.062-12.382-22.455-16.987-22.455-16.987S1236.764,598.77,1241.826,611.152z"/>
	<path fill="#FFFFFF" d="M1340.714,676.627c0.582,10.248,11.73,12.244,11.73,12.244s10.85-3.245,10.268-13.494
		c-0.582-10.248-12.053-17.931-12.053-17.931S1340.132,666.379,1340.714,676.627z"/>
	<path fill="#FFFFFF" d="M1363.242,670.48c-11.363,3.42-10.599,16.49-10.599,16.49s6.576,11.321,17.939,7.901
		c11.363-3.42,16.905-18.388,16.905-18.388S1374.606,667.06,1363.242,670.48z"/>
	<path fill="#FFFFFF" d="M1377.591,630.441c1.149-11.811-11.234-16.064-11.234-16.064s-12.97,1.788-14.118,13.599
		c-1.149,11.811,10.596,22.618,10.596,22.618S1376.442,642.252,1377.591,630.441z"/>
	<path fill="#FFFFFF" d="M1147.344,660.747c4.054,9.03,14.782,6.988,14.782,6.988s8.654-6.661,4.6-15.69
		c-4.054-9.03-17.032-11.999-17.032-11.999S1143.289,651.717,1147.344,660.747z"/>
	<path fill="#FFFFFF" d="M1034.295,775.389c7.114,6.882,16.32,1.007,16.32,1.007s5.567-9.395-1.547-16.277
		c-7.114-6.882-20.268-4.826-20.268-4.826S1027.181,768.507,1034.295,775.389z"/>
	<path fill="#FFFFFF" d="M1456.443,795.399c-15.568-1.73-21.407,14.536-21.407,14.536s2.124,17.151,17.693,18.882
		c15.568,1.73,30.046-13.575,30.046-13.575S1472.012,797.129,1456.443,795.399z"/>
	<path fill="#FFFFFF" d="M1401.919,768.183c-15.661-0.346-20.037,16.373-20.037,16.373s3.633,16.896,19.294,17.242
		c15.661,0.346,28.727-16.181,28.727-16.181S1417.58,768.529,1401.919,768.183z"/>
	<path fill="#FFFFFF" d="M1336.183,742.85c-15.172,0.052-18.996,16.349-18.996,16.349s3.936,16.27,19.108,16.218
		s27.416-16.377,27.416-16.377S1351.355,742.798,1336.183,742.85z"/>
	<path fill="#FFFFFF" d="M1330.439,772.196c-1.88-10.655-13.796-11.362-13.796-11.362s-10.954,4.742-9.074,15.397
		c1.88,10.655,14.839,17.275,14.839,17.275S1332.319,782.851,1330.439,772.196z"/>
	<path fill="#FFFFFF" d="M1034.525,728.075c0.559,20.145,22.323,24.696,22.323,24.696s21.477-5.752,20.918-25.897
		s-22.633-35.875-22.633-35.875S1033.965,707.93,1034.525,728.075z"/>
	<path fill="#FFFFFF" d="M1227.763,827.718c-17.964-14.864-38.509,0.615-38.509,0.615s-11.359,23.08,6.605,37.943
		c17.964,14.864,48.478,7.634,48.478,7.634S1245.726,842.582,1227.763,827.718z"/>
	<path fill="#FFFFFF" d="M1463.866,866.103c-15.547-12.823-33.285,0.584-33.285,0.584s-9.786,19.965,5.761,32.787
		c15.547,12.823,41.912,6.532,41.912,6.532S1479.413,878.926,1463.866,866.103z"/>
	<path fill="#FFFFFF" d="M1053.109,762.42c0,0,0.468-0.202,1.288-0.555c0.41-0.177,0.907-0.391,1.478-0.637
		c0.557-0.251,1.245-0.512,1.886-0.838c0.643-0.328,1.339-0.683,2.075-1.058c0.371-0.188,0.752-0.382,1.142-0.579
		c0.387-0.211,0.772-0.455,1.17-0.688c0.791-0.478,1.624-0.955,2.451-1.475c0.811-0.551,1.634-1.111,2.457-1.67
		c0.831-0.554,1.614-1.19,2.414-1.773c0.798-0.585,1.57-1.19,2.312-1.786c1.489-1.193,2.879-2.306,4.071-3.261
		c2.401-1.904,4.002-3.174,4.002-3.174l0.522,0.581c0,0-1.389,1.488-3.473,3.72c-1.04,1.125-2.254,2.438-3.554,3.844
		c-0.651,0.706-1.334,1.43-2.056,2.148c-0.724,0.716-1.421,1.479-2.191,2.18c-0.767,0.709-1.533,1.417-2.287,2.115
		c-0.781,0.672-1.578,1.305-2.338,1.935c-0.385,0.31-0.751,0.627-1.133,0.917c-0.393,0.281-0.778,0.556-1.152,0.824
		c-0.755,0.536-1.468,1.044-2.127,1.512c-0.662,0.466-1.248,0.791-1.779,1.133c-0.527,0.328-0.987,0.614-1.366,0.85
		c-0.758,0.471-1.191,0.74-1.191,0.74L1053.109,762.42z"/>
	<path fill="#FFFFFF" d="M1337.282,606.246c0,0,0.556,0.161,1.529,0.443c0.958,0.276,2.334,0.666,4.014,1.112
		c1.67,0.464,3.632,0.949,5.737,1.482c2.104,0.534,4.361,1.022,6.62,1.555c1.133,0.233,2.266,0.465,3.381,0.694
		c1.117,0.221,2.217,0.469,3.285,0.654c2.143,0.356,4.142,0.688,5.856,0.973c3.455,0.402,5.758,0.67,5.758,0.67l0.002,1.017
		c0,0-2.35,0.127-5.874,0.317c-1.766,0.009-3.827,0.02-6.035,0.031c-1.106-0.002-2.241-0.061-3.401-0.09
		c-1.16-0.038-2.339-0.077-3.518-0.115c-2.346-0.145-4.708-0.248-6.91-0.421c-2.202-0.172-4.264-0.322-6.025-0.501
		c-1.76-0.158-3.241-0.316-4.281-0.431c-1.024-0.115-1.61-0.181-1.61-0.181L1337.282,606.246z"/>
	<path fill="#FFFFFF" d="M1157.836,822.317c0,0,0.67,0.139,1.842,0.383c1.152,0.237,2.807,0.572,4.827,0.941
		c2.01,0.394,4.367,0.779,6.896,1.209c2.529,0.431,5.235,0.787,7.947,1.199c1.357,0.162,2.714,0.325,4.05,0.485
		c1.337,0.149,2.658,0.335,3.934,0.445c2.549,0.199,4.942,0.404,6.995,0.547c4.11,0.103,6.851,0.172,6.851,0.172l0.125,1.246
		c0,0-2.755,0.421-6.888,1.052c-2.075,0.224-4.501,0.446-7.113,0.704c-1.305,0.118-2.65,0.169-4.021,0.259
		c-1.373,0.079-2.768,0.159-4.163,0.24c-2.783,0.073-5.581,0.201-8.198,0.222c-2.616,0.022-5.065,0.058-7.163,0.023
		c-2.093-0.008-3.859-0.047-5.101-0.081c-1.221-0.035-1.918-0.054-1.918-0.054L1157.836,822.317z"/>
	<path fill="#FFFFFF" d="M1111.454,885.528c-17.303-6.477-28.678,10.437-28.678,10.437s-2.526,20.226,14.776,26.703
		s38.28-6.842,38.28-6.842S1128.757,892.004,1111.454,885.528z"/>
	<path fill="#FFFFFF" d="M1105.436,853.368c-22.558,5.895-22,31.612-22,31.612s12.095,22.703,34.653,16.808
		c22.558-5.895,34.519-34.883,34.519-34.883S1127.994,847.474,1105.436,853.368z"/>
	<path fill="#FFFFFF" d="M1048.714,890.314c0,0,0.756,0.029,2.079,0.079c1.295,0.047,3.154,0.107,5.425,0.129
		c1.13,0.011,2.359,0.052,3.654,0.035c1.298-0.006,2.667-0.012,4.084-0.018c2.837-0.008,5.848-0.151,8.882-0.224
		c1.508-0.091,3.016-0.182,4.5-0.272c1.484-0.103,2.96-0.159,4.368-0.297c1.409-0.15,2.77-0.295,4.062-0.432
		c1.292-0.143,2.525-0.257,3.652-0.402c4.482-0.764,7.471-1.273,7.471-1.273l0.447,1.418c0,0-2.898,1.085-7.245,2.712
		c-1.102,0.362-2.305,0.71-3.576,1.103c-1.276,0.388-2.622,0.797-4.014,1.221c-1.396,0.412-2.851,0.748-4.327,1.139
		c-1.48,0.377-2.984,0.761-4.488,1.144c-3.02,0.656-6.046,1.385-8.898,1.941c-1.428,0.28-2.808,0.551-4.116,0.808
		c-1.31,0.269-2.554,0.465-3.702,0.674c-2.287,0.415-4.23,0.724-5.598,0.935c-1.341,0.204-2.107,0.321-2.107,0.321L1048.714,890.314
		z"/>
	<path fill="#FFFFFF" d="M1129.796,715.005c0,0,2.394-3.834,5.985-9.584c3.616-5.728,8.485-13.332,13.486-20.854
		c2.505-3.759,5.042-7.497,7.465-10.973c1.229-1.728,2.389-3.413,3.539-4.982c1.16-1.564,2.212-3.064,3.259-4.405
		c1.049-1.34,1.96-2.595,2.855-3.655c0.891-1.063,1.642-2.001,2.301-2.748c1.367-1.457,2.147-2.29,2.147-2.29l0.743,0.702
		c0,0-0.685,0.874-1.883,2.404c-0.577,0.784-1.237,1.777-2.014,2.891c-0.781,1.11-1.577,2.439-2.49,3.845
		c-0.911,1.407-1.825,2.991-2.831,4.632c-0.997,1.647-2,3.421-3.062,5.234c-2.093,3.651-4.276,7.576-6.427,11.518
		c-4.295,7.891-8.454,15.859-11.534,21.853c-3.048,6.003-5.08,10.005-5.08,10.005L1129.796,715.005z"/>
	<path fill="#FFFFFF" d="M1314.603,562.074c-11.122,20.739,8.291,37.979,8.291,37.979s25.102,6.634,36.224-14.105
		c11.123-20.739-2.118-49.488-2.118-49.488S1325.725,541.336,1314.603,562.074z"/>
	<path fill="#FFFFFF" d="M1306.118,599.167c8.933,7.335,19.09-0.377,19.09-0.377s5.587-11.463-3.346-18.798
		s-24.047-3.693-24.047-3.693S1297.184,591.833,1306.118,599.167z"/>
	<path fill="#FFFFFF" d="M1292.822,615.749c0,0,0.468-0.314,1.286-0.863c0.833-0.557,2.021-1.344,3.446-2.251
		c1.416-0.927,3.103-1.957,4.896-3.07c1.796-1.11,3.756-2.233,5.686-3.383c0.986-0.547,1.971-1.094,2.941-1.632
		c0.974-0.53,1.909-1.081,2.854-1.559c1.89-0.954,3.634-1.859,5.147-2.599c3.081-1.37,5.134-2.284,5.134-2.284l0.45,0.883
		c0,0-1.838,1.235-4.594,3.088c-1.343,0.977-2.886,2.154-4.542,3.389c-0.828,0.618-1.648,1.318-2.499,1.994
		c-0.845,0.683-1.704,1.377-2.562,2.071c-1.679,1.446-3.374,2.855-4.922,4.231c-1.545,1.38-2.994,2.653-4.201,3.785
		c-1.224,1.118-2.214,2.056-2.901,2.713c-0.698,0.669-1.096,1.051-1.096,1.051L1292.822,615.749z"/>
	<path fill="#FFFFFF" d="M1341.312,789.636c0,0,0.202-0.074,0.579-0.212c0.366-0.127,0.901-0.313,1.583-0.55
		c1.357-0.46,3.29-1.083,5.625-1.763c4.664-1.366,10.953-2.937,17.376-3.869c1.604-0.234,3.217-0.423,4.81-0.568
		c1.595-0.133,3.167-0.234,4.694-0.258c1.526-0.03,3.004-0.014,4.406,0.088c0.699,0.034,1.38,0.095,2.038,0.178
		c0.656,0.062,1.29,0.152,1.896,0.262c0.606,0.092,1.184,0.198,1.729,0.334c0.546,0.128,1.064,0.228,1.542,0.387
		c0.477,0.146,0.924,0.282,1.336,0.409c0.404,0.156,0.775,0.299,1.11,0.429c0.674,0.235,1.163,0.54,1.512,0.692
		c0.343,0.169,0.526,0.259,0.526,0.259l-0.493,1.066c0,0-0.182-0.059-0.524-0.168c-0.349-0.093-0.824-0.308-1.485-0.434
		c-0.325-0.074-0.684-0.156-1.075-0.245c-0.397-0.061-0.828-0.126-1.287-0.196c-0.454-0.083-0.954-0.104-1.472-0.149
		c-0.517-0.053-1.065-0.073-1.639-0.075c-0.57-0.021-1.166-0.019-1.786,0.013c-0.617,0.011-1.254,0.046-1.911,0.11
		c-1.31,0.094-2.69,0.28-4.108,0.516c-1.419,0.229-2.878,0.54-4.352,0.881c-1.473,0.354-2.96,0.752-4.438,1.192
		c-5.914,1.758-11.65,4.112-15.855,6.039c-2.104,0.961-3.832,1.809-5.021,2.416c-0.587,0.305-1.049,0.545-1.363,0.708
		c-0.298,0.161-0.458,0.248-0.458,0.248L1341.312,789.636z"/>
	<path fill="#FFFFFF" d="M1328.689,702.964c0,0,0.395-0.277,1.085-0.763c0.703-0.493,1.706-1.187,2.909-1.99
		c1.195-0.82,2.621-1.732,4.136-2.718c1.518-0.983,3.175-1.981,4.807-3.001c0.833-0.486,1.667-0.973,2.488-1.451
		c0.825-0.472,1.615-0.96,2.415-1.387c1.601-0.852,3.078-1.658,4.359-2.32c2.612-1.229,4.354-2.049,4.354-2.049l0.402,0.748
		c0,0-1.551,1.091-3.877,2.728c-1.132,0.861-2.432,1.897-3.827,2.985c-0.697,0.544-1.387,1.158-2.103,1.753
		c-0.711,0.6-1.433,1.21-2.156,1.82c-1.411,1.268-2.836,2.506-4.136,3.713c-1.298,1.21-2.515,2.327-3.527,3.318
		c-1.027,0.98-1.858,1.801-2.434,2.376c-0.585,0.585-0.919,0.92-0.919,0.92L1328.689,702.964z"/>
	<path fill="#FFFFFF" d="M1301.562,668.585c-6.748,11.151,3.494,21.245,3.494,21.245s13.694,4.391,20.442-6.761
		c6.748-11.151,0.251-27.433,0.251-27.433S1308.311,657.433,1301.562,668.585z"/>
	<path fill="#FFFFFF" d="M1074.987,729.081c-5.915,10.288,3.614,19.266,3.614,19.266s12.554,3.717,18.468-6.571
		c5.915-10.288-0.332-24.975-0.332-24.975S1080.901,718.793,1074.987,729.081z"/>
	<path fill="#FFFFFF" d="M1405.533,817.074c0,0,0.544-0.132,1.497-0.363c0.969-0.234,2.348-0.559,3.989-0.915
		c1.64-0.378,3.568-0.759,5.625-1.181c2.058-0.418,4.272-0.792,6.469-1.202c1.107-0.172,2.215-0.343,3.306-0.512
		c1.091-0.16,2.153-0.352,3.198-0.473c2.091-0.241,4.03-0.484,5.696-0.656c3.346-0.219,5.576-0.365,5.576-0.365l0.116,0.979
		c0,0-2.14,0.521-5.349,1.302c-1.589,0.45-3.434,1.018-5.404,1.601c-0.985,0.292-1.991,0.663-3.017,1.001
		c-1.023,0.347-2.063,0.699-3.103,1.052c-2.063,0.772-4.13,1.503-6.047,2.256c-1.917,0.757-3.706,1.446-5.221,2.087
		c-1.526,0.623-2.773,1.157-3.64,1.534c-0.881,0.384-1.384,0.604-1.384,0.604L1405.533,817.074z"/>
	<path fill="#FFFFFF" d="M1031.53,800.386c0,0,0.574-0.87,1.58-2.392c1.006-1.534,2.422-3.754,4.104-6.434
		c1.666-2.688,3.603-5.836,5.603-9.252c2.02-3.407,4.095-7.085,6.115-10.795c1.03-1.848,1.975-3.73,2.953-5.568
		c0.955-1.846,1.844-3.685,2.735-5.457c0.838-1.793,1.649-3.526,2.417-5.169c0.716-1.666,1.393-3.241,2.018-4.695
		c0.599-1.464,1.093-2.824,1.562-4.025c0.485-1.197,0.809-2.265,1.099-3.141c0.577-1.757,0.906-2.762,0.906-2.762l1.422,0.318
		c0,0-0.196,1.057-0.54,2.906c-0.175,0.926-0.361,2.062-0.687,3.329c-0.31,1.272-0.628,2.723-1.036,4.286
		c-0.435,1.555-0.906,3.24-1.404,5.023c-0.554,1.765-1.139,3.626-1.743,5.551c-0.656,1.904-1.309,3.888-2.023,5.882
		c-0.736,1.982-1.441,4.023-2.228,6.023c-1.537,4.019-3.137,8.017-4.714,11.729c-1.559,3.723-3.088,7.165-4.411,10.114
		c-1.339,2.942-2.474,5.388-3.294,7.097c-0.83,1.716-1.304,2.697-1.304,2.697L1031.53,800.386z"/>
	<path fill="#FFFFFF" d="M1244.881,630.959c0,0,0.372-0.329,1.021-0.905c0.662-0.586,1.607-1.412,2.745-2.37
		c1.127-0.976,2.482-2.069,3.917-3.25c0.711-0.597,1.482-1.178,2.247-1.785c0.768-0.601,1.548-1.212,2.329-1.823
		c0.797-0.591,1.595-1.182,2.38-1.763c0.791-0.573,1.538-1.167,2.314-1.685c0.767-0.525,1.508-1.033,2.211-1.515
		c0.707-0.476,1.354-0.945,1.985-1.341c2.53-1.549,4.217-2.582,4.217-2.582l0.501,0.726c0,0-1.459,1.292-3.649,3.23
		c-0.54,0.488-1.094,1.061-1.695,1.642c-0.596,0.585-1.225,1.202-1.876,1.84c-0.656,0.628-1.286,1.339-1.95,2.027
		c-0.657,0.694-1.325,1.4-1.993,2.105c-0.65,0.724-1.299,1.448-1.938,2.161c-0.634,0.717-1.274,1.403-1.86,2.102
		c-1.184,1.387-2.298,2.665-3.215,3.794c-0.935,1.12-1.687,2.054-2.205,2.708c-0.528,0.666-0.83,1.047-0.83,1.047L1244.881,630.959z
		"/>
	<path fill="#FFFFFF" d="M1117.627,1080.908c0,0,18.64-35.151,62.403-34.554s82.663,34.554,82.663,34.554h-40.521
		c0,0-27.554-12.251-41.332-12.251c-13.777,0-29.175,12.584-29.175,12.584L1117.627,1080.908z"/>
	<path fill="#FFFFFF" d="M1338.062,1081.241c0,0,45.384-25.728,81.853-17.447c36.469,8.281,53.488,17.781,75.369,17.447H1338.062z"
		/>
	<path fill="#FFFFFF" d="M1427.821,828.287c0,0-55.916-33.158-97.246-42.882c-41.329-9.725-96.03-21.88-96.03-21.88
		s64.425-32.82,91.168-31.605c26.743,1.216,82.659,8.509,82.659,8.509s-31.605-21.88-44.976-36.467
		c-13.371-14.587-89.952,0-120.341,7.293c-30.39,7.293-34.036,13.371-55.916,1.216c-21.881-12.156,92.383-76.581,128.85-85.09
		c36.467-8.509,70.503-38.898,70.503-38.898s-110.617,30.389-143.437,40.114c-32.821,9.725-123.989,85.09-130.067,98.461
		c-6.078,13.371-95.37,83.91-126.975,98.497c-21.212,9.79-70.991,46.534-115.258,78.217c-21.69,15.524-31.778,53.993-42.571,54.792
		c-14.249,1.056-25.132,10.513-31.901,22.561c-6.226,11.08-4.155,23.332-11.308,34.133c-7.73,11.672-18.833,16.032-29.34,24.376
		c-9.655,7.667-21.984,12.237-34.303,13.267c-22.692,1.898-74.559,28.007-74.559,28.007h116.284
		c-0.268,0.109-0.532,0.231-0.803,0.333l195.346-0.163c0,0-0.063-0.061-0.173-0.171h96.989c0,0-29.986-13.696-62.402-17.748
		c-25.761-3.22-42.286-19.91-55.853-32.584c-7.765-9.814,3.086-68.391,43.713-82.957c40.67-14.582,78.317-48.629,90.522-62.877
		c12.205-14.248,12.205-14.248,12.205-14.248s119.126-65.522,159.24-60.111c40.114,5.411,89.952,10.948,123.988,17.904
		c34.036,6.956,71.719,45.405,71.719,45.405L1427.821,828.287z"/>
	<path fill="#FFFFFF" d="M555.831,1081.079h73.921c0,0-5.174-14.571-22.916-24.362c-12.182-6.723-31.682,0.02-42.707,4.906
		c-5.288-2.948-11.632-5.52-19.082-7.079c-19.116-10.199-69.323-28.683-120.332-74.471c0,0,25.123,31.778,44.573,47.581
		c9.691,7.874,23.907,18.447,35.985,28.408c12.087,9.968,22.029,19.321,23.151,24.741h27.406v0.105V1081.079z"/>
	<path fill="#FFFFFF" d="M1190.316,721.575c0,0,2.975-1.237,7.438-3.094c2.241-0.917,4.855-1.987,7.657-3.134
		c2.791-1.162,5.799-2.341,8.807-3.514c3.003-1.177,6.006-2.353,8.822-3.456c1.396-0.568,2.78-1.061,4.097-1.515
		c1.312-0.461,2.551-0.897,3.696-1.3c4.564-1.604,7.607-2.673,7.607-2.673l0.346,0.929c0,0-2.882,1.421-7.204,3.552
		c-1.077,0.531-2.244,1.107-3.478,1.715c-1.235,0.599-2.532,1.246-3.853,1.978c-2.652,1.427-5.481,2.948-8.311,4.47
		c-2.829,1.515-5.654,3.035-8.276,4.518c-2.628,1.465-5.081,2.832-7.183,4.005c-4.2,2.373-7,3.955-7,3.955L1190.316,721.575z"/>
	<path fill="#FFFFFF" d="M1275.423,707.482c0,0,2.371-1.402,5.927-3.506c3.574-2.086,8.307-4.91,13.1-7.642
		c2.389-1.374,4.778-2.748,7.018-4.037c2.229-1.3,4.381-2.424,6.186-3.43c3.625-1.987,6.042-3.311,6.042-3.311l0.435,0.73
		c0,0-2.235,1.601-5.588,4.003c-1.668,1.214-3.641,2.566-5.699,4.125c-2.064,1.544-4.266,3.191-6.467,4.838
		c-4.413,3.273-8.765,6.639-12.048,9.127c-3.274,2.512-5.457,4.187-5.457,4.187L1275.423,707.482z"/>
	<path fill="#FFFFFF" d="M1253.498,771.833c0,0,1.165-0.346,3.204-0.953c1.02-0.303,2.257-0.671,3.677-1.093
		c0.712-0.209,1.47-0.431,2.269-0.665c0.831-0.199,1.705-0.409,2.617-0.628c1.819-0.435,3.79-0.906,5.875-1.404
		c2.083-0.517,4.257-0.867,6.516-1.335c2.259-0.426,4.58-0.944,6.957-1.311c2.372-0.398,4.781-0.802,7.19-1.206
		c2.408-0.404,4.822-0.731,7.194-1.095c2.373-0.355,4.706-0.706,6.966-1.01c4.516-0.625,8.731-1.209,12.344-1.709
		c3.615-0.485,6.612-0.938,8.714-1.248c2.103-0.31,3.304-0.487,3.304-0.487l0.207,1.028c0,0-1.184,0.278-3.257,0.764
		c-2.073,0.486-5.037,1.192-8.596,1.979c-3.556,0.801-7.705,1.736-12.15,2.738c-2.224,0.493-4.51,1.036-6.833,1.586
		c-2.32,0.558-4.688,1.085-7.033,1.684c-2.343,0.599-4.687,1.198-6.994,1.788c-2.315,0.559-4.542,1.259-6.72,1.862
		c-2.158,0.64-4.301,1.174-6.226,1.831c-1.933,0.636-3.761,1.238-5.448,1.793c-0.841,0.276-1.647,0.541-2.414,0.792
		c-0.773,0.299-1.506,0.583-2.195,0.85c-1.379,0.54-2.582,1.01-3.572,1.398c-1.98,0.775-3.112,1.218-3.112,1.218L1253.498,771.833z"
		/>
	<path fill="#FFFFFF" d="M1256.418,803.444c0,0,2.573,1.316,6.432,3.289c0.964,0.484,2.014,1.056,3.12,1.635
		c1.106,0.584,2.272,1.201,3.479,1.838c2.387,1.272,4.934,2.629,7.479,3.986c1.272,0.657,2.54,1.36,3.799,1.97
		c1.261,0.621,2.502,1.232,3.704,1.823c1.221,0.536,2.402,1.054,3.521,1.545c1.117,0.513,2.219,0.847,3.217,1.238
		c1.006,0.36,1.917,0.743,2.759,0.961c0.836,0.247,1.565,0.463,2.165,0.641c1.205,0.357,1.894,0.56,1.894,0.56l-0.188,0.996
		c0,0-0.718-0.109-1.976-0.3c-0.631-0.096-1.397-0.213-2.276-0.347c-0.888-0.106-1.856-0.363-2.931-0.589
		c-1.064-0.256-2.253-0.449-3.455-0.812c-1.212-0.345-2.491-0.708-3.814-1.084c-1.3-0.432-2.644-0.878-4.009-1.331
		c-1.374-0.448-2.718-0.969-4.093-1.456c-2.715-1-5.431-2-7.977-2.938c-1.263-0.46-2.484-0.905-3.642-1.327
		c-1.162-0.418-2.239-0.827-3.27-1.179c-4.092-1.429-6.82-2.382-6.82-2.382L1256.418,803.444z"/>
</g>
</svg>
