<svg xmlns="http://www.w3.org/2000/svg" width="1920" height="1080" viewBox="0 0 1920 1080"><path fill="#A9CBCB" d="M1733 977.572c-34-11.284-186-53.392-44-48.468 120.247 4.17 220.41-28.895 292-48.08V854.54s-232-8.798-1021.675 2.288S181 834.734-55 851.25v70.758l202 2.78c128-3.36 492.194-1.06 670.097 9.486C995 944.82 801 987.126 589 982.487c-171.708-3.758-470.674 20.27-644 42.185V1129.7l2036-14.242v-126.03c-82 3.326-214-.572-248-11.856zm6 70.307c-102-.15-248-24.622-338-25.244-90-.623-218 18.512-330.446 16.728-112.446-1.784 10.38-8.116 104.888-27.63 182.443-37.672 343.557-7.74 471.557 10.9 128 18.645 194 25.395 92 25.245zM751.863 798.586C918.356 796.294 1501 773.432 1683 787.57s306 2.154 306 2.154l-24 29.756s-320-22.638-526-20.893-379.772 28.947-613.886 29.795S400.24 795.964 326.62 800.9C253 805.836 341 775.025 433 775.98s145.726 24.99 318.863 22.606z"/><g fill="#FFF"><path d="M922.462 1015.635c14.25 14.25 33.188 2.6 33.188 2.6s11.65-18.938-2.6-33.188c-14.25-14.25-41.096-10.508-41.096-10.508s-3.742 26.844 10.508 41.095zM1001.19 953.526c-9.5 9.5-22.126 1.734-22.126 1.734s-7.766-12.625 1.734-22.125 27.397-7.006 27.397-7.006 2.494 17.896-7.006 27.396z"/><path d="M932.68 1086.248l-.056-1.845-.067-2.216-.02-.68c-.006-.236-.018-.454-.01-.787l.024-1.96c.04-1.363.018-2.945.14-4.514.14-1.55.295-3.224.458-5.014.275-1.774.53-3.664.888-5.63l.643-2.996c.21-1.025.45-2.062.753-3.1l.88-3.187c.32-1.07.696-2.138 1.053-3.23.354-1.097.733-2.198 1.168-3.283l1.288-3.317c1.832-4.414 3.973-8.855 6.276-13.277 4.617-8.827 9.87-17.535 14.3-26.43 2.208-4.45 4.267-8.94 5.977-13.47 1.67-4.534 3.153-9.078 4.177-13.588.307-1.12.5-2.248.725-3.365.21-1.118.458-2.224.637-3.327.16-1.108.315-2.205.47-3.288l.233-1.62c.063-.538.1-1.075.15-1.608.18-2.132.428-4.215.45-6.24.063-2.025.186-3.99.11-5.878-.058-1.887-.006-3.71-.148-5.432-.12-1.73-.23-3.368-.337-4.91-.312-3.074-.647-5.762-.935-7.977l-1.16-6.933-.004-.023c-.045-.27.137-.525.407-.57.247-.042.48.106.555.337l2.16 6.76c.61 2.174 1.34 4.828 2.106 7.9l1.064 4.938c.398 1.74.618 3.603.956 5.538.36 1.935.53 3.975.767 6.09.278 2.112.338 4.313.474 6.583.028.566.07 1.14.086 1.715 0 .576.003 1.156.004 1.74l.005 3.552c-.02 1.2-.11 2.407-.163 3.633-.066 1.225-.104 2.468-.254 3.708-.4 4.995-1.278 10.113-2.376 15.272-1.136 5.15-2.644 10.28-4.296 15.32-3.33 10.08-7.372 19.66-10.446 28.44-1.532 4.384-2.84 8.57-3.84 12.497l-.662 2.895c-.233.948-.406 1.88-.556 2.793-.155.913-.335 1.808-.464 2.684l-.316 2.57c-.124.837-.187 1.655-.227 2.453l-.156 2.33c-.048 1.51-.02 2.938-.045 4.27l.212 3.728c.076 1.133.255 2.03.345 2.908.05.43.1.835.144 1.217.013.167.063.43.103.657.04.23.08.454.116.67.15.86.28 1.59.384 2.183l.32 1.818c1.177 6.707-3.305 13.1-10.012 14.277-6.707 1.178-13.1-3.304-14.277-10.01-.1-.568-.158-1.133-.18-1.693v-.08z"/></g><head/></svg>