<svg xmlns="http://www.w3.org/2000/svg" width="1920" height="1080" viewBox="0 0 1920 1080"><g fill="#FFF"><path d="M834.785 1081.3c44.976-17.048 53.322-124.095 59.4-207.298 3.025-41.408 13.624-94.452 5.033-123.56-8.67-29.38-25.63-45.25-35.4-63.57-19.448-36.466-22.78-38.303-41.012-57.678-18.234-19.376-77.163-107.91-80.81-115.442-3.647-7.533 100.493 87.302 115.08 100.673 14.587 13.37 54.85 83.72 61.144 52.42 6.295-31.3 21.854-106.888 29.1-133.63 16.97-6.078 34.728-41.245 34.728-41.245s-20.284 167.394-15.422 169.825 41.012-16.674 60.855-35.847c15.487-14.964 76.37-46.903 87.31-48.12 13.342 1.144 36.65-6.535 36.65-6.535s-22.904 30.7-37.46 33.457c-28.66 5.427-134.95 101.922-139.813 128.328-4.862 26.405-1.475 212.515 2.167 241.512 7.774 61.886 53.796 106.55 53.796 106.55l-195.345.16z"/><path d="M874.06 621.225c19.466 13.226 38.638-4.283 38.638-4.283s9.217-24.273-10.248-37.498-49.44-3.057-49.44-3.057 1.586 31.613 21.05 44.838zM783.574 533.505c3.725 19.806 25.933 20.873 25.933 20.873s20.304-9.062 16.58-28.868c-3.726-19.806-28-31.864-28-31.864s-18.237 20.053-14.513 39.86zM983.258 476.25c-15.74 12.585-6.26 32.696-6.26 32.696s17.533 13.675 33.273 1.09c15.74-12.585 14.994-39.68 14.994-39.68s-26.266-6.69-42.006 5.894zM811.74 677.774c14.597 2.24 20.707-12.688 20.707-12.688s-1.356-16.072-15.954-18.31c-14.598-2.24-28.81 11.444-28.81 11.444s9.458 17.315 24.056 19.554zM1037.718 700.196c-9.037-12.725-25.004-6.28-25.004-6.28s-11.346 12.953-2.31 25.677c9.038 12.725 30.02 13.342 30.02 13.342s6.33-20.014-2.706-32.74zM1131.342 624.907c-9.768-13.754-27.027-6.788-27.027-6.788s-12.264 14-2.496 27.753c9.767 13.754 32.446 14.42 32.446 14.42s6.844-21.632-2.924-35.386z"/><path d="M1107.287 640.505c3.585-12.325-8.727-19.325-8.727-19.325s-14.145-.695-17.73 11.63 6.738 26.164 6.738 26.164 16.134-6.144 19.72-18.47zM910.066 633.535c8.227-8.12 1.617-19.025 1.617-19.025s-10.818-6.753-19.044 1.366c-8.228 8.12-6.183 23.53-6.183 23.53s15.382 2.248 23.61-5.87zM771.45 602.183c9.473 3.95 16.136-5.206 16.136-5.206s1.818-11.178-7.656-15.13c-9.474-3.95-21.394 3.014-21.394 3.014s3.44 13.372 12.913 17.323z"/><path d="M788.862 619.295c9.96-8.93 2.922-21.903 2.922-21.903s-12.13-8.405-22.09.525c-9.96 8.93-8.45 26.86-8.45 26.86s17.66 3.448 27.618-5.482zM927.01 524.446c9.474 3.95 16.137-5.206 16.137-5.206s1.818-11.178-7.656-15.13c-9.473-3.95-21.393 3.014-21.393 3.014s3.44 13.37 12.913 17.322z"/><path d="M931.317 501.495c-1.885 11.716 10.207 16.735 10.207 16.735s13.056-.973 14.94-12.69c1.886-11.715-9.16-23.236-9.16-23.236s-14.102 7.475-15.987 19.19zM818.244 539.358c-11.336 3.51-10.468 16.573-10.468 16.573s6.666 11.27 18.002 7.76c11.336-3.51 16.758-18.522 16.758-18.522s-12.956-9.32-24.292-5.81zM834.9 684.644c7.204-6.79 1.76-16.256 1.76-16.256s-9.128-5.995-16.33.795-5.757 20.023-5.757 20.023 13.125 2.227 20.328-4.562zM889.16 813.49c9.502-2.77 8.958-13.678 8.958-13.678s-5.404-9.49-14.907-6.718c-9.502 2.77-14.23 15.216-14.23 15.216s10.678 7.953 20.18 5.18zM1080.752 552.254c-11.342 10.804-2.648 25.74-2.648 25.74s14.495 9.41 25.838-1.393c11.342-10.803 8.942-31.734 8.942-31.734s-20.79-3.416-32.132 7.388zM1025.315 590.918c-4.25 15.076 10.842 23.494 10.842 23.494s17.268.707 21.52-14.37c4.25-15.075-8.484-31.86-8.484-31.86s-19.626 7.66-23.878 22.736zM993.758 567.22c-11.563 9.823-3.976 24.744-3.976 24.744s13.5 9.897 25.063.074c11.563-9.824 10.393-30.197 10.393-30.197s-19.917-4.444-31.48 5.38z"/><path d="M1008.293 593.353c-8.308-6.93-17.87.212-17.87.212s-5.315 10.688 2.992 17.62c8.308 6.93 22.48 3.633 22.48 3.633s.705-14.534-7.602-21.465zM855.26 799.598c19.92 3.055 28.293-17.542 28.293-17.542s-1.815-22.16-21.735-25.215-39.347 15.848-39.347 15.848 12.87 23.855 32.79 26.91zM1050.78 670.49c-22.894-4.406-33.478 19.04-33.478 19.04s1.126 25.698 24.02 30.104c22.896 4.406 46.186-16.594 46.186-16.594s-13.832-28.143-36.727-32.55zM1172.922 563.935c-19.483-5.15-29.994 14.442-29.994 14.442s-.546 22.227 18.937 27.38 40.806-11.584 40.806-11.584-10.265-25.087-29.748-30.238zM1074.584 615.303l1.548.343c.97.213 2.363.514 4.06.85 1.69.354 3.673.71 5.8 1.107 2.125.397 4.4.74 6.68 1.125l3.406.475c1.125.148 2.234.325 3.308.44 2.153.22 4.162.422 5.884.596l5.768.3.067 1.01-5.82.69-5.998.416c-1.1.068-2.232.082-3.388.127l-3.506.11c-2.342.005-4.696.052-6.897.02-2.2-.03-4.26-.048-6.022-.114-1.76-.046-3.243-.11-4.284-.157l-1.61-.078 1.004-7.262z"/><path d="M958.353 623.99l1.92-1.628c.61-.518 1.35-1.147 2.202-1.868.837-.725 1.84-1.528 2.827-2.43.99-.904 2.06-1.883 3.195-2.918.568-.52 1.153-1.052 1.75-1.597l1.78-1.742c1.206-1.19 2.45-2.422 3.717-3.672l3.73-3.916c1.258-1.307 2.45-2.684 3.662-4.003 1.21-1.32 2.38-2.646 3.505-3.936l6.167-7.058c3.626-4.13 6.043-6.88 6.043-6.88l.82.652s-2.09 3-5.23 7.5c-1.564 2.258-3.39 4.892-5.348 7.714-.98 1.414-2 2.87-3.067 4.334-1.07 1.463-2.112 2.98-3.235 4.445l-3.335 4.393-3.366 4.165-1.624 1.986c-.555.635-1.1 1.256-1.627 1.86-1.063 1.21-2.066 2.356-2.992 3.413-.928 1.06-1.8 1.932-2.562 2.757l-1.98 2.102-1.727 1.83-5.227-5.502zM887.213 790.723l.155-1.394.18-1.6c.057-.608.17-1.335.206-2.054l.11-2.327.06-1.28c.01-.44-.012-.896-.018-1.357-.023-.924-.025-1.883-.067-2.86l-.235-2.96c-.07-.997-.234-1.992-.344-2.976-.112-.983-.256-1.953-.406-2.893l-.816-5.152-.775-5.05.763-.165 1.512 4.86c.462 1.46 1 3.165 1.58 4.99.29.917.58 1.868.846 2.85.263.984.58 1.968.81 2.984.235 1.018.47 2.035.703 3.036.197 1.01.353 2.017.523 2.99.08.487.172.963.235 1.438l.145 1.41.26 2.596c.077.806.07 1.476.104 2.107l.06 1.608.055 1.4-5.647-.202zM811.526 585.888l-.183-1.58c-.117-.99-.29-2.41-.527-4.132-.218-1.72-.53-3.717-.853-5.863-.322-2.147-.744-4.417-1.126-6.706l-.668-3.386c-.23-1.114-.427-2.225-.67-3.28l-1.367-5.778-1.61-5.57.938-.395 2.566 5.294c.69 1.626 1.5 3.522 2.363 5.554.425 1.02.81 2.09 1.23 3.17l1.255 3.29c.774 2.22 1.592 4.436 2.285 6.534.693 2.097 1.353 4.056 1.87 5.75.535 1.684.96 3.11 1.257 4.115l.456 1.555-7.217 1.43zM986.857 699.346l1.8-.55c1.124-.344 2.736-.846 4.684-1.493 1.954-.62 4.206-1.414 6.63-2.253 2.427-.837 4.97-1.825 7.547-2.766 1.27-.51 2.537-1.02 3.785-1.52 1.245-.512 2.493-.983 3.664-1.5 2.332-1.05 4.528-2.02 6.398-2.88l6.09-3.14.71 1.033-5.536 4.23c-1.712 1.194-3.733 2.555-5.9 4.036-1.088.73-2.243 1.42-3.403 2.16l-3.536 2.21c-2.407 1.4-4.8 2.856-7.084 4.132-2.284 1.277-4.415 2.484-6.27 3.46-1.84 1-3.408 1.813-4.513 2.38l-1.708.875-3.358-8.414zM1015.35 772.19c-15.738-9.678-30.15 4.736-30.15 4.736s-6.364 19.364 9.373 29.043c15.737 9.678 38.882.635 38.882.635s-2.37-24.735-18.106-34.414z"/><path d="M998.874 744.48c-19.468 12.83-10.676 37.005-10.676 37.005s18.748 17.613 38.216 4.782c19.468-12.83 21.48-44.125 21.48-44.125s-29.552-10.492-49.02 2.338z"/><path d="M958.398 804.633l1.44-1.21c.9-.757 2.19-1.85 3.73-3.206 1.553-1.335 3.315-2.946 5.22-4.666 1.904-1.718 3.86-3.622 5.862-5.496l2.89-2.88c.944-.958 1.908-1.88 2.785-2.813 1.735-1.877 3.378-3.63 4.762-5.152l4.377-5.272 1.056.674-3.44 6.06c-1.108 1.767-2.436 3.81-3.85 6.02-.717 1.098-1.51 2.185-2.29 3.318-.787 1.127-1.588 2.272-2.39 3.417-1.665 2.23-3.297 4.506-4.9 6.574-1.604 2.067-3.093 4.012-4.42 5.637-1.3 1.638-2.426 3-3.22 3.955l-1.23 1.472-6.382-6.43zM862.357 680.493l-1.757-.606c-1.12-.396-2.72-.962-4.643-1.64-1.914-.68-4.137-1.5-6.514-2.39-2.38-.867-4.898-1.882-7.42-2.852-1.263-.478-2.51-1.017-3.744-1.518l-3.616-1.49c-2.33-1.015-4.49-1.996-6.34-2.817-.925-.418-1.752-.864-2.493-1.225l-1.91-.957-1.66-.832.42-.932s.637.21 1.752.574l2.006.657c.777.245 1.635.556 2.6.83 1.94.536 4.19 1.18 6.606 1.83 1.218.3 2.477.613 3.756.93 1.28.31 2.568.654 3.88.938 2.615.583 5.21 1.206 7.673 1.707 2.454.523 4.744 1.002 6.713 1.386 1.963.38 3.598.7 4.743.92l1.81.338-1.863 7.15zM925.17 648.487l-.724-1.37c-.468-.885-1.126-2.15-1.88-3.66-.773-1.506-1.62-3.29-2.54-5.19-.918-1.904-1.83-3.97-2.772-6.01l-1.317-3.095c-.425-1.024-.876-2.01-1.252-3-.752-1.98-1.47-3.81-2.048-5.39l-1.735-5.346.925-.356 2.592 4.89c.83 1.44 1.84 3.096 2.896 4.872.528.888 1.138 1.777 1.722 2.693.59.912 1.192 1.838 1.793 2.764 1.263 1.82 2.488 3.653 3.695 5.336 1.21 1.68 2.327 3.254 3.326 4.573.985 1.333 1.815 2.416 2.397 3.167l.93 1.2-6.007 3.92zM718.174 567.254c23.27 3.503 32.98-20.577 32.98-20.577s-2.19-25.87-25.46-29.374c-23.272-3.503-45.896 18.633-45.896 18.633s15.105 27.815 38.376 31.318z"/><path d="M755.96 562.775c3.905-10.88-6.772-17.852-6.772-17.852s-12.674-1.408-16.58 9.47c-3.903 10.88 4.608 23.89 4.608 23.89s14.84-4.63 18.745-15.508z"/><path d="M776.047 569.72l-1.245-.92c-.805-.597-1.945-1.452-3.278-2.488-1.35-1.022-2.886-2.264-4.538-3.58-1.65-1.318-3.366-2.786-5.098-4.217-.847-.744-1.693-1.49-2.526-2.22-.827-.74-1.66-1.436-2.427-2.165-1.534-1.46-2.972-2.798-4.18-3.974l-3.876-4.068.68-.72 4.453 3.288c1.372.937 3 1.994 4.72 3.14.86.57 1.794 1.108 2.717 1.682l2.812 1.716c1.926 1.095 3.823 2.218 5.64 3.213 1.82.99 3.505 1.927 4.977 2.684 1.464.778 2.68 1.395 3.53 1.82l1.358.68-3.72 6.13zM1014.014 638.752l.98-1.545c.634-1 1.545-2.414 2.654-4.072 1.09-1.676 2.425-3.59 3.834-5.647.695-1.033 1.465-2.073 2.226-3.14.764-1.06 1.54-2.14 2.315-3.22l2.405-3.16c.802-1.036 1.55-2.076 2.347-3.04l2.28-2.78c.73-.878 1.397-1.722 2.052-2.473l4.468-4.906.91.743s-1.4 2.21-3.5 5.52c-.506.838-1.012 1.778-1.57 2.752l-1.73 3.07c-.603 1.06-1.156 2.207-1.754 3.342l-1.784 3.456-1.692 3.51c-.554 1.158-1.117 2.283-1.615 3.403-1.014 2.227-1.974 4.29-2.74 6.088-.79 1.79-1.413 3.276-1.842 4.31l-.684 1.658-7.56-3.87zM945.453 546.765l-.212-1.31c-.135-.846-.322-2.052-.52-3.485-.215-1.433-.414-3.114-.64-4.908-.22-1.795-.395-3.72-.6-5.634l-.22-2.872c-.063-.948-.158-1.872-.192-2.778-.067-1.812-.148-3.492-.184-4.935l.058-4.812.85-.034.76 4.68c.28 1.394.646 3.015 1.015 4.745.185.866.436 1.755.658 2.658l.696 2.734c.526 1.823 1.017 3.646 1.535 5.343.52 1.696.995 3.278 1.444 4.622.432 1.352.808 2.458 1.073 3.227l.426 1.23-5.947 1.53zM919.565 580.743c13.028-.396 15.934-14.48 15.934-14.48s-3.758-13.88-16.786-13.484-23.164 14.7-23.164 14.7 10.987 13.66 24.015 13.263zM867.832 761.7c10.17 6.115 19.334-3.234 19.334-3.234s3.964-12.478-6.205-18.594c-10.168-6.116-24.976-.16-24.976-.16s1.68 15.87 11.848 21.987z"/><path d="M945.136 591.538l-.734-1.105c-.474-.716-1.142-1.736-1.913-2.96-.79-1.217-1.664-2.666-2.61-4.206-.942-1.543-1.895-3.226-2.872-4.884l-1.386-2.526c-.45-.837-.917-1.64-1.322-2.45-.81-1.622-1.576-3.12-2.205-4.42l-1.934-4.406.76-.38 2.624 3.946c.83 1.155 1.833 2.48 2.883 3.904.526.712 1.122 1.417 1.697 2.15l1.763 2.202c1.23 1.444 2.43 2.902 3.603 4.233 1.175 1.33 2.26 2.575 3.224 3.613.952 1.053 1.75 1.905 2.31 2.496l.897.943-4.784 3.85zM1064.585 605.172l.685-1.38c.444-.89 1.083-2.156 1.866-3.64.766-1.5 1.715-3.22 2.715-5.066 1.005-1.844 2.144-3.78 3.243-5.725.582-.957 1.163-1.915 1.735-2.86.58-.937 1.116-1.874 1.696-2.752 1.16-1.756 2.222-3.397 3.164-4.782l3.308-4.503.824.54-2.445 4.933c-.68 1.506-1.43 3.283-2.252 5.166-.41.942-.774 1.95-1.175 2.954l-1.19 3.052c-.738 2.076-1.508 4.13-2.166 6.08-.654 1.955-1.277 3.768-1.762 5.34-.505 1.57-.898 2.868-1.167 3.774l-.43 1.448-6.648-2.578zM909.505 828.274l-1.295-2.557c-.834-1.634-2.062-3.964-3.557-6.752-1.51-2.78-3.286-6.02-5.262-9.45-1.958-3.442-4.126-7.066-6.348-10.66-1.095-1.81-2.262-3.562-3.375-5.322-1.13-1.744-2.287-3.427-3.386-5.08-1.14-1.615-2.245-3.178-3.29-4.66-1.094-1.446-2.127-2.815-3.08-4.078-.977-1.245-1.913-2.35-2.724-3.35-.8-1.015-1.567-1.825-2.185-2.512l-1.95-2.155.98-1.078 2.26 1.908c.716.61 1.61 1.335 2.55 2.245.953.9 2.055 1.894 3.21 3.022l3.668 3.708 3.96 4.264c1.328 1.513 2.728 3.063 4.106 4.67 1.357 1.622 2.78 3.245 4.128 4.92 2.73 3.325 5.41 6.694 7.855 9.904 2.462 3.2 4.694 6.233 6.6 8.843 1.894 2.62 3.456 4.818 4.535 6.377 1.08 1.57 1.697 2.47 1.697 2.47l-9.095 5.324zM806.49 609.758l-1.196-.657c-.774-.425-1.87-1.04-3.155-1.788-1.3-.734-2.784-1.642-4.38-2.597-.8-.47-1.606-1-2.435-1.516l-2.5-1.58-2.46-1.65c-.806-.55-1.616-1.055-2.366-1.612l-2.17-1.573c-.687-.505-1.347-.958-1.93-1.42-2.31-1.86-3.85-3.103-3.85-3.103l.515-.716 4.27 2.35c.64.345 1.366.675 2.115 1.046l2.364 1.148c.812.407 1.694.76 2.564 1.155.875.386 1.764.777 2.652 1.17l2.687 1.098c.888.356 1.75.728 2.605 1.045 1.704.648 3.283 1.27 4.655 1.752 1.37.503 2.5.898 3.29 1.166l1.266.43-2.543 5.852zM991.414 1024.953c7.927 15.112 40.713 34.214 73.13 38.266 32.417 4.05 62.402 17.747 62.402 17.747h-407.64s51.866-26.11 74.558-28.007c22.692-1.898 76.506-8.245 83.042-41.1M1190.16 1080.967s18.64-35.15 62.402-34.554 82.663 34.554 82.663 34.554h-40.52s-27.555-12.25-41.333-12.25c-13.777 0-29.175 12.583-29.175 12.583l-34.037-.333zM1410.595 1081.3s45.384-25.728 81.853-17.447 53.488 17.78 75.37 17.447h-157.223zM472.936 1081.302s-34.857-21.6-62.866-14.647-41.08 14.927-57.887 14.647h120.753zM702.286 1081.31s-5.174-14.572-22.916-24.363c-12.182-6.723-31.682.02-42.707 4.906-8.847-4.933-20.623-8.833-35.65-8.65-39.917.48-75.4 27.83-75.4 27.83h102.752v.276h73.92zM967.294 758.667c4.66 26.485 17.348 54.274 15.563 87.91-1.786 33.636-12.32 64.952-15.563 85.83s0-173.74 0-173.74zM886.57 984.237c-2.053-11.247-9.292-23.504-6.877-37.337 2.415-13.833 10.45-26.192 13.34-34.653 2.89-8.46-6.462 71.99-6.462 71.99z"/></g><head><style>.pkt_added {text-decoration:none !important;}</style></head></svg>