<svg xmlns="http://www.w3.org/2000/svg" width="1920" height="1080" viewBox="0 0 1920 1080"><path fill="none" d="M1744.982 621.203l-.8.056c.173.134.353.28.538.435.087-.166.175-.334.262-.492zM1679.783 613.103s-.307-.173-.81-.503c-.532.94-1.087 1.926-1.662 2.946-.602 1.06-1.155 2.207-1.753 3.342l-1.713 3.316c3.73-3.108 8.88-6.726 14.83-10.54-4.736 1.604-8.89 1.44-8.89 1.44zM1661.19 690.664l-.836.57c-.195.13-.4.256-.6.385.475-.104.99-.203 1.538-.292-.038-.23-.072-.454-.103-.664zM1531.465 776.545l-.234-2.962c-.068-.996-.233-1.99-.343-2.975-.113-.983-.257-1.953-.407-2.893l-.816-5.152-.604-3.935c-2.026 1.528-5.665 3.71-10.023 3.827 4.74 4.938 6.763 11.223 7.593 14.995l2.714 2.745 2.124 2.288.02-.442.063-1.278c.01-.44-.012-.896-.018-1.357-.023-.925-.025-1.884-.067-2.86z"/><path fill="#FFF" d="M1816.548 562.626c-12.297-3.25-21.016 3.354-25.777 8.67-7.36 2.138-22.545 6.064-32.355 5.224-5.238.582-21.922 8.207-39.592 17.64.506-1.43 1.035-2.882 1.56-4.36l1.19-3.053c.402-1.004.765-2.012 1.176-2.954.82-1.883 1.572-3.66 2.25-5.166l.113-.226c4.96 2.093 14.482 4.485 22.455-3.108 11.342-10.804 8.942-31.735 8.942-31.735s-20.79-3.416-32.132 7.388-2.648 25.74-2.648 25.74.597.385 1.63.907l-.046.065c-.942 1.385-2.003 3.026-3.164 4.782-.58.877-1.116 1.814-1.696 2.752l-1.735 2.86c-1.1 1.945-2.24 3.88-3.243 5.725-.912 1.684-1.775 3.254-2.502 4.656-4.774 2.652-9.505 5.378-13.994 8.08 1.85-1.958 3.395-4.493 4.322-7.778 4.25-15.076-8.483-31.86-8.483-31.86s-19.627 7.658-23.88 22.735c-2.978 10.564 3.538 17.853 7.707 21.273l-2.246 2.737c-.796.964-1.544 2.004-2.346 3.04l-2.405 3.16c-.776 1.08-1.552 2.16-2.316 3.22-.76 1.067-1.53 2.107-2.226 3.14-1.41 2.057-2.744 3.97-3.834 5.647-.68 1.016-1.274 1.925-1.787 2.72-19.884 15.27-45.22 27.947-49.235 25.94-1.435-.717-.68-15.798 1.097-36.7.652-.692 1.367-1.428 2.124-2.292l2.99-3.413c.53-.604 1.073-1.225 1.628-1.86l1.623-1.985 3.366-4.165 3.336-4.393c1.123-1.467 2.166-2.983 3.235-4.446 1.027-1.41 2.008-2.806 2.953-4.17-.604 3.716-.286 8.87 4.438 12.812 8.31 6.93 22.482 3.634 22.482 3.634s.597-12.43-5.887-19.782c1.622-.682 3.247-1.648 4.836-2.998 11.564-9.824 10.394-30.197 10.394-30.197s-19.917-4.445-31.48 5.378c-11.563 9.825-3.976 24.746-3.976 24.746s.14.102.394.27c-1.12 1.28-2.3 2.634-3.535 4.047-1.126 1.29-2.296 2.615-3.505 3.936-1.21 1.318-2.404 2.695-3.662 4.002l-3.73 3.916-3.717 3.672-1.78 1.74c-.557.51-1.1 1.005-1.633 1.49 3.155-34.383 8.277-79.29 11.2-104.252 5.576 3.244 18.528 8.788 30.457-.75 15.74-12.585 14.993-39.68 14.993-39.68s-26.266-6.69-42.006 5.894c-10.794 8.63-9.727 20.798-7.99 27.594-6.662 10.718-17.306 25.372-27.696 29.267-.215-.76-.43-1.528-.65-2.3-.234-.915-.468-1.83-.697-2.733-.22-.903-.472-1.792-.657-2.657-.37-1.73-.734-3.35-1.015-4.746l-.47-2.893c3.9-.948 11.028-3.82 12.383-12.24 1.886-11.717-9.16-23.238-9.16-23.238s-14.102 7.475-15.987 19.19c-.084.524-.13 1.03-.162 1.525-8.415-.938-17.057 4.106-17.057 4.106s3.44 13.37 12.913 17.322c8.418 3.51 14.612-3.323 15.89-4.89l-.016 1.287c.036 1.443.117 3.123.184 4.935.034.906.13 1.83.193 2.778l.22 2.872c.204 1.913.378 3.84.6 5.634.225 1.794.424 3.475.64 4.908.043.316.085.616.128.908-2.08 8.487-4.524 19.182-7.102 30.85-.454-.565-.908-1.12-1.32-1.678-.684-.927-1.342-1.806-1.95-2.63.748-1.838 1.022-3.157 1.022-3.157s-3.757-13.88-16.785-13.484c-13.028.398-23.164 14.7-23.164 14.7s10.987 13.662 24.015 13.265c7.558-.23 11.705-5.063 13.86-9.084.283.566.575 1.145.876 1.75.405.81.872 1.612 1.322 2.45l1.182 2.153c-4.128 18.826-8.515 39.697-12.23 57.684l-.05-.07c-1.206-1.682-2.43-3.516-3.693-5.336-.6-.925-1.202-1.85-1.793-2.763-.584-.916-1.194-1.805-1.722-2.693-1.056-1.776-2.065-3.433-2.897-4.87l-1.553-2.93-.104-.268c.755-2.128 8.225-24.725-10.312-37.32-19.465-13.225-49.44-3.057-49.44-3.057s1.586 31.612 21.05 44.837c4.496 3.054 8.972 4.456 13.203 4.826-1.674 6.808-.807 13.356-.807 13.356s15.382 2.246 23.61-5.873c2.81-2.775 3.89-5.876 4.09-8.756.173.453.35.913.528 1.383.377.99.828 1.977 1.253 3l1.317 3.097c.942 2.04 1.854 4.105 2.77 6.008.92 1.9 1.77 3.685 2.543 5.19l.29.578c-1.812 8.836-3.403 16.676-4.637 22.81-6.295 31.3-46.557-39.048-61.144-52.42-5.16-4.728-21.524-19.65-40.357-36.627-.46-1.454-.996-3.057-1.56-4.76-.692-2.097-1.51-4.314-2.284-6.534l-1.253-3.288c-.42-1.08-.806-2.15-1.232-3.17l-.65-1.53c2.754 3.09 8.31 7.567 16.04 5.174 11.336-3.51 16.758-18.52 16.758-18.52s-8.385-6.028-17.566-6.56c1.446-3.684 2.068-8.04 1.116-13.1-3.725-19.805-28-31.863-28-31.863s-18.236 20.052-14.512 39.858c2.764 14.69 15.687 19.068 22.183 20.35l.377 1.307 1.368 5.777c.242 1.056.44 2.167.668 3.282l.668 3.386c.206 1.232.42 2.454.627 3.658-32.856-29.538-69.66-62.045-67.467-57.513 1.64 3.388 14.462 23.16 29.734 45.653l-1.828-.998c-1.818-.995-3.715-2.118-5.64-3.213l-2.813-1.716c-.923-.573-1.858-1.11-2.718-1.682-1.72-1.145-3.348-2.202-4.72-3.14-1.042-.77-1.943-1.434-2.66-1.965l-.217-.203c-.24-2.25-3.284-25.85-25.443-29.185-23.27-3.503-45.895 18.633-45.895 18.633s15.105 27.815 38.376 31.318c5.375.81 10.017.136 13.992-1.36 1.437 6.86 5.05 12.39 5.05 12.39s14.84-4.63 18.746-15.51c1.334-3.717.964-6.978-.1-9.66.352.33.71.67 1.074 1.016.767.73 1.6 1.424 2.427 2.164.832.732 1.678 1.477 2.525 2.22 1.732 1.432 3.45 2.9 5.098 4.22 1.652 1.314 3.19 2.556 4.538 3.578 1.334 1.036 2.474 1.89 3.28 2.488.79.586 1.244.92 1.244.92l1.28-2.11c7.808 11.39 15.956 23.037 23.387 33.29-.294-.113-.588-.226-.89-.34-.857-.318-1.718-.69-2.606-1.046-.886-.362-1.787-.73-2.687-1.1-.888-.39-1.777-.782-2.652-1.168-.406-.184-.814-.36-1.217-.535-.69-.387-1.677-.886-2.877-1.363-.02-.01-.043-.02-.065-.032.093-3.263-.573-10.458-7.788-13.467-9.474-3.95-21.394 3.014-21.394 3.014s2.526 9.802 9.2 15.1c-7.788 9.358-6.492 24.815-6.492 24.815s17.66 3.448 27.62-5.482c6.187-5.55 5.812-12.658 4.642-17.246l1.82 1.15c.83.516 1.635 1.046 2.436 1.516 1.595.955 3.08 1.863 4.378 2.597 1.285.75 2.38 1.363 3.155 1.79l1.197.656.27-.618c6.555 8.816 12.205 15.973 16.046 20.055 15.276 16.233 20.097 20.167 32.695 42.458-1.42-.29-2.943-.61-4.548-.952-2.462-.5-5.058-1.124-7.674-1.707-1.31-.284-2.598-.628-3.88-.938-1.278-.317-2.537-.63-3.755-.93-1.282-.346-2.513-.688-3.68-1.014.324-.637.484-1.025.484-1.025s-1.356-16.073-15.954-18.312c-14.598-2.24-28.81 11.445-28.81 11.445s9.458 17.315 24.056 19.554c1.315.202 2.56.26 3.738.206-1.502 5.727-.904 11.226-.904 11.226s13.125 2.226 20.328-4.563c4.695-4.425 4.016-9.986 2.975-13.323l.403.166c1.233.5 2.48 1.04 3.744 1.518 2.522.97 5.04 1.985 7.42 2.852 2.377.89 4.6 1.71 6.514 2.39l3.972 1.403c1.226 2.253 2.514 4.642 3.89 7.223 9.77 18.32 26.728 34.19 35.4 63.57 3.797 12.866 3.842 30.414 2.452 49.564-1.23-1.546-2.488-3.103-3.76-4.65-1.346-1.675-2.77-3.298-4.127-4.92-.327-.382-.657-.752-.986-1.13l-.053-1.39c-.034-.63-.026-1.3-.103-2.107l-.26-2.597-.145-1.41c-.063-.474-.156-.95-.235-1.438-.17-.972-.326-1.978-.523-2.99l-.704-3.034c-.228-1.016-.546-2-.81-2.983-.265-.982-.555-1.933-.846-2.85l-1.58-4.99c-.598-1.925-1.06-3.41-1.31-4.21.606-.503.94-.842.94-.842s3.963-12.478-6.206-18.594c-10.17-6.116-24.977-.16-24.977-.16s1.075 10.095 6.668 17.286c-.278-.052-.547-.113-.833-.157-19.92-3.055-39.347 15.847-39.347 15.847s12.87 23.855 32.79 26.91c16.59 2.544 25.165-11.31 27.57-16.014l.158.21 3.292 4.66c.332.5.676 1.008 1.016 1.514l-.084.755.605.022c.477.71.954 1.43 1.432 2.16-1.773-.43-3.79-.466-6.04.19-9.502 2.77-14.23 15.216-14.23 15.216s10.678 7.953 20.18 5.18c4.71-1.372 6.95-4.743 8.012-7.795.76 1.29 1.506 2.57 2.218 3.82.44.763.865 1.512 1.284 2.253-1.99 20.86-5.072 42.826-6.49 62.236-1.03 14.117-2.13 28.92-3.458 43.853-3.615 7.926-9.108 18.013-11.034 29.044-1.767 10.12 1.63 19.393 4.387 28.047-2.164 14.07-4.762 27.57-7.947 39.988-9.18 30.182-60.304 36.19-82.27 38.026-22.692 1.898-74.56 28.007-74.56 28.007h116.283c-.268.11-.53.23-.802.334l195.346-.16-.174-.173h96.99s-29.985-13.695-62.402-17.747-65.203-23.154-73.13-38.266h-.002c-6.954-14.74-12.743-31.772-15.078-50.363-1.21-9.63-2.39-36.587-3.25-69.267 4.056-17.312 8.648-37.568 9.773-58.746.97-18.298-2.343-34.864-6.316-50.433.665-.903 1.334-1.813 2.01-2.718.8-1.146 1.602-2.29 2.39-3.418.78-1.133 1.572-2.22 2.288-3.318.238-.37.47-.73.7-1.092-.07 6.405 1.786 14.922 10.644 20.37 15.736 9.68 38.88.637 38.88.637s-1.034-10.778-6.263-20.89c18.733-13.143 20.703-43.574 20.703-43.574s-29.552-10.492-49.02 2.338c-13.424 8.847-13.41 23.085-12.11 31.074-1.005.816-1.564 1.372-1.564 1.372s-.362 1.112-.7 2.923c-1.254 1.37-2.675 2.888-4.175 4.512-.876.933-1.84 1.855-2.785 2.813l-2.652 2.644c-.994-3.723-1.996-7.394-2.957-11.02.302-22.063 1.005-39.025 2.237-45.72 1.064-5.78 6.986-14.914 15.89-25.717l.158.4s.622-.32 1.71-.875c1.104-.568 2.672-1.38 4.51-2.38 1.857-.977 3.988-2.184 6.272-3.46 2.285-1.277 4.677-2.733 7.083-4.134l1.334-.834c-2.763 4.206-7.53 13.924-.72 23.515 9.038 12.725 30.02 13.342 30.02 13.342s1.827-5.785 2.115-13.11c22.496 3.46 44.97-16.786 44.97-16.786s-13.833-28.143-36.728-32.55c-19.098-3.675-29.623 12.02-32.59 17.33-1.032.462-2.11.943-3.225 1.444-1.17.517-2.42.988-3.664 1.5-1.248.5-2.516 1.01-3.785 1.52-2.14.78-4.24 1.577-6.284 2.31 22.532-24.485 54.832-53.402 80.224-71.742 1.263.025 2.616.04 4.04.06 1.34.02 2.74.01 4.156-.002-3.582 1.543-7.236 4.445-8.823 9.9-3.584 12.325 6.737 26.164 6.737 26.164s9.764-3.72 15.788-11.176c10.413 11.884 30.91 12.496 30.91 12.496s6.844-21.633-2.924-35.387-27.027-6.787-27.027-6.787-.592.678-1.414 1.88c-1.11-.112-2.284-.23-3.514-.356-1.074-.116-2.183-.293-3.308-.44-1.123-.158-2.264-.317-3.406-.476-1.457-.246-2.897-.48-4.313-.715 10.748-7.284 19.79-12.158 25.62-13.262 8.98-1.7 21.128-14.028 29.125-23.23.664 6.314 3.827 20.287 18.76 24.236 19.484 5.15 40.807-11.584 40.807-11.584s-10.266-25.09-29.75-30.24zm-285.06 219.414l-.02.442-2.124-2.288-2.714-2.745c-.83-3.772-2.853-10.058-7.593-14.996 4.36-.118 7.998-2.3 10.023-3.827l.604 3.935c.24 1.508.518 3.267.816 5.152.15.94.294 1.91.407 2.893.11.984.275 1.98.344 2.975.08.993.158 1.985.235 2.962.042.976.044 1.935.067 2.86.006.46.028.916.02 1.356l-.063 1.28zm128.866-90.806l.835-.57c.03.21.064.432.102.664-.548.09-1.062.187-1.537.29.2-.128.404-.253.6-.384zm13.49-69.03l1.713-3.316c.598-1.135 1.15-2.282 1.754-3.342.576-1.02 1.13-2.006 1.662-2.946.503.33.81.503.81.503s4.156.166 8.89-1.44c-5.948 3.815-11.098 7.433-14.828 10.54zm71.138-1c-.087.157-.175.325-.262.49-.186-.155-.366-.3-.538-.436l.8-.055zM1896.188 1045.104c-43.762-.597-62.402 34.554-62.402 34.554l34.037.333s15.398-12.583 29.175-12.583c6.15 0 15.04 2.44 23.002 5.143v-24.052c-7.62-2.004-15.63-3.282-23.812-3.394zM1053.696 1065.346c-27.087 6.723-40.205 14.402-56.24 14.647h119.106s-34.857-21.6-62.866-14.647zM1322.996 1055.638c-12.182-6.723-31.682.02-42.707 4.906-8.848-4.933-20.624-8.833-35.65-8.65-39.918.48-75.4 27.83-75.4 27.83h102.75v.276h73.922s-5.174-14.57-22.916-24.362z"/><head/></svg>