<svg xmlns="http://www.w3.org/2000/svg" width="1920" height="1080" viewBox="0 0 1920 1080"><path fill="#A9CBCB" d="M254.29-1.8c20.428 15.744 42.99 32.637 67.525 50.48 24.564 17.82 51.072 36.64 79.496 56.036 14.19 9.73 28.87 19.602 43.945 29.675 15.096 10.046 30.646 20.208 46.584 30.537 15.95 10.31 32.31 20.75 49.058 31.292 16.757 10.525 33.917 21.114 51.43 31.8 17.518 10.667 35.383 21.45 53.62 32.18 18.234 10.733 36.807 21.495 55.688 32.23 37.74 21.483 76.81 42.804 116.667 63.27 19.913 10.184 40.014 20.202 60.083 29.603 10.02 4.69 20.004 9.222 29.89 13.573 9.842 4.302 19.565 8.377 28.797 12.03l3.455 1.367c.11.062.977.345.463.226l1.103.324 2.204.65 3.38 1.018.78.24.888.255 1.777.513c4.745 1.36 9.53 2.65 14.354 3.867 9.647 2.436 19.447 4.586 29.374 6.44 19.854 3.702 40.223 6.23 60.864 7.444 20.638 1.227 41.548 1.17 62.404-.227 20.85-1.395 41.655-4.147 61.912-8.304 20.234-4.158 39.966-9.742 58.162-16.71 9.09-3.476 17.787-7.293 25.834-11.37 8.043-4.07 15.436-8.416 21.793-12.757 6.335-4.323 11.616-8.682 15.27-12.237 1.832-1.77 3.257-3.32 4.273-4.456 1.02-1.137 1.63-1.847 1.972-1.97.33-.128.425.352.567 1.286.118.924.368 2.272.76 3.44.393 1.172.958 2.1 1.333 2.34.385.26.57-.15.26-1.162-.302-1.005-1.096-2.586-2.415-4.504-1.298-1.92-3.185-4.175-5.456-6.573-4.612-4.817-10.965-10.165-18.432-15.375-7.46-5.232-15.984-10.38-25.15-15.27-9.164-4.903-18.97-9.57-29.177-13.974-20.432-8.818-42.396-16.608-64.994-23.552-22.612-6.96-45.916-13.033-69.517-18.458-5.898-1.363-11.824-2.67-17.76-3.952l-8.918-1.886-2.232-.465-1.116-.232c.35.03-.575-.15-.8-.215l-4.495-1.067-3.65-.897-3.924-.897c-2.602-.57-5.183-1.106-7.732-1.61-5.095-1.002-10.065-1.87-14.83-2.553-4.768-.68-9.325-1.183-13.49-1.493-4.18-.338-7.958-.4-11.006-.384-1.542.004-2.84.054-3.886.083-1.04.04-1.808.072-2.183-.002-.375-.077-.348-.257.173-.74.51-.49 1.537-1.288 2.946-2.656 1.385-1.358 3.248-3.37 4.875-5.933 1.673-2.545 3.117-5.633 3.96-8.517.9-2.853 1.182-5.525 1.208-7.36.02-1.875-.247-3.092-.462-3.65-.466-1.096-.62.1-.09 2.2.26 1.054.656 2.354 1.21 3.783.568 1.44 1.27 3.02 2.076 4.68 3.23 6.72 8.312 14.505 14.17 22.25 5.946 7.746 12.706 15.58 20.02 23.178 14.598 15.274 31.132 29.78 48.386 43.38 17.287 13.608 35.39 26.324 53.83 38.288 18.454 11.952 37.293 23.103 56.3 33.5 19.027 10.364 38.22 19.98 57.44 28.89 9.614 4.448 19.23 8.73 28.848 12.82 9.625 4.077 19.25 7.96 28.855 11.678 19.21 7.433 38.348 14.177 57.333 20.237 18.995 6.033 37.846 11.344 56.453 16.036 18.607 4.702 36.988 8.723 55.075 12.065 18.083 3.362 35.86 6.107 53.265 8.272 17.412 2.13 34.454 3.65 51.063 4.656 33.223 2.06 64.718 1.743 94.085-.078 29.37-1.922 56.616-5.43 81.474-10.05 24.867-4.583 47.347-10.22 67.344-16.153 39.995-11.956 70-25.06 90.057-34.617 10.02-4.82 17.59-8.726 22.648-11.444l7.653-4.143 59.428 117.43s-3.23 1.49-9.495 4.376c-6.28 2.844-15.622 7.022-27.95 12.107-24.643 10.115-61.308 24.054-109.34 36.35-23.99 6.177-50.82 11.816-80.194 16.355-29.382 4.447-61.313 7.828-95.42 9.17-17.047.73-34.634.964-52.7.672-9.032-.144-18.183-.444-27.445-.874-9.263-.41-18.637-.966-28.115-1.67-18.955-1.408-38.32-3.438-58.03-6.09-19.717-2.618-39.778-5.887-60.115-9.84-20.332-3.978-40.958-8.555-61.792-13.854-20.835-5.297-41.878-11.316-63.067-18.056-21.206-6.69-42.553-14.13-63.978-22.336-10.712-4.102-21.444-8.396-32.185-12.89-10.756-4.46-21.517-9.13-32.284-13.99-21.53-9.736-43.07-20.277-64.535-31.71-21.48-11.403-42.892-23.687-64.147-36.98-21.267-13.282-42.336-27.623-63.158-43.238-10.404-7.82-20.766-15.944-31.01-24.524-10.28-8.543-20.425-17.56-30.5-27.135-10.042-9.612-20.015-19.78-29.747-31.048-9.765-11.293-19.328-23.558-28.418-38.405-4.513-7.464-8.892-15.61-12.867-25.12-3.928-9.52-7.5-20.432-9.366-33.962-.9-6.768-1.287-14.268-.716-22.38.546-8.073 2.206-16.91 5.204-25.67 2.988-8.772 7.417-17.452 12.8-25.06 5.374-7.6 11.617-14.19 17.91-19.482 6.308-5.314 12.667-9.51 18.755-12.918 6.102-3.405 11.958-6.03 17.538-8.18 5.583-2.145 10.903-3.814 16.016-5.2 5.108-1.393 10.028-2.507 14.75-3.396 9.472-1.804 18.348-2.84 26.846-3.542 8.516-.7 16.67-.998 24.604-1.055 7.94-.067 15.667.084 23.25.417 3.79.167 7.544.378 11.273.617l5.568.376 5.832.475 4.98.4c.564.06.43.002 1.568.156l1.25.156 2.5.312 10.02 1.28c6.686.884 13.386 1.8 20.105 2.784 26.87 3.92 53.99 8.653 81.432 14.587 27.443 5.97 55.192 13.138 83.414 22.535 14.113 4.71 28.347 9.993 42.738 16.137 14.39 6.146 28.94 13.143 43.673 21.555 14.72 8.423 29.666 18.265 44.588 30.72 7.456 6.27 14.896 13.16 22.178 21.057 7.272 7.88 14.393 16.713 20.99 26.773 6.585 10.047 12.64 21.357 17.496 33.864 4.866 12.477 8.46 26.184 10.22 40.32 1.798 14.128 1.692 28.606-.063 42.42-1.756 13.83-5.14 26.947-9.5 38.965-4.375 12.02-9.705 22.956-15.5 32.906-5.803 9.953-12.077 18.935-18.565 27.16-13 16.45-26.798 29.952-40.767 41.803-13.987 11.81-28.202 21.943-42.51 30.98-14.31 9.027-28.726 16.944-43.21 24.056-28.968 14.202-58.212 25.226-87.625 34.068-29.413 8.81-59 15.38-88.66 20.022-29.66 4.633-59.394 7.34-89.067 8.2-29.67.86-59.285-.078-88.656-2.868-14.686-1.39-29.31-3.238-43.843-5.54-7.267-1.15-14.51-2.416-21.73-3.794l-2.705-.522-2.808-.557-5.553-1.136-5.134-1.033-5.418-.954c-28.768-5.13-54.74-11.114-80.166-17.38-25.31-6.31-49.796-12.877-73.767-19.67-47.865-13.615-93.7-27.964-138.053-42.442-44.32-14.522-87.054-29.294-128.247-44.017-20.59-7.377-40.796-14.734-60.576-22.113-19.794-7.355-39.198-14.662-58.17-21.957-37.935-14.617-74.227-29.027-108.713-43.18-34.467-14.183-67.188-28.014-97.945-41.48-30.754-13.492-59.56-26.6-86.26-39.2C19.7 330.94-4.97 318.914-27.35 307.52c-22.392-11.367-4.43-337.332-4.43-337.332S233.894-17.582 254.29-1.8z"/><path fill="#A9CBCB" d="M3.303 481.124l6.112 3.598c2 1.174 4.593 2.72 7.305 4.258l4.503 2.584 5.228 2.975c15.04 8.513 37.31 20.767 66.358 35.395 29.04 14.63 64.867 31.617 106.79 49.682 41.912 18.074 89.915 37.22 143.03 56.448 53.11 19.232 111.337 38.53 173.534 57.118 62.19 18.604 128.358 36.474 197.247 52.983 68.89 16.478 140.506 31.62 213.51 44.62 72.99 13 147.384 23.928 221.544 31.758 37.073 3.916 74.08 7.025 110.724 9.153 36.64 2.14 72.923 3.245 108.375 3.08 35.406-.22 70.064-1.698 102.714-5.1 8.156-.85 16.196-1.798 24.034-2.91 7.853-1.09 15.548-2.3 22.978-3.677 14.898-2.702 28.89-6.01 41.155-9.802 1.498-.49 3.082-.93 4.506-1.44l2.173-.737 1.087-.364c.013-.01.737-.235.167-.067l.798-.28c4.258-1.48 8.507-2.96 12.747-4.434l12.69-4.415c4.064-1.448 8.12-2.894 12.164-4.337 15.978-5.677 32.272-11.635 48.265-17.495 32.026-11.792 63.366-23.723 93.855-35.492 60.983-23.575 118.56-46.74 171.623-68.45 106.123-43.505 194.194-81.273 255.634-107.926 30.72-13.333 54.792-23.907 71.128-31.126l24.777-11.005 101.885 249.052-26.67 9.848c-17.236 6.327-42.448 15.52-74.56 27.066-64.233 23.084-156 55.635-267.005 93.012-55.53 18.653-115.853 38.527-180.182 58.752-32.178 10.098-65.32 20.33-99.45 30.46-17.1 5.047-34.264 10.102-52.18 15.196l-13.302 3.795-12.948 3.592-13.005 3.607-4.424 1.236-4.317 1.183c-2.897.808-5.7 1.465-8.56 2.197-22.707 5.59-44.595 9.325-66.06 12.042-10.746 1.38-21.364 2.46-31.916 3.35-10.563.913-21.03 1.58-31.452 2.1-41.678 2.07-82.527 1.534-123.12-.365-40.556-1.97-80.808-5.373-120.812-9.843-40.006-4.463-79.774-9.95-119.255-16.25-78.957-12.603-156.812-28.32-232.736-46.034-75.92-17.718-149.876-37.506-220.86-58.515-70.972-21.04-138.96-43.328-202.87-66.198-63.916-22.855-123.756-46.268-178.462-69.423-54.708-23.15-104.284-46.03-147.754-67.575-43.476-21.533-80.844-41.73-111.294-59.155-30.455-17.418-53.998-32.045-69.954-42.232l-5.697-3.656c-1.796-1.162-3.47-2.245-5.02-3.25-3.187-2.046-5.503-3.602-7.47-4.902l-5.914-3.917 68.607-109.77z"/><g fill="#FFF"><path d="M1233.02 665.992c-13.426 19.328 3.885 38.68 3.885 38.68s24.177 9.464 37.6-9.864c13.426-19.328 3.565-49.405 3.565-49.405s-31.626 1.26-45.05 20.59zM1396.4 600.735c-19.704-4.227-29.28 15.84-29.28 15.84s.502 22.227 20.207 26.455 40.215-13.494 40.215-13.494-11.438-24.574-31.142-28.8zM1430.13 716.942c-20.047-2.05-27.374 18.942-27.374 18.942s2.927 22.04 22.975 24.09 38.502-17.803 38.502-17.803-14.053-23.178-34.1-25.228zM1161.422 641.114c-6.898 13.06 5.203 23.722 5.203 23.722s15.63 3.984 22.527-9.075-1.375-30.968-1.375-30.968-19.456 3.263-26.355 16.322zM1202.036 847.497c-1.813-15.502-18.913-17.52-18.913-17.52s-16.173 5.91-14.36 21.41c1.812 15.503 19.918 26.124 19.918 26.124s15.168-14.512 13.356-30.013zM1316.546 832.253c-6.006-15.764-24.46-13.35-24.46-13.35s-15.384 10.478-9.377 26.242c6.005 15.764 27.793 22.097 27.793 22.097s12.05-19.225 6.043-34.99z"/><path d="M1289.348 841.32c6.56-11.033-3.602-20.895-3.602-20.895s-13.518-4.22-20.08 6.812c-6.56 11.033-.04 27.018-.04 27.018s17.16-1.902 23.722-12.935zM1220.34 701.87c8.035 8.31 19.008 1.81 19.008 1.81s6.864-10.747-1.17-19.056-23.467-6.423-23.467-6.423-2.404 15.36 5.63 23.67zM1263.796 600.505c-6.906 7.594-.522 16.948-.522 16.948s9.916 5.47 16.822-2.124c6.906-7.595 4.355-21.163 4.355-21.163s-13.747-1.256-20.654 6.338z"/><path d="M1241.826 611.152c5.062 12.382 19.646 10.115 19.646 10.115s11.994-8.6 6.932-20.98c-5.062-12.383-22.455-16.988-22.455-16.988s-9.186 15.47-4.124 27.852zM1340.714 676.627c.582 10.248 11.73 12.244 11.73 12.244s10.85-3.244 10.268-13.493c-.582-10.248-12.053-17.93-12.053-17.93s-10.528 8.932-9.946 19.18z"/><path d="M1363.242 670.48c-11.363 3.42-10.6 16.49-10.6 16.49s6.577 11.32 17.94 7.9c11.363-3.42 16.905-18.387 16.905-18.387s-12.88-9.423-24.245-6.003zM1377.59 630.44c1.15-11.81-11.233-16.063-11.233-16.063s-12.97 1.788-14.118 13.6c-1.15 11.81 10.595 22.617 10.595 22.617s13.607-8.342 14.756-20.153zM1147.344 660.747c4.054 9.03 14.782 6.988 14.782 6.988s8.654-6.66 4.6-15.69-17.032-12-17.032-12-6.405 11.672-2.35 20.702zM1034.295 775.39c7.114 6.88 16.32 1.006 16.32 1.006s5.567-9.395-1.547-16.277c-7.114-6.883-20.268-4.827-20.268-4.827s-1.62 13.214 5.495 20.096zM1456.443 795.4c-15.568-1.73-21.407 14.535-21.407 14.535s2.124 17.15 17.693 18.882c15.567 1.73 30.045-13.575 30.045-13.575s-10.763-18.113-26.332-19.843zM1401.92 768.183c-15.662-.346-20.038 16.373-20.038 16.373s3.633 16.896 19.294 17.242c15.66.346 28.727-16.18 28.727-16.18s-12.323-17.09-27.984-17.435zM1336.183 742.85c-15.172.052-18.996 16.35-18.996 16.35s3.936 16.27 19.108 16.217 27.416-16.377 27.416-16.377-12.355-16.242-27.527-16.19z"/><path d="M1330.44 772.196c-1.88-10.655-13.797-11.362-13.797-11.362s-10.954 4.742-9.074 15.397c1.88 10.656 14.838 17.276 14.838 17.276s9.91-10.655 8.03-21.31zM1034.525 728.075c.56 20.145 22.323 24.696 22.323 24.696s21.477-5.75 20.918-25.896S1055.133 691 1055.133 691s-21.168 16.93-20.608 37.075zM1227.763 827.718c-17.964-14.864-38.51.615-38.51.615s-11.358 23.08 6.606 37.943c17.963 14.864 48.477 7.634 48.477 7.634s1.39-31.328-16.574-46.192zM1463.866 866.103c-15.547-12.823-33.285.584-33.285.584s-9.785 19.965 5.762 32.787c15.547 12.823 41.912 6.532 41.912 6.532s1.16-27.08-14.388-39.903zM1053.11 762.42l1.287-.555 1.478-.637c.557-.25 1.245-.512 1.886-.838l2.076-1.058 1.142-.58c.387-.21.772-.454 1.17-.687.79-.478 1.624-.955 2.45-1.475.812-.55 1.635-1.11 2.458-1.67.83-.554 1.614-1.19 2.414-1.773.798-.585 1.57-1.19 2.312-1.786 1.49-1.192 2.88-2.305 4.07-3.26l4.003-3.174.522.58-3.473 3.72-3.554 3.845c-.65.707-1.334 1.43-2.056 2.15-.724.715-1.42 1.478-2.19 2.18-.768.708-1.534 1.416-2.288 2.114-.78.672-1.578 1.305-2.338 1.935-.385.31-.75.626-1.133.916l-1.152.824-2.127 1.512c-.662.466-1.248.79-1.78 1.133l-1.365.85-1.19.74-2.62-5.005zM1337.282 606.246l1.53.443c.957.275 2.333.665 4.013 1.11 1.67.465 3.632.95 5.737 1.483 2.104.534 4.36 1.022 6.62 1.555l3.38.694c1.118.22 2.218.47 3.286.654l5.856.973c3.455.4 5.758.67 5.758.67l.002 1.016-5.874.317c-1.766.01-3.827.02-6.035.03-1.106 0-2.24-.06-3.4-.09l-3.52-.114c-2.345-.146-4.707-.25-6.91-.422-2.2-.172-4.263-.322-6.024-.5-1.76-.16-3.24-.317-4.28-.432l-1.61-.18 1.472-7.21z"/><path d="M1157.836 822.317l1.842.383c1.152.237 2.807.572 4.827.94 2.01.395 4.367.78 6.896 1.21 2.53.43 5.236.787 7.948 1.2 1.357.16 2.714.324 4.05.484 1.337.15 2.658.335 3.934.445 2.55.198 4.942.403 6.995.546l6.85.172.126 1.246-6.888 1.052c-2.075.224-4.5.446-7.113.704-1.305.118-2.65.17-4.02.26-1.374.078-2.77.158-4.164.24-2.783.072-5.58.2-8.198.22-2.616.023-5.065.06-7.163.024-2.093-.008-3.86-.047-5.1-.08l-1.92-.055 1.1-8.993zM1111.454 885.528c-17.303-6.477-28.678 10.437-28.678 10.437s-2.526 20.226 14.776 26.703 38.28-6.842 38.28-6.842-7.075-23.822-24.378-30.298z"/><path d="M1105.436 853.368c-22.558 5.895-22 31.612-22 31.612s12.095 22.703 34.653 16.808c22.557-5.895 34.518-34.883 34.518-34.883s-24.614-19.43-47.172-13.537z"/><path d="M1048.714 890.314l2.08.08c1.294.046 3.153.106 5.424.128 1.13.01 2.36.052 3.654.035l4.084-.018c2.837-.01 5.848-.152 8.882-.225 1.508-.09 3.016-.182 4.5-.272 1.484-.103 2.96-.16 4.368-.297l4.062-.432c1.292-.143 2.525-.257 3.652-.402l7.47-1.273.448 1.417-7.245 2.712c-1.102.36-2.305.71-3.576 1.102l-4.014 1.22c-1.396.413-2.85.75-4.327 1.14l-4.488 1.144c-3.02.656-6.046 1.385-8.898 1.94-1.428.28-2.808.552-4.116.81-1.31.268-2.554.464-3.702.673-2.287.414-4.23.723-5.598.934l-2.107.32-.553-10.74zM1129.796 715.005l5.985-9.584c3.617-5.727 8.486-13.33 13.487-20.853 2.505-3.76 5.042-7.497 7.465-10.973 1.23-1.728 2.39-3.413 3.54-4.982 1.16-1.564 2.21-3.064 3.258-4.405 1.05-1.34 1.96-2.595 2.855-3.655.89-1.063 1.642-2 2.3-2.748l2.148-2.29.743.702-1.883 2.404c-.577.784-1.237 1.777-2.014 2.89-.782 1.11-1.578 2.44-2.49 3.846-.912 1.407-1.826 2.99-2.832 4.632-.997 1.647-2 3.42-3.062 5.234-2.093 3.65-4.276 7.576-6.427 11.518-4.296 7.89-8.455 15.86-11.535 21.853l-5.08 10.005-6.46-3.593zM1314.603 562.074c-11.122 20.74 8.29 37.98 8.29 37.98s25.103 6.633 36.225-14.106c11.123-20.74-2.118-49.488-2.118-49.488s-31.275 4.876-42.397 25.614z"/><path d="M1306.118 599.167c8.933 7.335 19.09-.377 19.09-.377s5.587-11.463-3.346-18.798-24.047-3.693-24.047-3.693-.63 15.533 8.303 22.867z"/><path d="M1292.822 615.75l1.286-.864c.833-.557 2.02-1.344 3.446-2.25 1.416-.928 3.103-1.958 4.896-3.07 1.796-1.11 3.756-2.234 5.686-3.384l2.94-1.632c.975-.53 1.91-1.08 2.855-1.56 1.89-.953 3.635-1.858 5.148-2.598l5.134-2.284.45.883-4.594 3.09c-1.343.976-2.886 2.153-4.542 3.388-.828.618-1.648 1.318-2.5 1.994l-2.56 2.07c-1.68 1.447-3.375 2.856-4.923 4.232-1.545 1.38-2.994 2.653-4.2 3.785-1.225 1.117-2.215 2.055-2.902 2.712-.697.67-1.095 1.05-1.095 1.05l-4.523-5.563zM1341.312 789.636l.58-.212 1.582-.55c1.357-.46 3.29-1.083 5.625-1.763 4.663-1.365 10.952-2.936 17.375-3.868 1.604-.234 3.217-.423 4.81-.568 1.595-.133 3.167-.234 4.694-.258 1.525-.03 3.003-.014 4.405.088.7.034 1.38.095 2.038.178.656.062 1.29.152 1.896.262.605.092 1.183.198 1.728.334.546.128 1.064.228 1.542.387.477.146.924.282 1.336.41l1.11.428c.674.235 1.163.54 1.512.692l.526.26-.493 1.065s-.18-.06-.523-.168c-.35-.093-.824-.308-1.485-.434l-1.075-.245-1.287-.196c-.454-.083-.954-.104-1.472-.15-.517-.052-1.065-.072-1.64-.074-.57-.02-1.165-.02-1.785.013-.617.01-1.254.046-1.91.11-1.31.094-2.69.28-4.11.516-1.418.23-2.877.54-4.35.88-1.474.355-2.96.753-4.44 1.193-5.913 1.758-11.65 4.112-15.854 6.04-2.105.96-3.833 1.808-5.022 2.415l-1.363.708c-.298.16-.458.248-.458.248l-3.495-7.74zM1328.69 702.964l1.084-.763c.703-.492 1.706-1.186 2.91-1.99 1.194-.82 2.62-1.73 4.135-2.717 1.517-.983 3.174-1.98 4.806-3l2.488-1.452c.825-.47 1.615-.96 2.415-1.386 1.6-.852 3.077-1.658 4.358-2.32l4.354-2.05.402.75-3.877 2.727c-1.132.862-2.432 1.898-3.827 2.986-.697.544-1.387 1.158-2.103 1.753l-2.156 1.82c-1.41 1.267-2.835 2.505-4.135 3.712-1.298 1.21-2.515 2.327-3.527 3.318-1.027.98-1.858 1.8-2.434 2.376l-.92.92-3.975-4.682zM1301.562 668.585c-6.748 11.15 3.494 21.245 3.494 21.245s13.694 4.39 20.442-6.76c6.748-11.152.25-27.434.25-27.434s-17.437 1.797-24.186 12.95zM1074.987 729.08c-5.915 10.29 3.614 19.267 3.614 19.267s12.555 3.717 18.47-6.57c5.914-10.29-.333-24.976-.333-24.976s-15.836 1.993-21.75 12.28zM1405.533 817.074l1.497-.363c.97-.233 2.348-.558 3.99-.914 1.64-.378 3.567-.76 5.624-1.18 2.058-.42 4.272-.793 6.47-1.203l3.305-.512c1.09-.16 2.152-.35 3.197-.472 2.09-.24 4.03-.484 5.696-.656l5.576-.365.115.98-5.35 1.3c-1.588.45-3.433 1.02-5.403 1.602-.985.29-1.99.662-3.017 1l-3.103 1.052c-2.063.772-4.13 1.503-6.047 2.256-1.917.757-3.706 1.446-5.22 2.087-1.527.623-2.774 1.157-3.64 1.534l-1.385.603-2.307-6.75zM1031.53 800.386l1.58-2.392c1.006-1.534 2.422-3.754 4.104-6.434 1.666-2.688 3.603-5.836 5.603-9.252 2.02-3.407 4.095-7.085 6.115-10.795 1.03-1.848 1.975-3.73 2.953-5.568.955-1.846 1.844-3.685 2.735-5.457.838-1.793 1.65-3.526 2.417-5.17l2.018-4.694c.6-1.464 1.093-2.824 1.562-4.025.485-1.198.81-2.266 1.1-3.142l.905-2.762 1.422.318-.54 2.906c-.175.926-.36 2.062-.687 3.33-.31 1.27-.628 2.722-1.036 4.285l-1.403 5.023c-.554 1.765-1.14 3.626-1.743 5.55-.656 1.905-1.31 3.89-2.023 5.883-.735 1.983-1.44 4.024-2.227 6.024-1.537 4.02-3.137 8.017-4.714 11.73-1.56 3.722-3.09 7.164-4.412 10.113-1.34 2.942-2.474 5.388-3.294 7.097l-1.304 2.697-9.13-5.264zM1244.88 630.96l1.022-.906c.662-.586 1.607-1.412 2.745-2.37 1.127-.976 2.482-2.07 3.917-3.25.71-.597 1.482-1.178 2.247-1.785l2.33-1.824 2.38-1.763c.79-.573 1.538-1.167 2.314-1.685l2.21-1.515c.708-.476 1.355-.945 1.986-1.34l4.217-2.583.5.726-3.648 3.23c-.54.488-1.095 1.06-1.696 1.642l-1.876 1.84c-.656.628-1.286 1.34-1.95 2.027l-1.993 2.105-1.938 2.16c-.634.718-1.274 1.404-1.86 2.103-1.184 1.387-2.298 2.665-3.215 3.794-.935 1.12-1.687 2.054-2.205 2.708l-.83 1.047-4.656-4.363zM1117.627 1080.908s18.64-35.15 62.403-34.554 82.663 34.554 82.663 34.554h-40.52s-27.555-12.25-41.333-12.25c-13.777 0-29.175 12.583-29.175 12.583l-34.038-.332zM1338.062 1081.24s45.384-25.727 81.853-17.446c36.47 8.28 53.488 17.78 75.37 17.447H1338.06z"/><path d="M1427.82 828.287s-55.915-33.158-97.245-42.882c-41.33-9.725-96.03-21.88-96.03-21.88s64.425-32.82 91.168-31.605c26.743 1.216 82.66 8.51 82.66 8.51s-31.606-21.88-44.977-36.468c-13.37-14.587-89.952 0-120.34 7.293-30.39 7.293-34.037 13.37-55.917 1.216-21.882-12.155 92.382-76.58 128.85-85.09 36.466-8.508 70.502-38.897 70.502-38.897s-110.617 30.39-143.437 40.114c-32.82 9.725-123.99 85.09-130.067 98.46-6.078 13.372-95.37 83.91-126.975 98.498-21.212 9.79-70.99 46.534-115.258 78.217-21.69 15.524-31.778 53.993-42.57 54.792-14.25 1.056-25.133 10.513-31.902 22.56-6.226 11.08-4.155 23.333-11.308 34.134-7.73 11.672-18.833 16.032-29.34 24.376-9.655 7.667-21.984 12.237-34.303 13.267-22.692 1.9-74.56 28.008-74.56 28.008h116.285c-.268.11-.532.23-.803.333l195.346-.162s-.063-.06-.173-.17h96.99s-29.987-13.697-62.403-17.75c-25.76-3.22-42.286-19.91-55.853-32.583-7.764-9.814 3.087-68.39 43.714-82.957 40.67-14.582 78.317-48.63 90.522-62.877l12.205-14.247s119.127-65.522 159.24-60.11c40.115 5.41 89.953 10.947 123.99 17.903 34.035 6.956 71.718 45.405 71.718 45.405l-9.727-45.403zM555.83 1081.08h73.922s-5.174-14.572-22.916-24.363c-12.182-6.723-31.682.02-42.707 4.906-5.29-2.948-11.633-5.52-19.083-7.08-19.116-10.198-69.323-28.682-120.332-74.47 0 0 25.123 31.778 44.573 47.58 9.69 7.875 23.907 18.448 35.985 28.41 12.087 9.967 22.03 19.32 23.15 24.74h27.407v.275z"/><path d="M1190.316 721.575l7.438-3.094 7.657-3.133c2.792-1.162 5.8-2.34 8.808-3.514l8.822-3.456c1.396-.568 2.78-1.06 4.097-1.515 1.312-.46 2.55-.897 3.696-1.3l7.607-2.673.346.928-7.204 3.552-3.478 1.715c-1.235.6-2.532 1.246-3.853 1.978-2.65 1.427-5.48 2.948-8.31 4.47-2.83 1.515-5.654 3.035-8.276 4.518l-7.183 4.006-7 3.955-3.164-6.435zM1275.423 707.482l5.927-3.506c3.574-2.086 8.307-4.91 13.1-7.642l7.018-4.037c2.23-1.3 4.38-2.424 6.186-3.43l6.042-3.31.435.73-5.587 4.002c-1.668 1.213-3.64 2.565-5.7 4.124l-6.466 4.838c-4.413 3.273-8.765 6.64-12.048 9.127-3.275 2.51-5.458 4.186-5.458 4.186l-3.45-5.084zM1253.498 771.833l3.204-.953 3.677-1.093c.71-.21 1.47-.43 2.268-.665l2.617-.628 5.875-1.404c2.083-.517 4.257-.867 6.516-1.335 2.26-.426 4.58-.944 6.957-1.31 2.372-.4 4.78-.803 7.19-1.207 2.408-.404 4.822-.73 7.194-1.095 2.373-.355 4.706-.706 6.966-1.01l12.344-1.71c3.615-.484 6.612-.937 8.714-1.247l3.305-.487.207 1.027-3.257.764c-2.073.487-5.037 1.193-8.596 1.98-3.557.8-7.706 1.736-12.15 2.738-2.225.493-4.51 1.036-6.834 1.586-2.32.558-4.688 1.085-7.033 1.684l-6.994 1.788c-2.316.56-4.543 1.26-6.72 1.862-2.16.64-4.302 1.174-6.227 1.83-1.933.637-3.76 1.24-5.448 1.794l-2.414.792-2.194.85-3.572 1.398-3.112 1.218-2.484-7.167zM1256.418 803.444l6.432 3.29c.964.483 2.014 1.055 3.12 1.634l3.48 1.838 7.478 3.986c1.272.657 2.54 1.36 3.8 1.97 1.26.62 2.5 1.232 3.703 1.823l3.522 1.545c1.117.513 2.22.847 3.217 1.238 1.005.36 1.916.743 2.758.96l2.165.642 1.894.56-.188.996-1.977-.3-2.276-.347c-.888-.107-1.856-.364-2.93-.59-1.065-.256-2.254-.45-3.456-.812l-3.813-1.084c-1.3-.432-2.644-.878-4.01-1.33-1.373-.45-2.717-.97-4.092-1.457l-7.977-2.938-3.642-1.328c-1.162-.418-2.24-.827-3.27-1.18l-6.82-2.38 2.882-6.738z"/></g><head><style>.pkt_added {text-decoration:none !important;}</style></head></svg>