<svg xmlns="http://www.w3.org/2000/svg" width="1920" height="1080" viewBox="0 0 1920 1080"><g fill="#FFF"><path d="M860.573 1081.13c44.976-17.048 35.257-50.205 41.334-133.408 3.025-41.408 1.662-90.016-6.93-119.124-8.67-29.38-32.734-39.15-42.504-57.47-19.45-36.466-22.78-38.303-41.013-57.678-18.234-19.376-48.175-70.6-51.822-78.133-3.647-7.533 68.076 61.998 82.663 75.37 14.588 13.37 69.075 88.028 75.37 56.73 6.295-31.3 18.688-69.7 25.934-96.44 16.97-6.08 31.96-38.422 31.96-38.422s-34.39 138.914-29.53 141.345c4.863 2.43 51.476-35.125 71.318-54.298 15.486-14.964 55.515-44.373 66.455-45.588 13.343 1.143 37.685.482 37.685.482s-13.777 4.437-28.335 7.193c-28.66 5.426-141.45 118.28-146.31 144.686-4.863 26.405-1.204 181.845 9.23 209.143 8.914 23.326 25.65 45.45 25.65 45.45l-121.154.16z"/><path d="M888.015 710.682c12.164 16.067 32.52 7.12 32.52 7.12s14.132-17.163 1.968-33.23-39.27-16.038-39.27-16.038-7.382 26.08 4.782 42.148zM796.483 658.057c3.725 19.806 25.933 20.873 25.933 20.873s20.304-9.062 16.58-28.868c-3.726-19.806-28-31.864-28-31.864s-18.237 20.054-14.513 39.86zM976.773 616.834c-15.74 12.585-6.26 32.696-6.26 32.696s17.533 13.675 33.273 1.09 14.993-39.68 14.993-39.68-26.266-6.69-42.007 5.894zM804.5 758.734c13.335 2.045 18.94-11.743 18.94-11.743s-1.215-14.833-14.55-16.878c-13.333-2.045-26.337 10.608-26.337 10.608s8.614 15.97 21.948 18.014zM1027.35 765.305c-7.81-11-21.612-5.428-21.612-5.428s-9.807 11.195-1.996 22.194c7.81 11 25.947 11.533 25.947 11.533s5.47-17.3-2.34-28.298zM1108.525 699.187c-7.81-11-21.612-5.428-21.612-5.428s-9.807 11.194-1.996 22.193c7.81 11 25.947 11.532 25.947 11.532s5.472-17.3-2.34-28.298z"/><path d="M1089.29 711.66c2.865-9.856-6.98-15.453-6.98-15.453s-11.31-.556-14.178 9.3c-2.867 9.856 5.388 20.923 5.388 20.923s12.902-4.913 15.77-14.77zM913.85 730.542c8.9-4.33 6.528-14.99 6.528-14.99s-6.924-8.446-15.825-4.115c-8.9 4.33-11.468 17.394-11.468 17.394s11.864 6.043 20.764 1.712zM762.945 683.63c9.474 3.952 16.137-5.205 16.137-5.205s1.818-11.178-7.656-15.13-21.394 3.014-21.394 3.014 3.44 13.37 12.913 17.32zM923.294 662.206c9.474 3.95 16.137-5.206 16.137-5.206s1.82-11.178-7.655-15.13c-9.474-3.95-21.394 3.014-21.394 3.014s3.44 13.37 12.914 17.322zM826.075 765.36c7.203-6.79 1.76-16.256 1.76-16.256s-9.13-5.995-16.332.795-5.756 20.022-5.756 20.022 13.125 2.227 20.328-4.562zM1043.103 662.383c-8.256 10.668 1.082 22.258 1.082 22.258s13.56 6.134 21.817-4.534c8.256-10.668 3.5-28.178 3.5-28.178s-18.143-.214-26.4 10.455zM1001.765 695.803c-1.665 13.387 12.276 18.597 12.276 18.597s14.794-1.636 16.46-15.023c1.664-13.387-11.353-26.026-11.353-26.026s-15.717 9.067-17.382 22.453z"/><path d="M977.22 678.135c-10.282 8.734-3.536 22.002-3.536 22.002s12.003 8.8 22.284.065c10.28-8.734 9.24-26.85 9.24-26.85s-17.71-3.952-27.99 4.783z"/><path d="M990.14 701.37c-7.385-6.162-15.888.19-15.888.19s-4.725 9.503 2.66 15.666c7.387 6.163 19.99 3.23 19.99 3.23s.626-12.923-6.76-19.085zM854.547 860.423c19.92 3.055 28.293-17.542 28.293-17.542s-1.815-22.16-21.735-25.214-39.347 15.847-39.347 15.847 12.87 23.855 32.79 26.91zM1038.64 739.63c-19.79-3.81-28.937 16.455-28.937 16.455s.973 22.213 20.763 26.02c19.79 3.81 39.92-14.342 39.92-14.342s-11.956-24.326-31.745-28.134zM1140.22 660.716c-19.484-5.15-29.995 14.442-29.995 14.442s-.546 22.227 18.937 27.38c19.483 5.15 40.806-11.584 40.806-11.584s-10.266-25.087-29.75-30.238zM1063.138 691.507l1.238.274c.776.17 1.89.412 3.248.68 1.352.284 2.937.57 4.637.886 1.7.317 3.52.59 5.344.9.913.126 1.825.253 2.724.38.9.118 1.787.26 2.645.35l4.706.476 4.61.24.055.81-4.654.55-4.796.332c-.88.055-1.785.066-2.71.102l-2.8.088c-1.874.004-3.757.043-5.517.017-1.76-.024-3.406-.038-4.816-.09-1.406-.036-2.592-.086-3.425-.125l-1.29-.062.803-5.806z"/><path d="M945.74 728.61l1.706-1.446 1.958-1.66c.744-.645 1.637-1.36 2.513-2.162l2.84-2.594c.507-.46 1.026-.935 1.557-1.42l1.583-1.548 3.305-3.265 3.316-3.482c1.12-1.163 2.18-2.386 3.256-3.56 1.075-1.174 2.116-2.352 3.117-3.5l5.483-6.276 5.373-6.118.73.58-4.65 6.667-4.756 6.86c-.87 1.256-1.778 2.55-2.727 3.853-.95 1.3-1.878 2.65-2.877 3.952l-2.966 3.906c-1.02 1.26-2.022 2.502-2.992 3.703-.49.6-.97 1.19-1.443 1.767l-1.447 1.653-2.66 3.034c-.824.942-1.6 1.717-2.278 2.45l-1.76 1.87-1.536 1.628-4.645-4.89zM822.923 703.086l-.146-1.26c-.093-.79-.23-1.92-.42-3.29-.174-1.37-.422-2.962-.68-4.673-.256-1.71-.592-3.52-.897-5.343l-.532-2.698c-.182-.89-.34-1.774-.532-2.615-.4-1.684-.77-3.255-1.09-4.602l-1.282-4.437.747-.315 2.044 4.218c.55 1.296 1.194 2.806 1.883 4.425.34.814.646 1.665.982 2.527l1 2.62c.616 1.77 1.268 3.535 1.82 5.206.55 1.67 1.077 3.232 1.488 4.58.427 1.342.767 2.48 1.003 3.28l.364 1.238-5.75 1.14zM983.388 764.57l1.556-.474c.972-.298 2.365-.732 4.05-1.29 1.688-.537 3.634-1.224 5.73-1.948 2.097-.723 4.295-1.577 6.523-2.39l3.27-1.315c1.077-.442 2.155-.85 3.168-1.296 2.015-.908 3.914-1.746 5.53-2.49l5.265-2.714.612.893-4.784 3.657c-1.48 1.03-3.227 2.207-5.1 3.488-.94.633-1.94 1.23-2.94 1.867l-3.057 1.91c-2.08 1.21-4.146 2.47-6.12 3.572-1.975 1.102-3.817 2.146-5.422 2.99-1.59.864-2.945 1.567-3.9 2.058l-1.477.755-2.902-7.273zM848.958 759.267l-1.568-.505c-1.01-.328-2.45-.8-4.148-1.39-1.708-.57-3.682-1.29-5.797-2.05-2.115-.757-4.35-1.646-6.586-2.49l-3.314-1.355c-1.09-.455-2.166-.876-3.195-1.33l-5.59-2.535-5.325-2.73.42-.933 5.625 1.777 5.842 1.54c1.07.272 2.193.505 3.322.767l3.428.77c2.318.452 4.616.945 6.792 1.332 2.175.39 4.198.763 5.942 1.034 1.744.293 3.184.51 4.19.657l1.603.233-1.642 7.207zM922.002 746.814l-.212-1.31c-.136-.846-.323-2.052-.52-3.485-.215-1.434-.414-3.115-.64-4.91-.22-1.794-.394-3.72-.6-5.633l-.22-2.872c-.063-.948-.158-1.872-.192-2.778-.067-1.812-.147-3.492-.183-4.935l.058-4.812.848-.035s.306 1.872.762 4.68c.28 1.394.645 3.015 1.014 4.745.185.865.436 1.754.658 2.657l.696 2.734c.525 1.824 1.016 3.647 1.534 5.344.522 1.696.995 3.278 1.444 4.622.433 1.352.81 2.458 1.074 3.227l.426 1.23-5.946 1.53zM998.344 737.993l.634-1.442c.41-.932 1.003-2.255 1.732-3.81.71-1.568 1.6-3.37 2.533-5.304.94-1.932 2.01-3.964 3.042-6.002.55-1.006 1.098-2.013 1.638-3.003.55-.985 1.05-1.967 1.604-2.89l1.582-2.663c.507-.843.964-1.647 1.424-2.37 1.9-2.855 3.168-4.757 3.168-4.757l.87.515-2.263 5.154c-.324.777-.632 1.643-.98 2.544l-1.076 2.84c-.376.98-.698 2.028-1.06 3.072l-1.073 3.174c-.652 2.156-1.34 4.29-1.92 6.314-.573 2.027-1.123 3.91-1.54 5.538-.442 1.627-.78 2.972-1.01 3.91l-.368 1.5-6.938-2.32zM941.737 684.525l-.212-1.31c-.136-.846-.323-2.052-.52-3.485-.215-1.433-.414-3.114-.64-4.908-.22-1.795-.395-3.72-.6-5.634l-.22-2.872c-.063-.948-.158-1.872-.192-2.778-.067-1.812-.147-3.492-.183-4.935l.058-4.812.848-.034.76 4.68c.282 1.394.646 3.015 1.015 4.745.186.866.437 1.755.66 2.658l.695 2.734c.525 1.823 1.016 3.646 1.534 5.343.52 1.696.994 3.278 1.443 4.622.433 1.352.81 2.458 1.075 3.227l.426 1.23-5.947 1.53zM1037.046 702.85l.404-1.264c.263-.817.642-1.977 1.116-3.343.458-1.375 1.043-2.963 1.655-4.664.617-1.7 1.335-3.497 2.02-5.295l1.107-2.66c.372-.874.707-1.74 1.087-2.564.76-1.644 1.452-3.18 2.073-4.48l2.233-4.264.772.354-1.442 4.516c-.382 1.37-.792 2.98-1.248 4.69-.227.855-.406 1.76-.618 2.667-.204.908-.41 1.83-.62 2.753-.357 1.863-.747 3.71-1.054 5.457-.304 1.748-.6 3.373-.808 4.774-.227 1.402-.393 2.558-.505 3.364l-.177 1.29-5.994-1.33zM909.725 879.193l-1.726-1.91c-1.108-1.23-2.685-2.987-4.53-5.105-.925-1.062-1.944-2.193-2.986-3.423l-3.295-3.85c-2.295-2.657-4.654-5.58-7.052-8.45-1.187-1.45-2.34-2.933-3.49-4.373l-3.36-4.243-5.75-7.688-5.29-7.727 1.162-.88 6.327 6.754 6.77 6.64c1.27 1.182 2.585 2.402 3.92 3.643 1.34 1.233 2.68 2.502 4.058 3.74 2.782 2.45 5.51 4.937 8.15 7.19l3.79 3.26c1.2 1.04 2.364 1.99 3.42 2.886 2.122 1.79 3.897 3.244 5.137 4.26l1.974 1.607-7.23 7.666zM797.986 689.32l-1.196-.657c-.775-.426-1.87-1.04-3.155-1.79-1.298-.733-2.783-1.64-4.378-2.596-.8-.47-1.608-1-2.436-1.516l-2.5-1.58-2.46-1.647c-.805-.552-1.615-1.056-2.364-1.613l-2.17-1.573c-.685-.505-1.345-.958-1.93-1.42-2.31-1.86-3.85-3.103-3.85-3.103l.516-.716 4.27 2.35c.64.345 1.366.675 2.115 1.046l2.364 1.148c.813.407 1.695.76 2.565 1.155l2.653 1.17 2.687 1.098c.888.356 1.75.728 2.605 1.045 1.704.648 3.282 1.27 4.655 1.752 1.37.503 2.502.898 3.29 1.166l1.265.43-2.544 5.852z"/></g><head><style>.pkt_added {text-decoration:none !important;}</style></head></svg>