<?xml version="1.0" encoding="utf-8"?>
<!-- Generator: Adobe Illustrator 17.0.0, SVG Export Plug-In . SVG Version: 6.00 Build 0)  -->
<!DOCTYPE svg PUBLIC "-//W3C//DTD SVG 1.1//EN" "http://www.w3.org/Graphics/SVG/1.1/DTD/svg11.dtd">
<svg version="1.1" id="Laag_1" xmlns="http://www.w3.org/2000/svg" xmlns:xlink="http://www.w3.org/1999/xlink" x="0px" y="0px"
	 width="1920px" height="1080px" viewBox="0 0 1920 1080" enable-background="new 0 0 1920 1080" xml:space="preserve">
<g>
	<path fill="#FFFFFF" d="M834.785,1081.3c44.976-17.048,53.322-124.095,59.4-207.298c3.025-41.408,13.624-94.452,5.033-123.56
		c-8.671-29.38-25.629-45.25-35.399-63.569c-19.449-36.467-22.78-38.304-41.013-57.679c-18.234-19.376-77.163-107.909-80.81-115.442
		c-3.647-7.533,100.493,87.302,115.08,100.673c14.587,13.371,54.849,83.719,61.145,52.42c6.295-31.299,21.854-106.888,29.099-133.63
		c16.97-6.078,34.729-41.245,34.729-41.245s-20.284,167.394-15.422,169.825c4.862,2.431,41.012-16.674,60.855-35.847
		c15.486-14.964,76.368-46.903,87.308-48.119c13.343,1.143,36.651-6.536,36.651-6.536s-22.904,30.701-37.461,33.457
		c-28.659,5.427-134.949,101.922-139.812,128.328c-4.862,26.405-1.475,212.515,2.167,241.512
		c7.774,61.886,53.796,106.549,53.796,106.549L834.785,1081.3z"/>
	<path fill="#FFFFFF" d="M874.061,621.225c19.465,13.226,38.637-4.283,38.637-4.283s9.217-24.273-10.248-37.498
		s-49.439-3.057-49.439-3.057S854.596,608,874.061,621.225z"/>
	<path fill="#FFFFFF" d="M783.574,533.505c3.725,19.806,25.933,20.873,25.933,20.873s20.304-9.062,16.579-28.868
		c-3.725-19.806-28-31.864-28-31.864S779.85,513.699,783.574,533.505z"/>
	<path fill="#FFFFFF" d="M983.258,476.25c-15.74,12.585-6.258,32.696-6.258,32.696s17.532,13.675,33.272,1.09
		s14.993-39.68,14.993-39.68S998.999,463.665,983.258,476.25z"/>
	<path fill="#FFFFFF" d="M811.739,677.774c14.598,2.239,20.708-12.688,20.708-12.688s-1.356-16.072-15.954-18.311
		s-28.81,11.445-28.81,11.445S797.141,675.535,811.739,677.774z"/>
	<path fill="#FFFFFF" d="M1037.718,700.196c-9.037-12.725-25.004-6.28-25.004-6.28s-11.346,12.952-2.309,25.677
		c9.037,12.725,30.019,13.342,30.019,13.342S1046.755,712.921,1037.718,700.196z"/>
	<path fill="#FFFFFF" d="M1131.342,624.907c-9.768-13.754-27.027-6.788-27.027-6.788s-12.264,14-2.496,27.754
		c9.768,13.754,32.447,14.421,32.447,14.421S1141.11,638.661,1131.342,624.907z"/>
	<path fill="#FFFFFF" d="M1107.287,640.505c3.585-12.325-8.727-19.325-8.727-19.325s-14.145-0.695-17.729,11.63
		s6.737,26.164,6.737,26.164S1103.702,652.83,1107.287,640.505z"/>
	<path fill="#FFFFFF" d="M910.066,633.535c8.227-8.119,1.617-19.025,1.617-19.025s-10.818-6.753-19.044,1.366
		c-8.227,8.119-6.182,23.53-6.182,23.53S901.84,641.654,910.066,633.535z"/>
	<path fill="#FFFFFF" d="M771.449,602.183c9.474,3.951,16.137-5.206,16.137-5.206s1.818-11.178-7.656-15.129
		c-9.474-3.951-21.394,3.013-21.394,3.013S761.975,598.232,771.449,602.183z"/>
	<path fill="#FFFFFF" d="M788.862,619.295c9.959-8.93,2.922-21.903,2.922-21.903s-12.131-8.405-22.09,0.525
		s-8.449,26.859-8.449,26.859S778.903,628.225,788.862,619.295z"/>
	<path fill="#FFFFFF" d="M927.01,524.446c9.474,3.951,16.137-5.206,16.137-5.206s1.818-11.178-7.656-15.129
		c-9.474-3.951-21.394,3.013-21.394,3.013S917.537,520.495,927.01,524.446z"/>
	<path fill="#FFFFFF" d="M931.317,501.495c-1.885,11.716,10.207,16.735,10.207,16.735s13.056-0.973,14.941-12.689
		s-9.161-23.237-9.161-23.237S933.202,489.779,931.317,501.495z"/>
	<path fill="#FFFFFF" d="M818.244,539.358c-11.336,3.51-10.468,16.573-10.468,16.573s6.666,11.268,18.001,7.759
		c11.336-3.51,16.758-18.521,16.758-18.521S829.58,535.848,818.244,539.358z"/>
	<path fill="#FFFFFF" d="M834.901,684.644c7.203-6.789,1.759-16.256,1.759-16.256s-9.128-5.995-16.331,0.795
		c-7.203,6.789-5.756,20.023-5.756,20.023S827.698,691.433,834.901,684.644z"/>
	<path fill="#FFFFFF" d="M889.16,813.491c9.503-2.771,8.958-13.679,8.958-13.679s-5.404-9.49-14.907-6.718
		c-9.503,2.771-14.231,15.216-14.231,15.216S879.658,816.263,889.16,813.491z"/>
	<path fill="#FFFFFF" d="M1080.752,552.254c-11.342,10.804-2.648,25.74-2.648,25.74s14.495,9.41,25.838-1.393
		s8.942-31.735,8.942-31.735S1092.094,541.45,1080.752,552.254z"/>
	<path fill="#FFFFFF" d="M1025.316,590.918c-4.251,15.076,10.842,23.494,10.842,23.494s17.268,0.707,21.519-14.369
		s-8.483-31.861-8.483-31.861S1029.567,575.841,1025.316,590.918z"/>
	<path fill="#FFFFFF" d="M993.758,567.219c-11.563,9.824-3.976,24.745-3.976,24.745s13.5,9.897,25.063,0.074
		c11.563-9.824,10.393-30.197,10.393-30.197S1005.321,557.396,993.758,567.219z"/>
	<path fill="#FFFFFF" d="M1008.293,593.353c-8.308-6.931-17.871,0.212-17.871,0.212s-5.314,10.688,2.993,17.62
		s22.481,3.634,22.481,3.634S1016.6,600.284,1008.293,593.353z"/>
	<path fill="#FFFFFF" d="M855.26,799.598c19.92,3.055,28.293-17.542,28.293-17.542s-1.815-22.16-21.735-25.215
		s-39.347,15.847-39.347,15.847S835.34,796.543,855.26,799.598z"/>
	<path fill="#FFFFFF" d="M1050.781,670.49c-22.895-4.406-33.479,19.039-33.479,19.039s1.126,25.699,24.021,30.105
		c22.895,4.406,46.185-16.594,46.185-16.594S1073.676,674.897,1050.781,670.49z"/>
	<path fill="#FFFFFF" d="M1172.922,563.935c-19.483-5.151-29.994,14.442-29.994,14.442s-0.546,22.227,18.937,27.379
		c19.483,5.151,40.806-11.583,40.806-11.583S1192.406,569.086,1172.922,563.935z"/>
	<path fill="#FFFFFF" d="M1074.584,615.303c0,0,0.563,0.125,1.548,0.343c0.97,0.213,2.363,0.514,4.061,0.849
		c1.691,0.355,3.672,0.712,5.798,1.108c2.126,0.397,4.402,0.739,6.681,1.125c1.141,0.159,2.283,0.318,3.406,0.475
		c1.125,0.148,2.234,0.325,3.308,0.441c2.153,0.218,4.162,0.421,5.884,0.595c3.461,0.18,5.768,0.3,5.768,0.3l0.067,1.011
		c0,0-2.328,0.276-5.82,0.689c-1.756,0.122-3.804,0.264-5.998,0.416c-1.1,0.068-2.232,0.082-3.388,0.127
		c-1.156,0.036-2.33,0.073-3.505,0.109c-2.342,0.005-4.697,0.053-6.897,0.021c-2.201-0.031-4.26-0.048-6.023-0.114
		c-1.76-0.045-3.242-0.108-4.284-0.156c-1.026-0.049-1.612-0.078-1.612-0.078L1074.584,615.303z"/>
	<path fill="#FFFFFF" d="M958.353,623.99c0,0,0.698-0.592,1.919-1.628c0.611-0.518,1.352-1.147,2.203-1.868
		c0.837-0.725,1.841-1.528,2.826-2.43c0.989-0.904,2.061-1.883,3.195-2.918c0.569-0.519,1.153-1.052,1.75-1.597
		c0.582-0.569,1.176-1.15,1.78-1.741c1.206-1.191,2.451-2.422,3.717-3.672c1.23-1.292,2.48-2.604,3.73-3.916
		c1.258-1.307,2.451-2.684,3.662-4.003c1.209-1.321,2.38-2.646,3.505-3.936c2.255-2.583,4.361-4.993,6.165-7.059
		c3.626-4.129,6.043-6.881,6.043-6.881l0.821,0.653c0,0-2.092,3-5.23,7.5c-1.565,2.258-3.392,4.892-5.349,7.714
		c-0.979,1.414-2,2.869-3.067,4.334c-1.069,1.463-2.112,2.979-3.236,4.445c-1.118,1.472-2.235,2.944-3.335,4.393
		c-1.146,1.418-2.274,2.814-3.366,4.165c-0.551,0.674-1.092,1.337-1.622,1.986c-0.555,0.634-1.099,1.255-1.627,1.859
		c-1.061,1.211-2.065,2.356-2.991,3.413c-0.928,1.06-1.801,1.932-2.563,2.757c-0.765,0.812-1.432,1.519-1.981,2.102
		c-1.098,1.165-1.726,1.831-1.726,1.831L958.353,623.99z"/>
	<path fill="#FFFFFF" d="M887.213,790.723c0,0,0.057-0.507,0.156-1.393c0.049-0.443,0.11-0.982,0.179-1.599
		c0.058-0.608,0.172-1.335,0.206-2.054c0.034-0.721,0.07-1.501,0.109-2.327c0.02-0.416,0.041-0.843,0.062-1.279
		c0.008-0.44-0.013-0.896-0.019-1.357c-0.023-0.924-0.025-1.883-0.067-2.859c-0.077-0.977-0.156-1.969-0.234-2.962
		c-0.069-0.996-0.234-1.991-0.345-2.975c-0.113-0.983-0.256-1.953-0.406-2.893c-0.299-1.885-0.577-3.644-0.816-5.152
		c-0.465-3.03-0.775-5.049-0.775-5.049l0.763-0.166c0,0,0.605,1.944,1.512,4.859c0.462,1.461,1.001,3.166,1.579,4.992
		c0.291,0.916,0.581,1.867,0.847,2.85c0.263,0.983,0.581,1.967,0.808,2.983c0.236,1.017,0.472,2.034,0.704,3.035
		c0.197,1.011,0.353,2.017,0.523,2.989c0.079,0.488,0.173,0.964,0.235,1.439c0.049,0.481,0.098,0.951,0.145,1.409
		c0.092,0.921,0.179,1.792,0.26,2.597c0.077,0.806,0.069,1.476,0.103,2.107c0.024,0.621,0.044,1.162,0.061,1.608
		c0.034,0.892,0.053,1.401,0.053,1.401L887.213,790.723z"/>
	<path fill="#FFFFFF" d="M811.526,585.888c0,0-0.067-0.575-0.183-1.581c-0.117-0.99-0.289-2.41-0.528-4.131
		c-0.218-1.72-0.53-3.717-0.853-5.863c-0.322-2.147-0.744-4.417-1.127-6.706c-0.224-1.135-0.448-2.269-0.668-3.386
		c-0.229-1.115-0.426-2.226-0.668-3.282c-0.5-2.113-0.968-4.086-1.368-5.777c-0.966-3.341-1.609-5.569-1.609-5.569l0.937-0.396
		c0,0,1.026,2.118,2.565,5.294c0.692,1.625,1.499,3.521,2.363,5.553c0.426,1.021,0.811,2.09,1.233,3.171
		c0.414,1.085,0.834,2.186,1.254,3.288c0.774,2.22,1.592,4.437,2.285,6.535c0.693,2.097,1.353,4.057,1.869,5.75
		c0.535,1.684,0.962,3.111,1.258,4.115c0.29,0.989,0.456,1.555,0.456,1.555L811.526,585.888z"/>
	<path fill="#FFFFFF" d="M986.857,699.346c0,0,0.654-0.2,1.799-0.549c1.125-0.345,2.737-0.847,4.685-1.494
		c1.953-0.62,4.205-1.414,6.63-2.253c2.426-0.837,4.969-1.825,7.546-2.766c1.268-0.509,2.537-1.019,3.785-1.52
		c1.245-0.512,2.492-0.983,3.664-1.5c2.331-1.05,4.529-2.02,6.398-2.88c3.654-1.884,6.091-3.14,6.091-3.14l0.708,1.033
		c0,0-2.214,1.693-5.535,4.232c-1.712,1.193-3.733,2.554-5.9,4.035c-1.088,0.731-2.243,1.421-3.403,2.159
		c-1.166,0.729-2.351,1.469-3.536,2.21c-2.406,1.401-4.798,2.857-7.083,4.133c-2.284,1.277-4.415,2.484-6.271,3.461
		c-1.839,0.999-3.408,1.812-4.512,2.38c-1.087,0.556-1.709,0.874-1.709,0.874L986.857,699.346z"/>
	<path fill="#FFFFFF" d="M1015.349,772.19c-15.737-9.679-30.149,4.735-30.149,4.735s-6.364,19.364,9.373,29.043
		c15.737,9.679,38.882,0.636,38.882,0.636S1031.086,781.87,1015.349,772.19z"/>
	<path fill="#FFFFFF" d="M998.874,744.48c-19.468,12.83-10.676,37.005-10.676,37.005s18.748,17.613,38.216,4.782
		c19.468-12.83,21.48-44.125,21.48-44.125S1018.342,731.65,998.874,744.48z"/>
	<path fill="#FFFFFF" d="M958.399,804.633c0,0,0.524-0.44,1.442-1.209c0.9-0.758,2.187-1.849,3.728-3.207
		c1.555-1.335,3.316-2.946,5.22-4.666c1.905-1.719,3.86-3.623,5.863-5.497c0.968-0.965,1.936-1.93,2.889-2.88
		c0.945-0.958,1.909-1.88,2.785-2.813c1.735-1.878,3.378-3.63,4.762-5.153c2.627-3.163,4.378-5.272,4.378-5.272l1.056,0.674
		c0,0-1.376,2.424-3.439,6.059c-1.109,1.767-2.437,3.81-3.852,6.021c-0.715,1.098-1.509,2.185-2.287,3.318
		c-0.788,1.127-1.589,2.272-2.39,3.417c-1.666,2.231-3.298,4.507-4.902,6.574c-1.603,2.068-3.092,4.013-4.418,5.638
		c-1.302,1.638-2.427,3.001-3.222,3.955c-0.783,0.937-1.231,1.472-1.231,1.472L958.399,804.633z"/>
	<path fill="#FFFFFF" d="M862.357,680.493c0,0-0.639-0.22-1.757-0.606c-1.121-0.396-2.722-0.962-4.643-1.641
		c-1.914-0.678-4.137-1.5-6.513-2.389c-2.382-0.866-4.898-1.881-7.42-2.852c-1.263-0.478-2.511-1.017-3.744-1.518
		c-1.231-0.507-2.442-1.007-3.615-1.49c-2.331-1.015-4.49-1.996-6.341-2.817c-0.924-0.418-1.751-0.864-2.492-1.225
		c-0.738-0.37-1.381-0.692-1.911-0.957c-1.056-0.53-1.66-0.832-1.66-0.832l0.42-0.932c0,0,0.637,0.209,1.752,0.574
		c0.556,0.182,1.231,0.403,2.006,0.656c0.777,0.245,1.636,0.556,2.602,0.831c1.939,0.535,4.188,1.178,6.605,1.828
		c1.218,0.302,2.477,0.614,3.756,0.931c1.281,0.31,2.568,0.654,3.879,0.938c2.616,0.583,5.212,1.206,7.674,1.707
		c2.454,0.523,4.744,1.002,6.714,1.386c1.963,0.381,3.598,0.699,4.743,0.921c1.153,0.214,1.811,0.337,1.811,0.337L862.357,680.493z"
		/>
	<path fill="#FFFFFF" d="M925.17,648.487c0,0-0.263-0.498-0.724-1.369c-0.468-0.886-1.126-2.15-1.879-3.661
		c-0.774-1.505-1.622-3.29-2.542-5.19c-0.917-1.903-1.829-3.969-2.771-6.008c-0.441-1.037-0.882-2.074-1.317-3.095
		c-0.425-1.024-0.876-2.011-1.252-3.001c-0.752-1.979-1.469-3.808-2.048-5.39c-1.041-3.207-1.735-5.345-1.735-5.345l0.926-0.356
		c0,0,1.037,1.957,2.592,4.892c0.832,1.438,1.841,3.095,2.897,4.871c0.528,0.888,1.138,1.777,1.722,2.693
		c0.591,0.912,1.192,1.838,1.793,2.764c1.263,1.82,2.487,3.654,3.695,5.336c1.212,1.681,2.327,3.254,3.326,4.573
		c0.985,1.334,1.814,2.417,2.395,3.168c0.593,0.764,0.931,1.2,0.931,1.2L925.17,648.487z"/>
	<path fill="#FFFFFF" d="M718.174,567.254c23.271,3.503,32.981-20.577,32.981-20.577s-2.191-25.871-25.462-29.374
		c-23.271-3.503-45.895,18.633-45.895,18.633S694.903,563.751,718.174,567.254z"/>
	<path fill="#FFFFFF" d="M755.961,562.775c3.904-10.879-6.773-17.852-6.773-17.852s-12.674-1.408-16.579,9.471
		c-3.904,10.879,4.607,23.889,4.607,23.889S752.056,573.654,755.961,562.775z"/>
	<path fill="#FFFFFF" d="M776.047,569.721c0,0-0.453-0.335-1.245-0.921c-0.805-0.597-1.945-1.452-3.278-2.488
		c-1.349-1.022-2.886-2.264-4.538-3.579c-1.65-1.319-3.366-2.787-5.098-4.218c-0.846-0.744-1.693-1.489-2.526-2.221
		c-0.827-0.74-1.66-1.435-2.427-2.164c-1.534-1.459-2.972-2.798-4.178-3.974c-2.326-2.441-3.877-4.068-3.877-4.068l0.681-0.721
		c0,0,1.781,1.315,4.453,3.289c1.372,0.937,2.999,1.994,4.719,3.138c0.86,0.572,1.795,1.109,2.718,1.683
		c0.927,0.566,1.87,1.141,2.812,1.716c1.926,1.095,3.823,2.218,5.64,3.213c1.819,0.991,3.505,1.927,4.977,2.684
		c1.465,0.777,2.681,1.394,3.53,1.82c0.865,0.432,1.359,0.679,1.359,0.679L776.047,569.721z"/>
	<path fill="#FFFFFF" d="M1014.014,638.752c0,0,0.356-0.562,0.98-1.545c0.635-0.999,1.546-2.414,2.655-4.072
		c1.09-1.676,2.425-3.59,3.835-5.647c0.695-1.033,1.465-2.073,2.225-3.139c0.764-1.062,1.54-2.141,2.315-3.22
		c0.806-1.059,1.612-2.119,2.406-3.161c0.802-1.036,1.55-2.076,2.346-3.04c0.791-0.964,1.556-1.896,2.281-2.78
		c0.73-0.878,1.395-1.722,2.051-2.473c2.681-2.943,4.468-4.906,4.468-4.906l0.909,0.744c0,0-1.4,2.208-3.499,5.521
		c-0.506,0.837-1.012,1.777-1.569,2.751c-0.55,0.976-1.131,2.006-1.731,3.07c-0.603,1.06-1.156,2.207-1.754,3.342
		c-0.589,1.14-1.187,2.298-1.785,3.456c-0.567,1.176-1.134,2.352-1.692,3.509c-0.554,1.159-1.117,2.285-1.615,3.404
		c-1.013,2.227-1.973,4.291-2.738,6.088c-0.79,1.791-1.414,3.276-1.843,4.311c-0.435,1.055-0.684,1.657-0.684,1.657
		L1014.014,638.752z"/>
	<path fill="#FFFFFF" d="M945.453,546.765c0,0-0.077-0.476-0.212-1.309c-0.136-0.847-0.323-2.053-0.52-3.486
		c-0.215-1.433-0.414-3.114-0.639-4.908c-0.222-1.795-0.396-3.721-0.601-5.634c-0.073-0.962-0.147-1.925-0.219-2.872
		c-0.064-0.948-0.159-1.872-0.193-2.778c-0.067-1.812-0.148-3.492-0.183-4.935c0.035-2.887,0.058-4.812,0.058-4.812l0.848-0.035
		c0,0,0.305,1.872,0.761,4.679c0.28,1.395,0.645,3.016,1.014,4.746c0.185,0.865,0.436,1.754,0.658,2.657
		c0.23,0.902,0.463,1.818,0.696,2.734c0.525,1.823,1.016,3.646,1.534,5.343c0.522,1.696,0.995,3.278,1.444,4.622
		c0.433,1.352,0.809,2.458,1.075,3.227c0.271,0.782,0.426,1.229,0.426,1.229L945.453,546.765z"/>
	<path fill="#FFFFFF" d="M919.565,580.743c13.028-0.396,15.934-14.48,15.934-14.48s-3.757-13.881-16.785-13.484
		c-13.028,0.396-23.164,14.7-23.164,14.7S906.537,581.14,919.565,580.743z"/>
	<path fill="#FFFFFF" d="M867.832,761.699c10.169,6.116,19.334-3.233,19.334-3.233s3.964-12.478-6.205-18.594
		c-10.169-6.116-24.977-0.161-24.977-0.161S857.663,755.583,867.832,761.699z"/>
	<path fill="#FFFFFF" d="M945.136,591.538c0,0-0.267-0.402-0.734-1.105c-0.474-0.716-1.142-1.736-1.913-2.96
		c-0.788-1.217-1.662-2.665-2.608-4.206c-0.943-1.543-1.896-3.226-2.873-4.884c-0.464-0.846-0.928-1.693-1.385-2.526
		c-0.45-0.837-0.918-1.64-1.323-2.451c-0.809-1.622-1.576-3.12-2.204-4.419c-1.16-2.644-1.934-4.407-1.934-4.407l0.758-0.382
		c0,0,1.05,1.579,2.625,3.947c0.831,1.155,1.833,2.481,2.883,3.904c0.526,0.712,1.121,1.417,1.697,2.149
		c0.581,0.727,1.172,1.465,1.763,2.203c1.231,1.444,2.43,2.901,3.603,4.233c1.175,1.329,2.26,2.575,3.224,3.613
		c0.953,1.053,1.752,1.905,2.311,2.496c0.57,0.6,0.896,0.943,0.896,0.943L945.136,591.538z"/>
	<path fill="#FFFFFF" d="M1064.585,605.172c0,0,0.249-0.502,0.685-1.38c0.444-0.892,1.083-2.157,1.866-3.642
		c0.766-1.499,1.715-3.219,2.715-5.065c1.004-1.844,2.143-3.78,3.243-5.725c0.581-0.958,1.163-1.916,1.735-2.86
		c0.58-0.938,1.116-1.875,1.696-2.753c1.161-1.756,2.222-3.397,3.163-4.782c1.985-2.702,3.308-4.503,3.308-4.503l0.824,0.541
		c0,0-0.978,1.973-2.445,4.932c-0.678,1.506-1.43,3.283-2.252,5.166c-0.41,0.942-0.774,1.95-1.175,2.954
		c-0.393,1.006-0.792,2.029-1.191,3.052c-0.737,2.076-1.507,4.129-2.165,6.081c-0.654,1.954-1.277,3.767-1.762,5.339
		c-0.506,1.569-0.899,2.868-1.168,3.773c-0.273,0.922-0.428,1.448-0.428,1.448L1064.585,605.172z"/>
	<path fill="#FFFFFF" d="M909.506,828.274c0,0-0.471-0.93-1.296-2.557c-0.834-1.634-2.062-3.964-3.556-6.752
		c-1.51-2.779-3.286-6.02-5.262-9.45c-1.96-3.442-4.127-7.066-6.349-10.659c-1.095-1.81-2.262-3.563-3.375-5.323
		c-1.131-1.744-2.287-3.427-3.386-5.079c-1.142-1.616-2.246-3.179-3.293-4.661c-1.093-1.447-2.126-2.815-3.08-4.078
		c-0.975-1.245-1.912-2.349-2.723-3.351c-0.8-1.014-1.567-1.824-2.184-2.511c-1.241-1.371-1.95-2.155-1.95-2.155l0.981-1.078
		c0,0,0.821,0.694,2.258,1.908c0.717,0.611,1.612,1.335,2.552,2.245c0.952,0.899,2.054,1.894,3.211,3.023
		c1.136,1.148,2.366,2.392,3.668,3.708c1.259,1.356,2.586,2.785,3.959,4.264c1.329,1.513,2.73,3.063,4.108,4.671
		c1.357,1.621,2.781,3.244,4.128,4.918c2.73,3.326,5.411,6.695,7.855,9.904c2.462,3.198,4.695,6.232,6.602,8.842
		c1.892,2.621,3.455,4.818,4.534,6.377c1.08,1.571,1.697,2.469,1.697,2.469L909.506,828.274z"/>
	<path fill="#FFFFFF" d="M806.49,609.758c0,0-0.435-0.239-1.196-0.657c-0.775-0.426-1.87-1.04-3.155-1.789
		c-1.298-0.734-2.783-1.642-4.378-2.597c-0.801-0.469-1.608-1-2.436-1.516c-0.825-0.521-1.662-1.051-2.5-1.58
		c-0.824-0.552-1.649-1.105-2.461-1.649c-0.806-0.552-1.616-1.056-2.365-1.613c-0.753-0.546-1.48-1.073-2.17-1.573
		c-0.685-0.505-1.345-0.958-1.93-1.419c-2.31-1.862-3.85-3.104-3.85-3.104l0.516-0.716c0,0,1.708,0.94,4.269,2.351
		c0.642,0.344,1.367,0.674,2.116,1.045c0.751,0.365,1.544,0.75,2.364,1.148c0.812,0.407,1.694,0.76,2.564,1.155
		c0.875,0.386,1.764,0.778,2.653,1.169c0.9,0.368,1.8,0.737,2.687,1.099c0.888,0.356,1.749,0.728,2.605,1.045
		c1.704,0.648,3.282,1.269,4.655,1.752c1.369,0.503,2.502,0.898,3.291,1.166c0.805,0.273,1.264,0.429,1.264,0.429L806.49,609.758z"
		/>
	<path fill="#FFFFFF" d="M991.415,1024.953c7.927,15.112,40.713,34.214,73.13,38.266c32.417,4.052,62.402,17.748,62.402,17.748
		H719.305c0,0,51.867-26.109,74.559-28.007c22.692-1.897,76.506-8.245,83.042-41.101"/>
	<path fill="#FFFFFF" d="M1190.16,1080.967c0,0,18.64-35.151,62.402-34.554s82.663,34.554,82.663,34.554h-40.521
		c0,0-27.554-12.251-41.332-12.251c-13.777,0-29.175,12.584-29.175,12.584L1190.16,1080.967z"/>
	<path fill="#FFFFFF" d="M1410.595,1081.3c0,0,45.384-25.728,81.853-17.447c36.469,8.281,53.488,17.781,75.369,17.447H1410.595z"/>
	<path fill="#FFFFFF" d="M472.936,1081.302c0,0-34.857-21.599-62.866-14.647c-28.01,6.952-41.081,14.927-57.887,14.647H472.936z"/>
	<path fill="#FFFFFF" d="M702.286,1081.309c0,0-5.174-14.571-22.916-24.362c-12.182-6.723-31.682,0.02-42.707,4.906
		c-8.847-4.933-20.623-8.833-35.649-8.651c-39.918,0.481-75.4,27.831-75.4,27.831h102.751v0.276H702.286z"/>
	<path fill="#FFFFFF" d="M967.294,758.667c4.661,26.485,17.348,54.274,15.563,87.909c-1.786,33.636-12.321,64.952-15.563,85.829
		C964.052,953.283,967.294,758.667,967.294,758.667z"/>
	<path fill="#FFFFFF" d="M886.571,984.237c-2.054-11.247-9.293-23.504-6.878-37.337s10.45-26.192,13.34-34.653
		C895.923,903.786,886.571,984.237,886.571,984.237z"/>
</g>
</svg>
