<?xml version="1.0" encoding="utf-8"?>
<!-- Generator: Adobe Illustrator 17.0.0, SVG Export Plug-In . SVG Version: 6.00 Build 0)  -->
<!DOCTYPE svg PUBLIC "-//W3C//DTD SVG 1.1//EN" "http://www.w3.org/Graphics/SVG/1.1/DTD/svg11.dtd">
<svg version="1.1" id="Laag_1" xmlns="http://www.w3.org/2000/svg" xmlns:xlink="http://www.w3.org/1999/xlink" x="0px" y="0px"
	 width="1920px" height="1080px" viewBox="0 0 1920 1080" enable-background="new 0 0 1920 1080" xml:space="preserve">
<g>
	<path fill="#FFFFFF" d="M860.573,1081.13c44.976-17.048,35.257-50.205,41.334-133.408c3.025-41.408,1.662-90.016-6.929-119.124
		c-8.671-29.38-32.735-39.151-42.505-57.469c-19.449-36.467-22.78-38.304-41.013-57.679c-18.234-19.376-48.175-70.6-51.822-78.133
		c-3.647-7.533,68.076,61.998,82.663,75.369c14.587,13.371,69.074,88.029,75.369,56.73c6.295-31.299,18.688-69.698,25.934-96.44
		c16.97-6.078,31.961-38.421,31.961-38.421s-34.392,138.914-29.53,141.345c4.862,2.431,51.475-35.125,71.317-54.298
		c15.486-14.964,55.515-44.373,66.455-45.588c13.343,1.143,37.685,0.482,37.685,0.482s-13.777,4.437-28.335,7.193
		c-28.659,5.427-141.449,118.281-146.311,144.687c-4.862,26.405-1.203,181.845,9.23,209.143c8.915,23.327,25.651,45.45,25.651,45.45
		L860.573,1081.13z"/>
	<path fill="#FFFFFF" d="M888.015,710.682c12.164,16.067,32.519,7.121,32.519,7.121s14.133-17.164,1.969-33.231
		s-39.27-16.038-39.27-16.038S875.851,694.615,888.015,710.682z"/>
	<path fill="#FFFFFF" d="M796.483,658.057c3.725,19.806,25.933,20.873,25.933,20.873s20.304-9.062,16.579-28.868
		c-3.725-19.806-28-31.864-28-31.864S792.759,638.252,796.483,658.057z"/>
	<path fill="#FFFFFF" d="M976.773,616.834c-15.74,12.585-6.259,32.696-6.259,32.696s17.532,13.675,33.272,1.09
		s14.993-39.68,14.993-39.68S992.514,604.249,976.773,616.834z"/>
	<path fill="#FFFFFF" d="M804.501,758.734c13.334,2.045,18.939-11.743,18.939-11.743s-1.215-14.834-14.549-16.879
		c-13.334-2.045-26.338,10.608-26.338,10.608S791.167,756.689,804.501,758.734z"/>
	<path fill="#FFFFFF" d="M1027.35,765.305c-7.811-10.999-21.612-5.428-21.612-5.428s-9.807,11.195-1.996,22.194
		c7.811,10.999,25.947,11.532,25.947,11.532S1035.161,776.304,1027.35,765.305z"/>
	<path fill="#FFFFFF" d="M1108.525,699.187c-7.811-10.999-21.612-5.428-21.612-5.428s-9.807,11.195-1.996,22.194
		c7.811,10.999,25.947,11.532,25.947,11.532S1116.336,710.186,1108.525,699.187z"/>
	<path fill="#FFFFFF" d="M1089.289,711.66c2.866-9.856-6.979-15.453-6.979-15.453s-11.311-0.556-14.178,9.3
		c-2.867,9.856,5.388,20.923,5.388,20.923S1086.422,721.517,1089.289,711.66z"/>
	<path fill="#FFFFFF" d="M913.849,730.542c8.901-4.331,6.529-14.991,6.529-14.991s-6.924-8.445-15.825-4.114
		c-8.901,4.331-11.468,17.394-11.468,17.394S904.949,734.873,913.849,730.542z"/>
	<path fill="#FFFFFF" d="M762.945,683.631c9.474,3.951,16.137-5.206,16.137-5.206s1.818-11.178-7.656-15.129
		s-21.394,3.013-21.394,3.013S753.471,679.68,762.945,683.631z"/>
	<path fill="#FFFFFF" d="M923.294,662.206c9.474,3.951,16.137-5.206,16.137-5.206s1.818-11.178-7.656-15.129
		c-9.474-3.951-21.394,3.013-21.394,3.013S913.82,658.255,923.294,662.206z"/>
	<path fill="#FFFFFF" d="M826.075,765.36c7.203-6.789,1.759-16.256,1.759-16.256s-9.128-5.995-16.331,0.795
		s-5.756,20.023-5.756,20.023S818.872,772.149,826.075,765.36z"/>
	<path fill="#FFFFFF" d="M1043.103,662.383c-8.256,10.668,1.082,22.258,1.082,22.258s13.561,6.133,21.817-4.535
		c8.256-10.668,3.5-28.178,3.5-28.178S1051.359,651.714,1043.103,662.383z"/>
	<path fill="#FFFFFF" d="M1001.765,695.803c-1.665,13.387,12.276,18.597,12.276,18.597s14.793-1.636,16.458-15.023
		c1.665-13.387-11.352-26.026-11.352-26.026S1003.43,682.417,1001.765,695.803z"/>
	<path fill="#FFFFFF" d="M977.219,678.135c-10.281,8.734-3.535,22.002-3.535,22.002s12.003,8.8,22.284,0.065
		c10.281-8.734,9.241-26.849,9.241-26.849S987.499,669.4,977.219,678.135z"/>
	<path fill="#FFFFFF" d="M990.141,701.371c-7.386-6.163-15.889,0.189-15.889,0.189s-4.725,9.503,2.661,15.666
		c7.386,6.163,19.988,3.231,19.988,3.231S997.528,707.533,990.141,701.371z"/>
	<path fill="#FFFFFF" d="M854.547,860.423c19.92,3.055,28.293-17.542,28.293-17.542s-1.815-22.16-21.735-25.215
		s-39.347,15.847-39.347,15.847S834.627,857.368,854.547,860.423z"/>
	<path fill="#FFFFFF" d="M1038.641,739.629c-19.79-3.809-28.938,16.456-28.938,16.456s0.973,22.213,20.763,26.021
		c19.79,3.809,39.92-14.343,39.92-14.343S1058.43,743.437,1038.641,739.629z"/>
	<path fill="#FFFFFF" d="M1140.219,660.716c-19.483-5.151-29.994,14.442-29.994,14.442s-0.546,22.227,18.937,27.379
		c19.483,5.151,40.806-11.583,40.806-11.583S1159.702,665.867,1140.219,660.716z"/>
	<path fill="#FFFFFF" d="M1063.138,691.507c0,0,0.45,0.1,1.238,0.274c0.776,0.17,1.89,0.411,3.248,0.679
		c1.352,0.284,2.937,0.569,4.637,0.886c1.7,0.317,3.52,0.591,5.343,0.899c0.913,0.127,1.825,0.254,2.724,0.38
		c0.899,0.119,1.787,0.26,2.645,0.352c1.722,0.174,3.328,0.336,4.706,0.475c2.767,0.144,4.612,0.24,4.612,0.24l0.054,0.809
		c0,0-1.862,0.221-4.654,0.551c-1.404,0.097-3.042,0.211-4.797,0.332c-0.88,0.055-1.785,0.066-2.709,0.102
		c-0.924,0.029-1.864,0.058-2.802,0.088c-1.873,0.004-3.756,0.043-5.516,0.017c-1.76-0.025-3.406-0.039-4.816-0.091
		c-1.407-0.036-2.593-0.086-3.426-0.125c-0.82-0.039-1.289-0.062-1.289-0.062L1063.138,691.507z"/>
	<path fill="#FFFFFF" d="M945.739,728.611c0,0,0.62-0.526,1.707-1.447c0.543-0.46,1.202-1.02,1.958-1.661
		c0.744-0.644,1.637-1.358,2.513-2.161c0.88-0.803,1.833-1.674,2.841-2.594c0.506-0.461,1.025-0.935,1.556-1.42
		c0.517-0.506,1.045-1.022,1.583-1.548c1.072-1.059,2.179-2.153,3.305-3.265c1.094-1.149,2.205-2.315,3.316-3.482
		c1.119-1.163,2.179-2.386,3.256-3.56c1.075-1.174,2.116-2.352,3.117-3.5c2.005-2.296,3.877-4.439,5.482-6.276
		c3.224-3.671,5.373-6.118,5.373-6.118l0.73,0.58c0,0-1.86,2.667-4.65,6.668c-1.392,2.008-3.016,4.35-4.756,6.859
		c-0.87,1.257-1.778,2.551-2.727,3.854c-0.95,1.301-1.878,2.649-2.877,3.952c-0.994,1.309-1.987,2.617-2.966,3.906
		c-1.019,1.261-2.022,2.502-2.992,3.703c-0.49,0.599-0.971,1.189-1.443,1.766c-0.494,0.564-0.977,1.116-1.447,1.653
		c-0.944,1.077-1.836,2.095-2.659,3.034c-0.825,0.942-1.601,1.717-2.279,2.451c-0.68,0.722-1.273,1.351-1.761,1.869
		c-0.977,1.036-1.535,1.628-1.535,1.628L945.739,728.611z"/>
	<path fill="#FFFFFF" d="M822.923,703.086c0,0-0.053-0.458-0.146-1.26c-0.093-0.789-0.23-1.92-0.42-3.291
		c-0.174-1.37-0.422-2.961-0.679-4.672c-0.257-1.71-0.593-3.519-0.898-5.343c-0.178-0.904-0.356-1.808-0.532-2.698
		c-0.182-0.889-0.339-1.774-0.532-2.615c-0.399-1.684-0.771-3.255-1.09-4.602c-0.769-2.662-1.282-4.437-1.282-4.437l0.747-0.315
		c0,0,0.817,1.687,2.043,4.218c0.551,1.295,1.194,2.805,1.883,4.424c0.339,0.814,0.646,1.665,0.982,2.527
		c0.33,0.864,0.665,1.742,1,2.62c0.617,1.769,1.269,3.535,1.82,5.206c0.552,1.671,1.078,3.232,1.489,4.581
		c0.427,1.341,0.767,2.478,1.003,3.278c0.231,0.788,0.363,1.239,0.363,1.239L822.923,703.086z"/>
	<path fill="#FFFFFF" d="M983.388,764.57c0,0,0.566-0.173,1.556-0.474c0.972-0.298,2.365-0.732,4.05-1.291
		c1.688-0.536,3.634-1.223,5.73-1.947c2.097-0.723,4.295-1.577,6.523-2.391c1.096-0.44,2.192-0.881,3.271-1.314
		c1.076-0.442,2.154-0.85,3.167-1.296c2.015-0.908,3.914-1.746,5.53-2.49c3.159-1.628,5.265-2.714,5.265-2.714l0.612,0.893
		c0,0-1.914,1.463-4.784,3.657c-1.48,1.031-3.227,2.207-5.1,3.488c-0.94,0.632-1.939,1.228-2.941,1.866
		c-1.008,0.63-2.032,1.27-3.056,1.91c-2.08,1.211-4.147,2.47-6.122,3.572c-1.974,1.103-3.816,2.147-5.421,2.992
		c-1.59,0.863-2.945,1.566-3.9,2.057c-0.94,0.481-1.477,0.755-1.477,0.755L983.388,764.57z"/>
	<path fill="#FFFFFF" d="M848.958,759.267c0,0-0.57-0.184-1.568-0.505c-1.011-0.328-2.45-0.8-4.148-1.389
		c-1.708-0.571-3.682-1.291-5.797-2.051c-2.115-0.757-4.349-1.646-6.586-2.489c-1.11-0.454-2.22-0.909-3.313-1.356
		c-1.089-0.455-2.166-0.876-3.195-1.33c-2.045-0.927-3.954-1.793-5.591-2.535c-3.195-1.638-5.325-2.731-5.325-2.731l0.42-0.932
		c0,0,2.25,0.711,5.625,1.778c1.71,0.451,3.704,0.977,5.842,1.541c1.069,0.271,2.193,0.504,3.322,0.766
		c1.131,0.254,2.279,0.512,3.428,0.77c2.318,0.452,4.616,0.945,6.792,1.332c2.175,0.39,4.198,0.763,5.942,1.034
		c1.744,0.293,3.184,0.509,4.189,0.657c1.021,0.148,1.604,0.233,1.604,0.233L848.958,759.267z"/>
	<path fill="#FFFFFF" d="M922.002,746.814c0,0-0.077-0.476-0.212-1.309c-0.136-0.847-0.323-2.053-0.52-3.486
		c-0.215-1.433-0.414-3.114-0.639-4.908c-0.222-1.795-0.395-3.721-0.601-5.634c-0.073-0.962-0.147-1.925-0.219-2.872
		c-0.064-0.948-0.159-1.872-0.193-2.778c-0.067-1.812-0.147-3.492-0.183-4.935c0.035-2.887,0.058-4.812,0.058-4.812l0.848-0.035
		c0,0,0.305,1.872,0.761,4.679c0.281,1.395,0.645,3.016,1.014,4.746c0.185,0.865,0.436,1.754,0.658,2.657
		c0.23,0.902,0.463,1.818,0.696,2.734c0.525,1.823,1.016,3.646,1.534,5.343c0.522,1.696,0.995,3.278,1.444,4.622
		c0.433,1.352,0.809,2.458,1.074,3.227c0.271,0.782,0.426,1.229,0.426,1.229L922.002,746.814z"/>
	<path fill="#FFFFFF" d="M998.344,737.993c0,0,0.23-0.524,0.634-1.442c0.411-0.933,1.003-2.256,1.732-3.811
		c0.711-1.568,1.599-3.371,2.533-5.304c0.939-1.932,2.01-3.964,3.042-6.002c0.549-1.006,1.098-2.013,1.638-3.003
		c0.549-0.986,1.051-1.968,1.604-2.892c0.549-0.923,1.079-1.816,1.582-2.662c0.508-0.843,0.965-1.647,1.425-2.371
		c1.901-2.854,3.168-4.756,3.168-4.756l0.87,0.515c0,0-0.905,2.062-2.263,5.154c-0.323,0.778-0.631,1.644-0.979,2.545
		c-0.342,0.902-0.703,1.854-1.076,2.839c-0.376,0.981-0.698,2.029-1.061,3.073c-0.354,1.047-0.713,2.11-1.072,3.174
		c-0.653,2.156-1.341,4.29-1.92,6.314c-0.574,2.027-1.124,3.909-1.542,5.538c-0.441,1.627-0.78,2.972-1.01,3.91
		c-0.234,0.954-0.367,1.5-0.367,1.5L998.344,737.993z"/>
	<path fill="#FFFFFF" d="M941.737,684.525c0,0-0.077-0.476-0.212-1.309c-0.136-0.847-0.323-2.053-0.52-3.486
		c-0.215-1.433-0.414-3.114-0.639-4.908c-0.222-1.795-0.396-3.721-0.601-5.634c-0.073-0.962-0.147-1.925-0.219-2.872
		c-0.064-0.948-0.159-1.872-0.193-2.778c-0.067-1.812-0.147-3.492-0.183-4.935c0.035-2.887,0.058-4.812,0.058-4.812l0.848-0.035
		c0,0,0.305,1.872,0.761,4.679c0.281,1.395,0.645,3.016,1.014,4.746c0.185,0.865,0.436,1.754,0.658,2.657
		c0.23,0.902,0.463,1.818,0.696,2.734c0.525,1.823,1.016,3.646,1.534,5.343c0.522,1.696,0.995,3.278,1.444,4.622
		c0.433,1.352,0.809,2.458,1.075,3.227c0.271,0.782,0.426,1.229,0.426,1.229L941.737,684.525z"/>
	<path fill="#FFFFFF" d="M1037.046,702.849c0,0,0.147-0.459,0.404-1.263c0.263-0.817,0.642-1.977,1.116-3.343
		c0.458-1.375,1.043-2.963,1.655-4.664c0.616-1.7,1.334-3.496,2.019-5.294c0.371-0.891,0.742-1.782,1.107-2.66
		c0.372-0.874,0.707-1.741,1.087-2.564c0.761-1.645,1.452-3.18,2.073-4.482c1.34-2.558,2.233-4.263,2.233-4.263l0.772,0.354
		c0,0-0.577,1.806-1.442,4.516c-0.382,1.37-0.792,2.981-1.248,4.69c-0.227,0.855-0.406,1.761-0.618,2.667
		c-0.204,0.908-0.411,1.83-0.619,2.753c-0.358,1.863-0.748,3.71-1.055,5.457c-0.304,1.748-0.599,3.373-0.808,4.774
		c-0.227,1.402-0.393,2.558-0.505,3.364c-0.113,0.82-0.177,1.289-0.177,1.289L1037.046,702.849z"/>
	<path fill="#FFFFFF" d="M909.725,879.193c0,0-0.628-0.695-1.726-1.91c-1.107-1.231-2.684-2.987-4.53-5.105
		c-0.924-1.062-1.943-2.193-2.985-3.423c-1.048-1.224-2.152-2.514-3.295-3.849c-2.294-2.658-4.653-5.582-7.051-8.452
		c-1.187-1.449-2.34-2.932-3.491-4.372c-1.144-1.445-2.269-2.867-3.358-4.243c-2.104-2.812-4.068-5.437-5.751-7.687
		c-3.174-4.636-5.29-7.727-5.29-7.727l1.162-0.879c0,0,2.531,2.701,6.327,6.753c1.981,1.944,4.293,4.212,6.769,6.641
		c1.272,1.182,2.586,2.402,3.921,3.643c1.341,1.233,2.681,2.502,4.058,3.739c2.782,2.45,5.509,4.938,8.15,7.191
		c1.314,1.13,2.585,2.223,3.79,3.259c1.199,1.041,2.364,1.992,3.421,2.887c2.121,1.791,3.896,3.245,5.136,4.261
		c1.256,1.023,1.974,1.607,1.974,1.607L909.725,879.193z"/>
	<path fill="#FFFFFF" d="M797.986,689.32c0,0-0.435-0.239-1.196-0.657c-0.775-0.426-1.87-1.04-3.155-1.789
		c-1.298-0.734-2.783-1.642-4.378-2.597c-0.801-0.47-1.608-1-2.436-1.516c-0.825-0.521-1.662-1.051-2.5-1.58
		c-0.824-0.552-1.649-1.105-2.46-1.648c-0.806-0.552-1.616-1.056-2.365-1.613c-0.753-0.546-1.48-1.073-2.17-1.573
		c-0.685-0.505-1.345-0.958-1.93-1.419c-2.31-1.862-3.85-3.104-3.85-3.104l0.516-0.716c0,0,1.708,0.94,4.269,2.351
		c0.642,0.344,1.367,0.674,2.116,1.045c0.751,0.365,1.544,0.75,2.364,1.148c0.812,0.407,1.694,0.761,2.564,1.155
		c0.875,0.386,1.764,0.777,2.653,1.169c0.9,0.368,1.801,0.737,2.687,1.099c0.888,0.356,1.749,0.728,2.605,1.045
		c1.704,0.648,3.282,1.269,4.655,1.752c1.369,0.503,2.502,0.898,3.291,1.166c0.805,0.273,1.264,0.429,1.264,0.429L797.986,689.32z"
		/>
</g>
</svg>
