<svg xmlns="http://www.w3.org/2000/svg" width="1920" height="1080" viewBox="0 0 1920 1080"><path opacity=".8" fill="#FFF" d="M328.3 865.684c11.72 11.722 27.3 2.14 27.3 2.14s9.583-15.58-2.14-27.302-33.805-8.644-33.805-8.644-3.078 22.083 8.644 33.806zM523.838 282.162c11.722 11.722 27.3 2.14 27.3 2.14S560.723 268.72 549 257s-33.806-8.644-33.806-8.644-3.078 22.083 8.644 33.806zM176.465 1011.32c11.722 11.72 27.3 2.138 27.3 2.138s9.584-15.58-2.138-27.3-33.806-8.645-33.806-8.645-3.077 22.083 8.645 33.806zM1703.158 628.162c11.722 11.722 27.3 2.14 27.3 2.14s9.584-15.58-2.138-27.302-33.806-8.644-33.806-8.644-3.08 22.083 8.644 33.806zM1233.17 733.174c-11.72 11.722-27.3 2.14-27.3 2.14s-9.583-15.58 2.14-27.302 33.805-8.644 33.805-8.644 3.078 22.083-8.644 33.806zM1797 417.958c-11.722 11.722-27.3 2.14-27.3 2.14s-9.584-15.58 2.138-27.302 33.806-8.644 33.806-8.644 3.078 22.083-8.644 33.806zM1567.16 340.002c-11.723 11.722-27.302 2.14-27.302 2.14s-9.583-15.58 2.14-27.302 33.805-8.644 33.805-8.644 3.078 22.084-8.644 33.806zM397.68 397.958c-11.722 11.722-27.3 2.14-27.3 2.14s-9.584-15.58 2.138-27.302 33.806-8.644 33.806-8.644 3.08 22.083-8.644 33.806zM128.615 179.3c-11.722 11.722-27.3 2.14-27.3 2.14s-9.584-15.58 2.138-27.302 33.806-8.644 33.806-8.644 3.078 22.084-8.645 33.806zM1483.474 829.632c-11.722 11.722-27.3 2.14-27.3 2.14s-9.584-15.58 2.138-27.302 33.806-8.644 33.806-8.644 3.078 22.084-8.644 33.806zM1357.9 143.25c-11.722 11.72-27.3 2.138-27.3 2.138s-9.584-15.58 2.138-27.3 33.806-8.645 33.806-8.645 3.08 22.084-8.644 33.806zM1377.9 1051.32c-11.722 11.72-27.3 2.138-27.3 2.138s-9.584-15.58 2.138-27.3c11.722-11.723 33.806-8.645 33.806-8.645s3.08 22.083-8.644 33.806zM128.615 501.12c-11.722 11.722-27.3 2.14-27.3 2.14s-9.584-15.58 2.138-27.302 33.806-8.644 33.806-8.644 3.078 22.083-8.645 33.806zM578.602 697.122c11.722 11.722 27.3 2.14 27.3 2.14s9.584-15.58-2.138-27.302-33.806-8.644-33.806-8.644-3.078 22.084 8.644 33.806zM156.465 753.174c11.722 11.722 27.3 2.14 27.3 2.14s9.584-15.58-2.138-27.302-33.806-8.644-33.806-8.644-3.077 22.083 8.645 33.806zM375.7 133.075c11.72 11.722 27.3 2.14 27.3 2.14s9.583-15.58-2.14-27.302-33.805-8.644-33.805-8.644-3.078 22.082 8.644 33.805zM1315.92 481.12c11.72 11.722 27.3 2.14 27.3 2.14s9.583-15.58-2.14-27.302-33.805-8.644-33.805-8.644-3.078 22.083 8.644 33.806zM1683.158 143.25c11.722 11.72 27.3 2.138 27.3 2.138s9.584-15.58-2.138-27.3-33.806-8.645-33.806-8.645-3.08 22.084 8.644 33.806z"/><head><style>.pkt_added {text-decoration:none !important;}</style></head></svg>