<?xml version="1.0" standalone="no"?>
<!DOCTYPE svg PUBLIC "-//W3C//DTD SVG 20010904//EN"
 "http://www.w3.org/TR/2001/REC-SVG-20010904/DTD/svg10.dtd">
<svg version="1.0" xmlns="http://www.w3.org/2000/svg"
 width="700.000000pt" height="700.000000pt" viewBox="0 0 700.000000 700.000000"
 preserveAspectRatio="xMidYMid meet">
<metadata>
Created by potrace 1.11, written by Peter Selinger 2001-2013
</metadata>
<g transform="translate(0.000000,700.000000) scale(0.100000,-0.100000)"
fill="#000000" stroke="none">
<path d="M3250 6994 c-463 -42 -865 -147 -1248 -330 -998 -474 -1712 -1385
-1932 -2462 -54 -266 -64 -378 -64 -702 0 -324 10 -436 64 -702 280 -1372
1356 -2448 2728 -2728 266 -54 378 -64 702 -64 324 0 436 10 702 64 1372 280
2448 1356 2728 2728 54 266 64 378 64 702 0 324 -10 436 -64 702 -280 1372
-1356 2448 -2728 2728 -238 48 -373 61 -652 65 -140 1 -275 1 -300 -1z m288
-2420 c100 -22 170 -61 243 -133 102 -102 155 -226 179 -421 16 -135 13 -935
-5 -1052 -55 -366 -254 -548 -597 -548 -289 1 -477 128 -562 380 -42 126 -47
188 -53 585 -6 428 5 648 37 775 66 260 234 407 489 429 95 8 187 3 269 -15z
m-1825 -41 c8 -16 110 -257 227 -538 117 -280 217 -514 222 -520 4 -5 8 237 8
538 l0 547 175 0 175 0 0 -1050 0 -1050 -147 0 -148 0 -224 571 c-124 313
-228 572 -233 575 -4 3 -8 -254 -8 -570 l0 -576 -180 0 -180 0 0 1050 0 1050
150 0 149 0 14 -27z m2784 -433 c85 -912 86 -927 95 -890 4 19 44 319 88 665
44 347 83 640 85 653 5 22 8 22 160 22 118 0 155 -3 155 -13 0 -33 169 -1340
174 -1345 3 -3 6 2 6 11 0 9 29 312 65 672 36 361 65 660 65 666 0 5 74 9 181
9 l181 0 -6 -32 c-6 -39 -286 -2040 -286 -2051 0 -4 -81 -7 -179 -7 -163 0
-180 2 -184 18 -3 9 -43 313 -89 674 -46 362 -85 658 -88 658 -3 0 -43 -304
-89 -675 l-85 -675 -180 2 -181 3 -142 1025 c-78 564 -142 1033 -143 1043 0
16 13 17 178 15 l177 -3 42 -445z"/>
<path d="M3285 4256 c-39 -17 -59 -41 -87 -101 l-23 -50 0 -600 0 -600 30 -60
c39 -78 86 -108 163 -102 77 5 134 55 164 146 17 50 24 1089 8 1181 -15 86
-52 152 -100 179 -43 24 -109 27 -155 7z"/>
</g>
</svg>
