<svg class="alloy-svg-width" xmlns="http://www.w3.org/2000/svg" width="1920" height="1080" viewBox="0 0 1920 1080"><path fill="#FFF" d="M30.002 281.186H58.78v139.69H30zM30.002 426.973H58.78V530.74H30z"/><path fill="none" stroke="#ACC" stroke-width="5.466" stroke-linecap="square" stroke-miterlimit="10" d="M44.39 420.884V384.96"/><path fill="#FFF" d="M97.825 376.15h28.777v44.726H97.825zM97.825 426.973h28.777v9.132H97.825z"/><path fill="none" stroke="#ACC" stroke-width="5.466" stroke-linecap="square" stroke-miterlimit="10" d="M112.213 420.884V385.29"/><path fill="#FFF" d="M165.648 334.075h28.777v86.8h-28.777zM165.648 426.973h28.777v29.877h-28.777z"/><path fill="none" stroke="#ACC" stroke-width="5.466" stroke-linecap="square" stroke-miterlimit="10" d="M180.036 420.884V363.96"/><path fill="#FFF" d="M233.47 390.9h28.778v29.976H233.47zM233.47 426.973h28.778V476.7H233.47z"/><path fill="none" stroke="#ACC" stroke-width="5.466" stroke-linecap="square" stroke-miterlimit="10" d="M247.86 446.716v-19.75"/><path fill="#FFF" d="M301.294 193.136h28.777v227.74h-28.776zM301.294 426.973h28.777v577.913h-28.776z"/><path fill="none" stroke="#ACC" stroke-width="5.466" stroke-linecap="square" stroke-miterlimit="10" d="M315.682 777.14V426.967"/><path fill="#FFF" d="M369.117 407.637h28.777v13.24h-28.777zM369.117 426.973h28.777v3.974h-28.777z"/><path fill="none" stroke="#ACC" stroke-width="5.466" stroke-linecap="square" stroke-miterlimit="10" d="M383.505 420.884v-9.265"/><path fill="#FFF" d="M436.94 389.88h28.776v30.996H436.94zM436.94 426.973h28.776v32.732H436.94z"/><path fill="none" stroke="#ACC" stroke-width="5.466" stroke-linecap="square" stroke-miterlimit="10" d="M451.328 420.884v-1.89"/><path fill="#FFF" d="M504.762 280.18h28.777v140.696H504.76zM504.762 426.973h28.777v38.666H504.76z"/><path fill="none" stroke="#ACC" stroke-width="5.466" stroke-linecap="square" stroke-miterlimit="10" d="M519.15 420.884v-102.03"/><path fill="#FFF" d="M572.585 192.064h28.777v228.812h-28.777zM572.585 426.973h28.777v220.333h-28.777z"/><path fill="none" stroke="#ACC" stroke-width="5.466" stroke-linecap="square" stroke-miterlimit="10" d="M586.974 420.884v-8.48"/><path fill="#FFF" d="M640.408 153.582h28.777v267.294h-28.777zM640.408 426.973h28.777v415.795h-28.777z"/><path fill="none" stroke="#ACC" stroke-width="5.466" stroke-linecap="square" stroke-miterlimit="10" d="M655.33 575.468v-148.5"/><g><path fill="#FFF" d="M708.23 409.29h28.778v11.586H708.23zM708.23 426.973h28.778v8.522H708.23z"/><path fill="none" stroke="#ACC" stroke-width="5.466" stroke-linecap="square" stroke-miterlimit="10" d="M722.62 418v2.884"/></g><g><path fill="#FFF" d="M776.054 208.786h28.777v212.09h-28.776zM776.054 426.973h28.777V742.05h-28.776z"/><path fill="none" stroke="#ACC" stroke-width="5.466" stroke-linecap="square" stroke-miterlimit="10" d="M790.443 529.953V426.967"/></g><g><path fill="#FFF" d="M843.877 415.463h28.777v5.413h-28.777zM843.877 426.973h28.777v3.186h-28.777z"/><path fill="none" stroke="#ACC" stroke-width="5.466" stroke-linecap="square" stroke-miterlimit="10" d="M858.266 420.884v-2.064"/></g><g><path fill="#FFF" d="M911.7 399.812h28.777v21.064H911.7zM911.7 426.973h28.777v5.354H911.7z"/><path fill="none" stroke="#ACC" stroke-width="5.466" stroke-linecap="square" stroke-miterlimit="10" d="M926.09 420.884V405.34"/></g><g><path fill="#FFF" d="M979.523 383.478h28.777v37.398h-28.777zM979.523 426.973h28.777v7.63h-28.777z"/><path fill="none" stroke="#ACC" stroke-width="5.466" stroke-linecap="square" stroke-miterlimit="10" d="M993.91 420.884v-29.527"/></g><g><path fill="#FFF" d="M1047.346 386.888h28.777v33.988h-28.777zM1047.346 426.973h28.777v4.88h-28.777z"/><path fill="none" stroke="#ACC" stroke-width="5.466" stroke-linecap="square" stroke-miterlimit="10" d="M1061.734 420.884v-29.022"/></g><g><path fill="#FFF" d="M1115.17 289.595h28.776v131.28h-28.777zM1115.17 426.973h28.776v19.747h-28.777z"/><path fill="none" stroke="#ACC" stroke-width="5.466" stroke-linecap="square" stroke-miterlimit="10" d="M1129.557 420.884V309.35"/></g><g><path fill="#FFF" d="M1182.992 415.82h28.777v5.056h-28.778zM1182.992 426.973h28.777v1.51h-28.778z"/><path fill="none" stroke="#ACC" stroke-width="5.466" stroke-linecap="square" stroke-miterlimit="10" d="M1197.38 420.884v-3.845"/></g><g><path fill="#94E" d="M1250.815 380.93h28.777v39.946h-28.777zM1250.815 426.973h28.777v166.033h-28.777z"/><path fill="none" stroke="#ACC" stroke-width="5.466" stroke-linecap="square" stroke-miterlimit="10" d="M1264.645 553.053V426.967"/></g><g><path fill="#FFF" d="M1318.638 389.69h28.777v31.186h-28.777zM1318.638 426.973h28.777v56.903h-28.777z"/><path fill="none" stroke="#ACC" stroke-width="5.466" stroke-linecap="square" stroke-miterlimit="10" d="M1333.026 452.686v-25.72"/></g><g><path fill="#FFF" d="M1386.46 75.114h28.777v345.762h-28.777zM1386.46 426.973h28.777v78.422h-28.777z"/><path fill="none" stroke="#ACC" stroke-width="5.466" stroke-linecap="square" stroke-miterlimit="10" d="M1400.85 420.884v-267.34"/></g><g><path fill="#FFF" d="M1454.283 322.855h28.777v98.02h-28.777zM1454.283 426.973h28.777v34.66h-28.777z"/><path fill="none" stroke="#ACC" stroke-width="5.466" stroke-linecap="square" stroke-miterlimit="10" d="M1468.672 420.884v-63.36"/></g><g><path fill="#FFF" d="M1522.106 303.007h28.777v117.87h-28.777zM1522.106 426.973h28.777v28.93h-28.777z"/><path fill="none" stroke="#ACC" stroke-width="5.466" stroke-linecap="square" stroke-miterlimit="10" d="M1536.495 420.884v-88.938"/></g><g><path fill="#FFF" d="M1589.93 398.22h28.776v22.656h-28.777zM1589.93 426.973h28.776v7.634h-28.777z"/><path fill="none" stroke="#ACC" stroke-width="5.466" stroke-linecap="square" stroke-miterlimit="10" d="M1604.318 420.884v-15.022"/></g><g><path fill="#FFF" d="M1657.752 387.784h28.777v33.092h-28.778zM1657.752 426.973h28.777v14.282h-28.778z"/><path fill="none" stroke="#ACC" stroke-width="5.466" stroke-linecap="square" stroke-miterlimit="10" d="M1672.14 420.884v-18.402"/></g><g><path fill="#FFF" d="M1725.575 399.817h28.777v21.06h-28.777zM1725.575 426.973h28.777v37.758h-28.777z"/><path fill="none" stroke="#ACC" stroke-width="5.466" stroke-linecap="square" stroke-miterlimit="10" d="M1739.964 443.667v-16.7"/></g><g><path fill="#FFF" d="M1793.398 387.342h28.777v33.534h-28.777zM1793.398 426.973h28.777v85.156h-28.777z"/><path fill="none" stroke="#ACC" stroke-width="5.466" stroke-linecap="square" stroke-miterlimit="10" d="M1807.787 478.59v-51.623"/></g><g><path fill="#FFF" d="M1861.22 282.368H1890v138.508h-28.777zM1861.22 426.973H1890V706.03h-28.777z"/><path fill="none" stroke="#ACC" stroke-width="5.466" stroke-linecap="square" stroke-miterlimit="10" d="M1875.61 567.516v-140.55"/></g><g><path fill="#ACC" d="M1393.172 206.954h-257.054c-5.755 0-10.464 4.71-10.464 10.464v131.264c0 5.755 4.71 10.464 10.464 10.464h108.93l19.597 33.942 19.596-33.942h108.932c5.755 0 10.464-4.71 10.464-10.464V217.418c0-5.755-4.71-10.464-10.464-10.464z"/><g fill="#FFF"><path d="M1192.235 257.873v-18.328h-3.75v-2.672h10.5v2.672h-3.75v18.328h-3zM1200.344 257.873v-21h3v7.617c.445-.406.81-.717 1.09-.932s.67-.418 1.166-.61 1.025-.286 1.588-.286c.64 0 1.16.234 1.56.703s.597 1.043.597 1.723v12.785h-3v-11.25c0-.516-.064-.895-.193-1.137s-.408-.363-.838-.363c-.61 0-1.266.293-1.97.88v11.87h-3zM1216.21 258.084c-.726 0-1.356-.125-1.892-.375s-.96-.577-1.277-.98-.57-.918-.767-1.547-.33-1.258-.404-1.887-.12-1.36-.136-2.197c-.023-.657-.023-1.313 0-1.97.023-.78.076-1.475.158-2.08s.225-1.193.428-1.764.467-1.04.79-1.406.75-.662 1.278-.885 1.143-.334 1.846-.334c.64 0 1.205.085 1.693.253s.895.422 1.22.762.593.717.808 1.13.377.917.486 1.507.187 1.17.23 1.74.064 1.227.064 1.97v.35h-6v1.23c-.016.29-.018.59-.006.897s.025.61.04.907.06.58.13.85.156.506.258.71.244.362.428.48.4.175.65.175c.312 0 .57-.06.773-.182s.354-.303.45-.545.167-.484.206-.727.062-.547.07-.914v-.633h2.977v.6c-.07 1.6-.465 2.81-1.184 3.632s-1.823 1.232-3.315 1.232zm-1.475-9.21h2.977v-.903c-.008-.397-.03-.745-.07-1.042s-.107-.594-.205-.89-.248-.524-.45-.68-.454-.235-.75-.235c-.306 0-.562.082-.77.246s-.358.4-.456.708-.165.61-.204.908-.062.652-.07 1.066v.82zM1227.907 257.873v-21h2.25l5.25 12.984v-12.984h3v21h-2.133l-5.367-13.97v13.97h-3zM1245.52 258.084c-.727 0-1.357-.125-1.893-.375s-.96-.577-1.277-.98-.572-.918-.768-1.547-.33-1.258-.404-1.887-.12-1.36-.135-2.197c-.023-.657-.023-1.313 0-1.97.023-.78.076-1.475.158-2.08s.226-1.193.43-1.764.466-1.04.79-1.406.75-.662 1.277-.885 1.143-.334 1.846-.334c.64 0 1.205.085 1.693.253s.895.422 1.22.762.593.717.808 1.13.377.917.486 1.507.186 1.17.23 1.74.063 1.227.063 1.97v.35h-6v1.23c-.016.29-.018.59-.006.897s.025.61.04.907.06.58.13.85.156.506.258.71.244.362.428.48.4.175.65.175c.312 0 .57-.06.773-.182s.354-.303.45-.545.167-.484.206-.727.062-.547.07-.914v-.633h2.977v.6c-.07 1.6-.466 2.81-1.185 3.632s-1.823 1.232-3.315 1.232zm-1.477-9.21h2.977v-.903c-.008-.397-.03-.745-.07-1.042s-.107-.594-.205-.89-.248-.524-.45-.68-.454-.235-.75-.235c-.306 0-.562.082-.77.246s-.358.4-.456.708-.167.61-.206.908-.062.652-.07 1.066v.82zM1256.37 258.084c-1.18 0-2.036-.3-2.57-.902s-.812-1.512-.827-2.73v-9.328h-1.5v-2.25h1.5v-5.25h3v5.25h2.25v2.25h-2.25v8.754c0 .602.082 1.043.246 1.324s.495.422.995.422c.22 0 .555-.04 1.008-.117v2.438c-.75.092-1.367.14-1.852.14zM1260.414 257.873v-21h3v7.617c.445-.406.81-.717 1.09-.932s.67-.418 1.166-.61 1.025-.286 1.588-.286c.64 0 1.16.234 1.56.703s.597 1.043.597 1.723v12.785h-3v-11.25c0-.516-.064-.895-.193-1.137s-.408-.363-.838-.363c-.61 0-1.266.293-1.97.88v11.87h-3zM1276.282 258.084c-.727 0-1.357-.125-1.893-.375s-.962-.577-1.278-.98-.572-.918-.768-1.547-.33-1.258-.404-1.887-.12-1.36-.135-2.197c-.023-.657-.023-1.313 0-1.97.023-.78.076-1.475.158-2.08s.225-1.193.428-1.764.468-1.04.792-1.406.75-.662 1.277-.885 1.142-.334 1.845-.334c.64 0 1.205.085 1.693.253s.895.422 1.22.762.593.717.808 1.13.377.917.486 1.507.186 1.17.23 1.74.063 1.227.063 1.97v.35h-6v1.23c-.016.29-.018.59-.006.897s.024.61.04.907.06.58.13.85.155.506.257.71.244.362.428.48.4.175.65.175c.312 0 .57-.06.773-.182s.354-.303.45-.545.167-.484.206-.727.062-.547.07-.914v-.633h2.977v.6c-.07 1.6-.464 2.81-1.183 3.632s-1.823 1.232-3.315 1.232zm-1.477-9.21h2.977v-.903c-.008-.397-.03-.745-.07-1.042s-.107-.594-.205-.89-.248-.524-.45-.68-.454-.235-.75-.235c-.306 0-.562.082-.77.246s-.358.4-.456.708-.165.61-.204.908-.062.652-.07 1.066v.82zM1282.973 257.873v-15h3v2.004c.305-.594.748-1.11 1.33-1.553s1.23-.662 1.94-.662c.022 0 .183.016.48.047v3.315c-.556-.22-1.11-.328-1.665-.328-.625 0-1.13.188-1.512.562s-.574.87-.574 1.487v10.125h-3zM1291.106 257.873v-21h3v21h-3zM1299.39 258.084c-.835 0-1.544-.36-2.126-1.084s-.873-1.537-.873-2.443c0-.727.124-1.387.37-1.98s.506-1.068.78-1.424.73-.723 1.37-1.102 1.125-.638 1.453-.778.898-.37 1.71-.69c.142-.056.247-.1.317-.13v-1.078c0-.758-.105-1.346-.316-1.764s-.605-.627-1.184-.627c-.516 0-.885.178-1.107.533s-.35.846-.38 1.47c-.01.087-.013.216-.013.388h-3c.016-1.438.418-2.582 1.207-3.434s1.887-1.277 3.293-1.277c1.398 0 2.498.432 3.3 1.295s1.2 2.002 1.2 3.416v6.75c0 1.562.13 2.812.387 3.75h-2.988l-.4-2.25c-.155.312-.282.555-.38.727s-.24.386-.428.64-.375.45-.562.586-.422.256-.703.357-.59.15-.926.15zm1.5-2.46c.212 0 .417-.063.616-.19s.35-.245.45-.362.228-.273.376-.47c.023-.038.043-.065.06-.08v-4.15c-.126.087-.333.22-.622.4s-.52.325-.69.438-.38.27-.622.47-.43.39-.562.573-.25.408-.352.674-.152.543-.152.832c0 1.242.5 1.863 1.5 1.863zM1307.97 257.873v-15h3v1.617c.444-.406.808-.717 1.09-.932s.67-.418 1.165-.61 1.025-.286 1.588-.286c.64 0 1.16.234 1.56.703s.597 1.043.597 1.723v12.785h-3v-11.25c0-.523-.074-.904-.223-1.143s-.45-.357-.902-.357c-.258 0-.514.053-.768.158s-.443.204-.568.294-.306.232-.54.428v11.87h-3zM1323.098 258.084c-.664 0-1.244-.188-1.74-.562s-.88-.883-1.148-1.523-.47-1.308-.604-2-.215-1.435-.246-2.23c-.016-.368-.016-1.267 0-2.696.016-.516.04-.982.07-1.4s.084-.854.158-1.307.168-.854.28-1.2.265-.685.452-1.01.406-.59.656-.802.55-.38.902-.504.742-.187 1.172-.187c.336 0 .65.045.943.135s.572.23.838.422.48.36.64.51.37.36.627.633v-7.477h3v20.988h-3v-1.36c-.453.47-.914.85-1.383 1.138s-1.007.432-1.616.432zm.75-2.46c.727 0 1.477-.157 2.25-.47v-9.434c-.672-.398-1.422-.598-2.25-.598-.297 0-.547.072-.75.217s-.355.354-.457.632-.175.562-.222.855-.074.64-.082 1.037c-.03 1.75-.03 3.137 0 4.16.008.5.035.945.082 1.336s.123.768.23 1.13.26.644.462.84.45.293.738.293zM1335.836 258.084c-1.234 0-2.225-.367-2.97-1.102s-1.257-1.688-1.53-2.86l2.25-.75c.54 1.5 1.29 2.25 2.25 2.25.477 0 .846-.13 1.107-.392s.393-.63.393-1.107c0-.695-.25-1.273-.75-1.734l-3-2.25c-.336-.228-.617-.44-.844-.64s-.457-.443-.69-.732-.413-.613-.534-.973-.182-.75-.182-1.172c0-1.28.408-2.262 1.225-2.94s1.91-1.02 3.276-1.02c.648 0 1.234.103 1.758.31s.963.498 1.318.873.648.79.88 1.248.41.967.544 1.53l-2.25.75c-.11-.298-.22-.554-.328-.77s-.256-.446-.44-.696-.4-.443-.65-.58-.526-.205-.83-.205c-.478 0-.847.13-1.108.393s-.393.63-.393 1.107c0 .47.25.89.75 1.266l3 2.25c.336.265.623.52.86.767s.472.53.698.855.398.686.516 1.084.177.824.177 1.277c0 1.28-.408 2.262-1.225 2.94s-1.91 1.02-3.276 1.02zM1185.765 310.885v-3.938h12.875v3.938h-12.875zM1212.124 325.442c-1.258 0-2.4-.212-3.425-.636s-1.892-1.005-2.596-1.743-1.3-1.623-1.783-2.656c-.485-1.03-.837-2.146-1.056-3.342s-.328-2.465-.328-3.805v-11.812c0-1.504.09-2.895.267-4.174.178-1.277.485-2.502.923-3.67.438-1.17.998-2.164 1.682-2.984s1.562-1.47 2.635-1.948 2.3-.718 3.682-.718c2.953 0 5.223.838 6.81 2.512 1.585 1.676 2.378 4.023 2.378 7.045h-5.25c0-1.75-.284-3.06-.852-3.937s-1.595-1.312-3.085-1.312c-2.625 0-3.938 2.626-3.938 7.876v5.25c1.012-1.75 2.762-2.625 5.25-2.625 1.477 0 2.738.257 3.783.77 1.047.513 1.86 1.26 2.44 2.235.58.98 1.002 2.075 1.262 3.292s.39 2.618.39 4.204c0 1.724-.17 3.3-.513 4.728-.343 1.43-.87 2.71-1.58 3.846s-1.668 2.02-2.87 2.656c-1.204.634-2.612.952-4.226.952zm-1.927-4.86c.533.37 1.176.554 1.928.554s1.395-.185 1.928-.554.94-.882 1.22-1.538.482-1.35.605-2.082c.123-.73.185-1.527.185-2.39v-1.18c0-.265-.01-.645-.03-1.137-.02-.492-.05-.872-.083-1.138-.034-.268-.082-.605-.143-1.016-.062-.41-.14-.728-.236-.952-.095-.227-.214-.492-.358-.8-.143-.308-.31-.544-.502-.708s-.41-.328-.656-.492-.533-.28-.86-.35-.685-.102-1.067-.102c-1.695 0-3.008.875-3.938 2.625v5.25c0 .876.06 1.676.184 2.4s.324 1.415.604 2.07.685 1.173 1.22 1.542zM1225.72 330.323l-1.31-2.625c.942 0 1.615-.205 2.02-.615s.604-1.08.604-2.01h-2.625v-5.25h5.25c0 1.97-.022 3.623-.063 4.963-.027.738-.068 1.36-.123 1.866s-.164 1.008-.328 1.507-.383.895-.656 1.188-.64.53-1.097.708c-.46.178-1.016.267-1.672.267zM1242.004 325.442c-2.98 0-5.257-.837-6.83-2.512s-2.357-4.023-2.357-7.045v-1.312h5.25c0 .82.023 1.52.072 2.102.046.582.148 1.173.306 1.774s.373 1.083.646 1.445.656.66 1.148.892 1.08.35 1.764.35 1.27-.117 1.764-.35.875-.53 1.148-.892.488-.845.646-1.446c.156-.603.26-1.193.307-1.775.047-.58.07-1.28.07-2.102 0-2.105-.406-3.726-1.22-4.86s-2.156-1.702-4.03-1.702v-5.25c1.915 0 3.27-.392 4.062-1.18.793-.784 1.19-2.142 1.19-4.07 0-1.735-.288-3.044-.862-3.927-.574-.88-1.6-1.322-3.076-1.322-.684 0-1.27.117-1.764.35s-.875.53-1.148.892c-.273.363-.49.845-.646 1.446s-.26 1.193-.307 1.774c-.05.58-.073 1.28-.073 2.102h-5.25v-1.312c0-3.008.79-5.353 2.37-7.034 1.577-1.682 3.85-2.522 6.817-2.522 2.98 0 5.257.838 6.83 2.512 1.57 1.676 2.357 4.023 2.357 7.045 0 2.078-.464 3.783-1.394 5.117-.93 1.332-2.215 2.252-3.855 2.758 1.71.574 3.012 1.647 3.907 3.22s1.344 3.562 1.344 5.968c0 3.445-.737 6.118-2.214 8.02s-3.8 2.846-6.972 2.846zM1263.25 325.442c-3.268 0-5.6-.92-6.993-2.758s-2.092-4.543-2.092-8.11h5.25v.82c0 .696.023 1.302.072 1.813.047.514.143 1.04.287 1.58.143.54.34.978.594 1.312s.6.61 1.036.83.957.327 1.56.327c.478 0 .912-.058 1.3-.174.392-.116.726-.26 1.007-.432.28-.17.53-.42.75-.747s.4-.632.542-.912c.145-.28.264-.666.36-1.158s.166-.905.214-1.24c.048-.335.086-.807.113-1.415s.04-1.08.04-1.416v-1.506-.677c0-.588-.007-1.09-.02-1.508-.015-.417-.053-.868-.113-1.355-.062-.484-.147-.892-.257-1.22s-.26-.656-.45-.984-.425-.587-.698-.778-.612-.345-1.015-.462c-.404-.115-.858-.174-1.364-.174-.93 0-1.736.3-2.42.902s-1.183 1.312-1.497 2.133h-4.47v-19.81h16.24v5.25h-11.483l-.328 8.9c1.477-.875 3.227-1.312 5.25-1.312 1.19 0 2.238.182 3.148.543.908.364 1.657.86 2.245 1.488s1.07 1.408 1.446 2.338c.375.93.642 1.914.8 2.953s.235 2.193.235 3.465c0 1.572-.083 2.994-.247 4.266s-.458 2.496-.882 3.672-.977 2.16-1.66 2.953-1.576 1.425-2.676 1.897c-1.1.474-2.374.71-3.824.71zM1284.332 325.442c-3.227 0-5.567-.934-7.024-2.8-1.455-1.866-2.184-4.55-2.184-8.05 0-2.282.314-4.117.943-5.506.63-1.387 1.64-2.525 3.035-3.414-1.176-.89-2.044-1.982-2.604-3.28s-.84-2.927-.84-4.882c0-3.035.724-5.387 2.173-7.055s3.617-2.502 6.502-2.502c2.87 0 5.027.838 6.47 2.512 1.442 1.676 2.164 4.023 2.164 7.045 0 1.97-.277 3.6-.83 4.89-.555 1.294-1.42 2.384-2.595 3.272 1.382.902 2.387 2.05 3.016 3.445s.943 3.22.943 5.476c0 3.5-.726 6.183-2.175 8.05-1.45 1.865-3.78 2.8-6.993 2.8zm-1.763-4.666c.49.24 1.08.36 1.763.36s1.27-.124 1.764-.37.875-.554 1.148-.923.488-.857.646-1.466.258-1.193.3-1.754.06-1.237.06-2.03c0-.875-.054-1.657-.163-2.35-.11-.688-.3-1.35-.574-1.978s-.677-1.114-1.21-1.456-1.19-.514-1.97-.514-1.438.17-1.978.513-.95.823-1.23 1.445-.475 1.278-.584 1.97-.163 1.478-.163 2.367c0 .793.023 1.474.072 2.04.046.568.148 1.156.306 1.764.157.61.376 1.098.656 1.467s.665.675 1.157.913zm1.762-17.503c.684 0 1.254-.157 1.712-.472s.797-.77 1.016-1.362c.22-.596.365-1.193.44-1.795.075-.602.113-1.312.113-2.133 0-3.5-1.094-5.25-3.28-5.25-2.216 0-3.323 1.75-3.323 5.25 0 .82.04 1.535.123 2.143.082.61.232 1.207.45 1.795s.558 1.04 1.016 1.354 1.035.47 1.732.47zM1307.71 325.442c-1.065 0-2.01-.253-2.83-.76s-1.626-1.168-2.42-1.988v2.38h-5.25v-36.73h5.25v13.084c.493-.52.862-.896 1.108-1.128s.604-.526 1.077-.882c.47-.355.96-.604 1.466-.75.507-.142 1.067-.214 1.683-.214.89 0 1.682.16 2.38.482s1.27.707 1.722 1.158.834 1.1 1.148 1.948.55 1.613.708 2.297c.157.683.277 1.605.36 2.768s.13 2.102.143 2.82c.014.717.02 1.705.02 2.963v.35c0 1.148-.058 2.256-.174 3.322s-.33 2.153-.636 3.26c-.31 1.108-.697 2.065-1.17 2.872-.47.807-1.1 1.467-1.887 1.98-.786.512-1.684.768-2.696.768zm-1.31-4.307c.56 0 1.027-.205 1.404-.615.375-.41.648-.994.82-1.754.17-.758.287-1.514.348-2.266.062-.752.093-1.627.093-2.625 0-.738-.004-1.716-.01-2.933s-.01-2.133-.01-2.748-.015-1.15-.042-1.61c-.027-.457-.096-.94-.205-1.445s-.256-.924-.44-1.252c-.185-.328-.44-.598-.77-.81s-.725-.318-1.19-.318c-1.448 0-2.76.35-3.937 1.046v16.51c1.355.546 2.667.82 3.94.82zM1318.58 325.073v-26.25h5.25v2.83c.78-.71 1.415-1.254 1.907-1.63.492-.376 1.172-.73 2.04-1.067.868-.334 1.795-.502 2.78-.502 1.12 0 2.03.41 2.727 1.23s1.046 1.825 1.046 3.015v22.373h-5.25v-19.688c0-.916-.13-1.582-.39-2-.26-.416-.786-.625-1.58-.625-.45 0-.898.092-1.342.277-.445.184-.776.355-.995.512-.22.157-.533.406-.943.748v20.774h-5.25z"/></g></g><path fill="none" stroke="#FFF" stroke-width="7" stroke-miterlimit="10" d="M21.51 423.86h1876.98"/></svg>