<svg version="1.1" x="0px" y="0px"
	 width="200px" height="200px" viewBox="0 0 200 200" enable-background="new 0 0 200 200" xml:space="preserve">
<g>
	<circle class="future-circle" cx="100" cy="100" r="100"/>
	<path fill-rule="evenodd" clip-rule="evenodd" class="alloy-svg-active-fill" d="M115.961,50c0,0-18.158,13.471-29.169,43.61
		c-2.222,6.082-2.606,10.669-2.075,14.102l-5.902,2.164l-1.434-3.909L50,116.012l4.303,11.734L81.683,117.7l-1.434-3.912
		l4.944-1.813c0.445,0.427,0.971,0.854,1.581,1.254c0.397,0.604,0.824,1.126,1.251,1.575l-1.813,4.944l-3.912-1.437l-10.052,27.383
		L83.984,150l10.047-27.38l-3.912-1.437l2.167-5.902c0.879,0.137,1.837,0.214,2.875,0.214c3.009,0,6.708-0.638,11.23-2.289
		C136.523,102.197,150,84.039,150,84.039l-53.418,19.376L115.961,50z"/>
</g>
</svg>
