<?xml version="1.0" encoding="utf-8"?>
<!-- Generator: Adobe Illustrator 17.0.0, SVG Export Plug-In . SVG Version: 6.00 Build 0)  -->
<!DOCTYPE svg PUBLIC "-//W3C//DTD SVG 1.1//EN" "http://www.w3.org/Graphics/SVG/1.1/DTD/svg11.dtd">
<svg version="1.1" id="Laag_1" xmlns="http://www.w3.org/2000/svg" xmlns:xlink="http://www.w3.org/1999/xlink" x="0px" y="0px"
	 width="200px" height="200px" viewBox="0 0 200 200" enable-background="new 0 0 200 200" xml:space="preserve">
<g>
	<circle fill="#FFFFFF" cx="100" cy="100" r="100"/>
	<path fill-rule="evenodd" clip-rule="evenodd" fill="#9944EE" d="M104.375,88.371c0,0,4.433-1.69,5.684,0
		c1.25,1.687,12.957,18.126,12.957,18.126s10.687-5.744,16.484-21.281l-21.029-13.17l1.237-1.978L103.341,60.5l-1.35,1.863
		l-1.707-0.787l-6.82,10.694l1.593,1.126c0,0-0.911,4.389-1.593,6.755C92.78,82.515,60.5,135.431,60.5,135.431
		s5.681,6.079,20.459,3.377c0,0-2.272-4.956-0.456-10.472C82.323,122.82,100.85,90.622,104.375,88.371z"/>
</g>
</svg>
