<svg width="300" height="110" viewBox="0 0 300 110" xmlns="http://www.w3.org/2000/svg" xmlns:xlink="http://www.w3.org/1999/xlink"><title>Artboard 1</title><defs><path id="a" d="M0 110h300V0H0z"/></defs><g fill="none" fill-rule="evenodd"><path fill="#FFF" d="M0 35.444V73.78h15.06v-4.11H5.477V55.98h6.845v-4.107H5.477V39.55h9.583v-4.106M22.098 74.164c-1.198 0-2.16-.424-2.888-1.273-.727-.847-1.09-1.9-1.09-3.154v-23.34h5.475v21.67c0 .572.175 1.035.524 1.392.348.356.802.535 1.358.535.3 0 .592-.036.877-.107.285-.072.567-.197.845-.375.28-.177.496-.32.652-.427.157-.107.38-.288.674-.545.292-.257.475-.414.546-.47v-21.67h5.476v27.38h-5.476v-2.95c-.542.47-.938.812-1.188 1.026-.25.214-.63.502-1.144.866-.513.364-.967.628-1.358.792-.393.164-.88.313-1.466.45-.584.134-1.19.202-1.818.202zM39.297 73.778V46.396h5.476v3.658c.557-1.084 1.365-2.03 2.428-2.834 1.063-.806 2.244-1.21 3.542-1.21.043.002.335.03.877.087v6.054c-1.014-.398-2.026-.597-3.04-.597-1.14 0-2.06.342-2.758 1.026-.7.684-1.05 1.59-1.05 2.715v18.483h-5.475zM60.594 69.5c.29.114.63.17 1.016.17.385 0 .723-.056 1.015-.17.293-.114.536-.253.728-.417.193-.164.353-.407.48-.727.13-.32.23-.603.3-.845.072-.242.122-.59.15-1.048.03-.456.046-.816.054-1.08.007-.264.01-.66.01-1.187V55.98c0-.528-.003-.923-.01-1.187-.008-.264-.025-.624-.053-1.08-.03-.457-.08-.806-.15-1.05-.07-.24-.17-.523-.3-.844-.128-.32-.288-.564-.48-.728-.193-.164-.436-.303-.73-.417-.29-.114-.63-.17-1.014-.17-.385 0-.725.056-1.016.17-.293.114-.536.253-.727.417-.194.164-.354.407-.482.727-.13.32-.228.602-.3.844-.07.243-.12.592-.15 1.05-.028.455-.046.815-.052 1.08-.01.263-.012.658-.012 1.186v8.215c0 .527.004.923.013 1.187.006.264.024.624.053 1.08.028.457.078.806.15 1.05.07.24.17.523.3.844.127.32.287.563.48.727.192.164.435.303.728.417m7.326 2.096c-1.27 1.712-3.373 2.567-6.31 2.567-2.938 0-5.042-.855-6.31-2.567-1.27-1.71-1.905-4.178-1.905-7.4V55.98c0-3.223.635-5.69 1.904-7.402 1.268-1.71 3.372-2.567 6.31-2.567 2.937 0 5.04.857 6.31 2.568 1.27 1.712 1.904 4.18 1.904 7.402v8.215c0 3.223-.634 5.69-1.904 7.4M83.9 69.67c.585 0 1.073-.213 1.466-.64.39-.43.676-1.038.856-1.83.177-.79.3-1.576.362-2.353.065-.777.097-1.686.097-2.727l-.042-3.616c0-.64-.004-1.158-.01-1.55-.008-.393-.033-.913-.075-1.562-.043-.65-.104-1.18-.183-1.594-.078-.414-.195-.87-.352-1.37-.157-.498-.347-.89-.567-1.176-.22-.285-.506-.527-.854-.727-.35-.2-.746-.3-1.188-.3-.214 0-.418.015-.61.043-.193.03-.392.075-.598.14-.208.064-.38.12-.514.17-.136.05-.31.132-.524.247l-.46.246c-.093.05-.253.147-.48.29-.23.142-.372.228-.43.256V68.56c1.256.74 2.625 1.11 4.108 1.11zm-9.584 12.323V46.396h5.477v2.74c.442-.472.748-.793.92-.964.17-.17.466-.435.888-.792.42-.356.784-.606 1.09-.748.307-.143.7-.282 1.178-.417.477-.136.973-.204 1.487-.204.927 0 1.754.17 2.48.504.728.335 1.327.738 1.798 1.21.47.47.87 1.143 1.198 2.02.33.877.575 1.672.74 2.385.163.713.288 1.675.373 2.887.086 1.213.136 2.193.15 2.942.014.748.022 1.778.022 3.09v.406c0 1.198-.062 2.354-.183 3.466-.12 1.112-.342 2.243-.662 3.39-.322 1.15-.727 2.143-1.22 2.985-.49.84-1.148 1.53-1.968 2.064-.82.536-1.758.803-2.813.803-1.855 0-3.68-.948-5.477-2.845v10.675h-5.477z"/><mask id="b" fill="#fff"><use xlink:href="#a"/></mask><path d="M96.842 73.78h5.476V46.396h-5.476V73.78zm0-31.49h5.476v-5.477h-5.476v5.476zM107.56 73.778V46.396h5.476v2.953c.813-.742 1.476-1.31 1.99-1.702.513-.393 1.222-.763 2.13-1.113.903-.348 1.87-.523 2.897-.523 1.17 0 2.118.428 2.845 1.283.727.855 1.09 1.904 1.09 3.145v23.338h-5.475V53.242c0-.956-.136-1.65-.407-2.085-.27-.435-.82-.653-1.647-.653-.472 0-.94.096-1.402.288-.464.194-.81.37-1.038.535-.228.165-.556.425-.984.782v21.668h-5.476zM129.016 73.78h5.476V46.396h-5.476V73.78zm0-31.49h5.476v-5.477h-5.476v5.476zM146.42 69.5c.29.114.63.17 1.015.17.385 0 .723-.056 1.015-.17.293-.114.536-.253.728-.417.193-.164.353-.407.48-.727.13-.32.23-.603.3-.845.072-.242.122-.59.15-1.048.03-.456.046-.816.054-1.08.007-.264.01-.66.01-1.187V55.98c0-.528-.003-.923-.01-1.187-.008-.264-.025-.624-.053-1.08-.03-.457-.08-.806-.15-1.05-.072-.24-.172-.523-.3-.844-.13-.32-.29-.564-.482-.728-.192-.164-.435-.303-.728-.417-.292-.114-.63-.17-1.015-.17-.385 0-.725.056-1.016.17-.294.114-.537.253-.728.417-.194.164-.354.407-.482.727-.13.32-.228.602-.3.844-.07.243-.12.592-.15 1.05-.028.455-.046.815-.052 1.08-.01.263-.012.658-.012 1.186v8.215c0 .527.003.923.012 1.187.006.264.024.624.053 1.08.03.457.08.806.15 1.05.072.24.17.523.3.844.128.32.288.563.482.727.19.164.434.303.727.417m7.325 2.096c-1.27 1.712-3.373 2.567-6.31 2.567-2.938 0-5.042-.855-6.31-2.567-1.27-1.71-1.905-4.178-1.905-7.4V55.98c0-3.223.635-5.69 1.904-7.402 1.27-1.71 3.373-2.567 6.31-2.567 2.938 0 5.042.857 6.31 2.568 1.27 1.712 1.905 4.18 1.905 7.402v8.215c0 3.223-.635 5.69-1.905 7.4M160.142 73.778V46.396h5.476v2.953c.813-.742 1.476-1.31 1.99-1.702.512-.393 1.22-.763 2.13-1.113.903-.348 1.87-.523 2.897-.523 1.17 0 2.118.428 2.845 1.283.727.855 1.09 1.904 1.09 3.145v23.338h-5.475V53.242c0-.956-.137-1.65-.407-2.085-.27-.435-.82-.653-1.647-.653-.47 0-.938.096-1.4.288-.464.194-.81.37-1.038.535-.228.165-.556.425-.984.782v21.668h-5.476z" fill="#FFF" mask="url(#b)"/><path d="M300 55c0-30.376-24.624-55-55-55s-55 24.624-55 55 24.624 55 55 55 55-24.624 55-55" fill="#7706FA" mask="url(#b)"/><path fill="#FFF" mask="url(#b)" d="M212.014 71.4V38.38h4.804l7.243 17.272V38.378h5.538V71.4h-4.62l-7.225-18.317V71.4M245.734 62.05V47.782c0-3.25-.996-4.877-2.99-4.877-.597 0-1.105.15-1.52.45-.415.3-.72.71-.916 1.228-.196.52-.334 1.033-.413 1.54-.08.508-.12 1.06-.12 1.66V62.05c0 3.24.99 4.86 2.97 4.86 1.993 0 2.99-1.62 2.99-4.86M233.1 60.544V49.453c0-7.798 3.215-11.697 9.645-11.697 6.442 0 9.663 3.898 9.663 11.697V60.38c0 1.322-.096 2.54-.292 3.658-.197 1.12-.53 2.18-1 3.183-.47 1.002-1.07 1.856-1.797 2.558-.728.703-1.647 1.256-2.76 1.66-1.113.403-2.385.605-3.815.605-1.418 0-2.683-.2-3.794-.597-1.112-.397-2.03-.934-2.75-1.612-.72-.68-1.317-1.51-1.788-2.495-.47-.984-.806-2.032-1.008-3.145-.202-1.112-.303-2.328-.303-3.65M258.9 71.4l-4.566-33.004h5.684l2.054 21.857 2.824-21.857h4.896l2.768 21.728 2.146-21.728h5.702l-4.62 33.005h-5.703l-2.77-21.6-2.712 21.6"/></g></svg>