<svg width="208" height="153" viewBox="0 0 208 153" xmlns="http://www.w3.org/2000/svg" xmlns:xlink="http://www.w3.org/1999/xlink"><title>Page 1</title><defs><path id="a" d="M0 154h207.11V.94H0z"/></defs><g fill="none" fill-rule="evenodd"><path fill="#FFF" d="M36.582 0v36.75H51.02v-3.938h-9.187V19.688h6.562V15.75h-6.562V3.94h9.187V0"/><g transform="translate(0 -.94)"><path d="M57.767 38.06c-1.148 0-2.07-.407-2.77-1.22-.696-.814-1.044-1.822-1.044-3.025V11.442h5.25v20.773c0 .547.167.99.5 1.333.336.343.77.514 1.304.514.287 0 .568-.034.84-.103.274-.07.545-.19.81-.36.268-.17.476-.308.627-.41.15-.102.365-.276.645-.523s.454-.397.523-.452V11.44l5.25.002v26.25h-5.25v-2.83c-.52.45-.9.78-1.14.983-.238.206-.604.483-1.096.83-.492.35-.927.603-1.302.76-.377.157-.844.3-1.405.43-.56.13-1.14.195-1.743.195zM74.255 37.69V11.44h5.25v3.508c.534-1.04 1.31-1.945 2.328-2.717 1.02-.772 2.15-1.158 3.395-1.158.04 0 .32.027.84.082v5.804c-.97-.383-1.942-.575-2.912-.575-1.094 0-1.976.33-2.646.985-.67.656-1.005 1.524-1.005 2.604v17.72h-5.25zM94.672 33.59c.28.11.604.164.974.164s.693-.055.973-.164c.28-.11.513-.243.697-.4.185-.157.338-.39.46-.697.124-.308.22-.578.29-.81.067-.233.115-.568.142-1.005.026-.438.043-.783.05-1.036.007-.253.01-.632.01-1.138V20.63c0-.507-.003-.886-.01-1.14-.007-.252-.024-.597-.05-1.035-.028-.437-.076-.772-.144-1.005-.07-.232-.165-.502-.288-.81-.123-.307-.276-.54-.46-.697-.185-.157-.418-.29-.7-.4-.28-.11-.603-.164-.972-.164-.37 0-.695.054-.974.163-.28.11-.514.243-.697.4-.186.157-.34.39-.462.697-.123.308-.22.578-.287.81-.07.233-.116.568-.144 1.005-.027.438-.045.783-.05 1.036-.008.254-.01.633-.01 1.14v7.874c0 .506.002.885.01 1.138.005.253.023.598.05 1.036.028.437.075.772.144 1.005.068.232.164.502.287.81.123.307.276.54.462.697.183.157.416.29.697.4m7.023 2.01c-1.216 1.64-3.233 2.46-6.05 2.46-2.816 0-4.832-.82-6.05-2.46-1.216-1.64-1.824-4.006-1.824-7.096V20.63c0-3.09.61-5.456 1.826-7.097 1.217-1.64 3.233-2.46 6.05-2.46 2.816 0 4.833.82 6.05 2.46 1.216 1.64 1.825 4.006 1.825 7.096v7.874c0 3.09-.608 5.455-1.825 7.096M117.014 33.754c.56 0 1.028-.205 1.405-.615.374-.41.648-.996.82-1.755.17-.758.287-1.51.347-2.256.063-.746.093-1.617.093-2.615l-.04-3.466c0-.616-.005-1.112-.012-1.488-.007-.376-.03-.875-.07-1.497-.042-.622-.1-1.13-.176-1.528-.075-.396-.187-.834-.338-1.312-.15-.48-.332-.855-.543-1.128-.212-.274-.485-.506-.82-.697-.335-.192-.714-.288-1.138-.288-.205 0-.4.014-.584.04-.185.03-.377.073-.574.135-.2.06-.363.116-.492.164-.13.05-.298.127-.503.237l-.44.235c-.09.048-.245.14-.463.277-.22.136-.356.218-.41.245v16.243c1.203.71 2.515 1.066 3.937 1.066zm-9.188 11.813V11.442h5.25v2.625c.424-.452.718-.76.882-.923.164-.164.448-.417.852-.76.402-.34.75-.58 1.045-.717.294-.137.67-.27 1.13-.4.456-.13.93-.195 1.424-.195.887 0 1.68.16 2.377.482.698.322 1.272.708 1.723 1.16.45.45.834 1.096 1.15 1.937.313.842.548 1.604.707 2.288.156.683.276 1.606.358 2.768.082 1.162.13 2.102.143 2.82.014.718.02 1.706.02 2.963v.39c0 1.147-.058 2.255-.174 3.32-.116 1.068-.328 2.15-.635 3.252-.31 1.1-.698 2.054-1.17 2.86-.47.807-1.1 1.467-1.887 1.98-.786.512-1.685.77-2.697.77-1.777 0-3.527-.91-5.25-2.73v10.235h-5.25z" fill="#FFF"/><mask id="b" fill="#fff"><use xlink:href="#a"/></mask><path d="M129.422 37.69h5.25V11.44h-5.25v26.25zm0-30.186h5.25v-5.25h-5.25v5.25zM139.696 37.69V11.44h5.25v2.83c.78-.71 1.415-1.253 1.907-1.63.492-.375 1.172-.73 2.04-1.066.868-.335 1.795-.502 2.78-.502 1.12 0 2.03.41 2.727 1.23.697.82 1.046 1.826 1.046 3.015V37.69h-5.25V18.005c0-.917-.13-1.583-.39-2-.26-.417-.786-.625-1.58-.625-.45 0-.898.09-1.342.275-.445.185-.776.356-.995.513-.22.157-.534.407-.944.75V37.69h-5.25zM160.265 37.69h5.25V11.44h-5.25v26.25zm0-30.186h5.25v-5.25h-5.25v5.25zM176.95 33.59c.278.11.603.164.973.164s.693-.055.973-.164c.28-.11.514-.243.698-.4.185-.157.338-.39.46-.697.124-.308.22-.578.29-.81.067-.233.115-.568.142-1.005.027-.438.044-.783.05-1.036.008-.253.012-.632.012-1.138V20.63c0-.507-.004-.886-.01-1.14-.008-.252-.025-.597-.052-1.035-.027-.437-.075-.772-.143-1.005-.07-.232-.165-.502-.288-.81-.123-.307-.276-.54-.46-.697-.185-.157-.418-.29-.7-.4-.28-.11-.603-.164-.972-.164-.37 0-.695.054-.974.163-.282.11-.515.243-.698.4-.186.157-.34.39-.462.697-.123.308-.22.578-.287.81-.07.233-.116.568-.144 1.005-.028.438-.046.783-.052 1.036-.007.254-.01.633-.01 1.14v7.874c0 .506.003.885.01 1.138.006.253.024.598.05 1.036.03.437.076.772.145 1.005.068.232.164.502.287.81.123.307.276.54.462.697.183.157.416.29.697.4m7.022 2.01c-1.216 1.64-3.233 2.46-6.05 2.46-2.816 0-4.832-.82-6.05-2.46-1.216-1.64-1.824-4.006-1.824-7.096V20.63c0-3.09.608-5.456 1.825-7.097 1.217-1.64 3.233-2.46 6.05-2.46 2.816 0 4.833.82 6.05 2.46 1.216 1.64 1.825 4.006 1.825 7.096v7.874c0 3.09-.61 5.455-1.826 7.096M190.104 37.69V11.44h5.25v2.83c.78-.71 1.415-1.253 1.907-1.63.493-.375 1.173-.73 2.042-1.066.867-.335 1.794-.502 2.78-.502 1.12 0 2.03.41 2.726 1.23.697.82 1.046 1.826 1.046 3.015V37.69h-5.25V18.005c0-.917-.13-1.583-.39-2-.26-.417-.786-.625-1.58-.625-.45 0-.898.09-1.342.275-.445.185-.776.356-.995.513-.218.157-.533.407-.943.75V37.69h-5.25zM40 134c0 11.046-8.954 20-20 20s-20-8.954-20-20 8.954-20 20-20 20 8.954 20 20" fill="#FFF" mask="url(#b)"/><path d="M27.953 129.923c.008.176.012.352.012.53 0 5.422-4.127 11.675-11.675 11.675-2.318 0-4.474-.68-6.29-1.844.322.037.648.057.98.057 1.923 0 3.69-.654 5.094-1.755-1.794-.034-3.31-1.22-3.83-2.85.25.047.505.074.77.074.375 0 .737-.052 1.08-.145-1.875-.378-3.29-2.036-3.29-4.023v-.05c.553.306 1.186.49 1.86.51-1.103-.734-1.827-1.99-1.827-3.414 0-.752.203-1.458.556-2.063 2.023 2.483 5.048 4.116 8.457 4.287-.07-.3-.106-.613-.106-.935 0-2.266 1.837-4.102 4.104-4.102 1.18 0 2.246.498 2.994 1.294.934-.184 1.813-.526 2.606-.997-.307.96-.957 1.763-1.804 2.27.83-.097 1.62-.32 2.356-.644-.55.822-1.245 1.544-2.047 2.123M20 114c-11.045 0-20 8.955-20 20 0 11.047 8.955 20 20 20s20-8.953 20-20c0-11.045-8.955-20-20-20" fill="#94E" mask="url(#b)"/><path d="M47.85 97.406c-1.986 0-3.734-.28-5.246-.844-1.512-.562-2.752-1.34-3.718-2.333-.967-.994-1.753-2.233-2.36-3.72-.606-1.484-1.032-3.07-1.28-4.758-.245-1.688-.368-3.595-.368-5.722V66.556c0-2.126.123-4.034.37-5.72.246-1.69.672-3.275 1.278-4.76.607-1.486 1.393-2.72 2.36-3.705.966-.984 2.206-1.756 3.718-2.32 1.512-.562 3.26-.843 5.247-.843 2.198 0 4.097.325 5.696.975 1.6.65 2.878 1.61 3.837 2.874.958 1.266 1.678 2.734 2.162 4.404.483 1.67.768 3.62.857 5.853.017.334.026.853.026 1.556h-6.75v-1.504c-.017-.932-.053-1.727-.105-2.386-.053-.66-.15-1.34-.29-2.044-.14-.702-.348-1.287-.62-1.753-.273-.465-.616-.897-1.028-1.292-.413-.395-.936-.685-1.57-.87-.632-.184-1.37-.276-2.214-.276-1.09 0-2.025.176-2.807.527-.782.353-1.394.805-1.833 1.36-.44.553-.777 1.296-1.015 2.227-.237.932-.39 1.842-.46 2.73-.07.887-.107 1.98-.107 3.282v16.874c0 1.125.05 2.145.145 3.058.097.915.286 1.824.567 2.73.28.905.646 1.665 1.094 2.28.45.616 1.046 1.112 1.793 1.49.748.378 1.622.567 2.624.567 1.003 0 1.864-.194 2.585-.58.72-.387 1.288-.88 1.7-1.478.413-.597.74-1.362.976-2.294.24-.93.392-1.836.463-2.716.07-.878.105-1.898.105-3.058v-1.688h6.75v1.688c0 2.443-.215 4.588-.646 6.433-.43 1.846-1.125 3.477-2.083 4.892-.96 1.414-2.26 2.49-3.903 3.23-1.644.737-3.626 1.106-5.946 1.106M72.174 89.733c.905 1.424 2.544 2.136 4.917 2.136 2.376 0 4.013-.713 4.92-2.137.904-1.424 1.358-3.524 1.358-6.302V62.92c0-2.743-.448-4.79-1.346-6.144-.896-1.354-2.54-2.03-4.93-2.03-2.39 0-4.034.676-4.93 2.03-.898 1.354-1.346 3.4-1.346 6.144V83.43c0 2.78.453 4.88 1.358 6.303m4.917 7.673c-2.37 0-4.406-.36-6.103-1.08-1.695-.722-3.044-1.777-4.046-3.165-1-1.387-1.73-3.018-2.188-4.89-.457-1.872-.685-4.048-.685-6.526v-17.14c0-2.477.228-4.64.686-6.485.457-1.847 1.186-3.45 2.188-4.813 1.002-1.362 2.352-2.387 4.047-3.072 1.698-.686 3.732-1.028 6.105-1.028 4.605 0 7.927 1.318 9.966 3.955 2.04 2.636 3.06 6.45 3.06 11.443v17.14c0 2.442-.234 4.6-.7 6.472-.466 1.872-1.2 3.507-2.202 4.904-1 1.4-2.35 2.463-4.046 3.192-1.698.73-3.722 1.094-6.08 1.094M114.586 96.615c-1.565.544-3.375.817-5.432.817-2.056 0-3.867-.273-5.43-.817-1.566-.544-2.853-1.305-3.864-2.28-1.01-.976-1.833-2.202-2.465-3.68-.633-1.476-1.08-3.07-1.345-4.785-.264-1.713-.396-3.65-.396-5.814V49.68h6.75v30.376c0 1.46.03 2.68.093 3.665.06.986.224 2.036.487 3.152.264 1.117.63 2.01 1.095 2.677.464.667 1.123 1.22 1.976 1.66.853.44 1.885.66 3.098.66 1.213 0 2.245-.22 3.1-.66.85-.44 1.51-.993 1.976-1.66.465-.67.83-1.56 1.094-2.678.264-1.116.426-2.166.488-3.15.062-.985.092-2.206.092-3.666V49.68h6.75v30.376c0 2.163-.13 4.1-.395 5.814-.265 1.714-.713 3.31-1.346 4.786-.633 1.477-1.454 2.703-2.465 3.678-1.012.976-2.3 1.737-3.864 2.28M129.035 96.932v-47.25h5.062l11.813 29.215V49.682h6.75v47.25h-4.8l-12.075-31.43v31.43M164.446 96.932V55.694h-8.438v-6.012h23.626v6.012h-8.438v41.238M195.296 97.406c-4.254 0-7.5-1.248-9.743-3.744-2.24-2.496-3.493-5.906-3.757-10.23l6.75-1.688c.333 6.75 2.584 10.125 6.75 10.125 3.375 0 5.062-1.69 5.062-5.064 0-1.002-.136-1.928-.408-2.78-.273-.854-.69-1.636-1.253-2.348s-1.072-1.283-1.53-1.714c-.456-.43-1.08-.962-1.87-1.595l-8.44-6.75c-1.545-1.214-2.78-2.756-3.703-4.63-.923-1.87-1.384-4.002-1.384-6.393 0-3.48 1.08-6.25 3.243-8.305 2.162-2.057 5.027-3.085 8.596-3.085 3.83 0 6.876.936 9.135 2.808 2.258 1.872 3.652 4.522 4.18 7.95.052.37.113.88.184 1.53l-6.752 1.686c-.017-.297-.062-.746-.13-1.343-.3-2.145-.973-3.863-2.018-5.155-1.046-1.292-2.58-1.938-4.6-1.938-1.62 0-2.867.453-3.746 1.358-.88.906-1.318 2.166-1.318 3.783 0 2.655 1.125 4.878 3.375 6.67l8.438 6.75c4.5 3.64 6.75 7.99 6.75 13.053 0 3.464-1.067 6.17-3.203 8.12-2.136 1.952-5.006 2.928-8.61 2.928M39.096 116.588h2.167l.304-2.156H39.41l-.314 2.156zm-4.19 9.344l1.012-7.188h-1.01v-2.156h1.313l.315-2.156h-1.628v-2.156h1.932l.92-6.47h2.875l-.92 6.47h2.155l.92-6.47h2.876l-.92 6.47h.942v2.156h-1.246l-.315 2.156h1.56v2.156h-1.863l-1.01 7.188h-2.876l1.01-7.188h-2.155l-1.01 7.188h-2.876zM47.844 125.932v-20.125h7.906v2.156h-5.03v6.47h3.593v2.155H50.72v7.188h5.03v2.156M65.42 125.797c-.667.232-1.437.348-2.313.348-.876 0-1.647-.116-2.314-.348-.666-.232-1.215-.556-1.645-.972-.43-.415-.78-.937-1.05-1.566-.27-.63-.46-1.31-.573-2.04-.112-.73-.168-1.555-.168-2.476v-12.937h2.875v12.937c0 .622.013 1.142.04 1.56.025.42.094.868.207 1.344.11.475.266.855.464 1.14.2.284.48.52.843.707.363.187.803.28 1.32.28.516 0 .956-.093 1.32-.28.362-.187.643-.423.842-.708.197-.284.352-.664.464-1.14.113-.475.182-.922.208-1.342.026-.42.04-.94.04-1.56v-12.938h2.875v12.937c0 .92-.057 1.746-.17 2.477-.11.73-.302 1.41-.572 2.04-.27.628-.62 1.15-1.05 1.565-.43.416-.978.74-1.645.972M74.45 114.432h.718c1.198 0 2.096-.253 2.695-.758.6-.506.898-1.33.898-2.476s-.298-1.97-.897-2.477c-.6-.504-1.497-.757-2.695-.757h-.72v6.47zm-2.876 11.5v-20.125h3.594c2.14 0 3.755.416 4.84 1.247 1.086.83 1.628 2.212 1.628 4.144 0 1.197-.213 2.2-.64 3.01-.426.808-1.05 1.362-1.875 1.66l3.235 10.064h-2.852l-2.898-9.344H74.45v9.344h-2.876zM87.112 122.866c.386.606 1.084.91 2.095.91 1.01 0 1.71-.304 2.094-.91.386-.606.58-1.5.58-2.684v-8.737c0-1.168-.19-2.04-.573-2.617-.383-.577-1.082-.865-2.1-.865s-1.72.288-2.1.865c-.382.577-.573 1.45-.573 2.617v8.737c0 1.183.192 2.078.578 2.684m2.095 3.268c-1.01 0-1.878-.153-2.6-.46-.724-.308-1.297-.757-1.725-1.348-.427-.59-.737-1.286-.93-2.084-.197-.796-.293-1.723-.293-2.78v-7.3c0-1.054.096-1.975.29-2.76.195-.787.505-1.47.932-2.05.427-.58 1-1.017 1.724-1.31.723-.29 1.59-.437 2.6-.437 1.962 0 3.376.56 4.245 1.684.87 1.122 1.304 2.747 1.304 4.873v7.3c0 1.04-.1 1.96-.297 2.757-.2.798-.51 1.494-.938 2.09-.428.595-1.002 1.047-1.724 1.358-.724.31-1.587.466-2.59.466M100.145 114.432h.72c.65 0 1.183-.038 1.6-.112.414-.075.782-.216 1.1-.42.318-.207.546-.5.684-.883.138-.382.207-.87.207-1.46 0-.72-.052-1.3-.157-1.746-.105-.445-.298-.81-.578-1.094-.28-.285-.644-.48-1.09-.59-.445-.11-1.034-.163-1.768-.163h-.72v6.47zm-2.875 11.5v-20.125h5.03c3.355 0 5.032 1.917 5.032 5.75 0 1.64-.432 2.888-1.296 3.745-.866.858-2.11 1.286-3.735 1.286h-2.155v9.344H97.27zM109.095 125.932h2.875v-20.125h-2.875M115.047 125.932v-20.125h2.157l5.03 12.443v-12.443h2.877v20.125h-2.043l-5.144-13.387v13.387M128.12 125.932h2.875v-20.125h-2.875M137.166 122.866c.386.606 1.084.91 2.095.91 1.01 0 1.71-.304 2.095-.91.386-.606.58-1.5.58-2.684v-8.737c0-1.168-.192-2.04-.574-2.617-.38-.577-1.08-.865-2.1-.865-1.017 0-1.718.288-2.1.865-.38.577-.572 1.45-.572 2.617v8.737c0 1.183.193 2.078.578 2.684m2.095 3.268c-1.01 0-1.877-.153-2.6-.46-.722-.308-1.296-.757-1.723-1.348-.427-.59-.737-1.286-.932-2.084-.195-.796-.292-1.723-.292-2.78v-7.3c0-1.054.097-1.975.292-2.76.195-.787.505-1.47.932-2.05.427-.58 1-1.017 1.724-1.31.723-.29 1.59-.437 2.6-.437 1.962 0 3.377.56 4.246 1.684.868 1.122 1.303 2.747 1.303 4.873v7.3c0 1.04-.1 1.96-.3 2.757-.198.798-.51 1.494-.937 2.09-.427.595-1 1.047-1.723 1.358-.723.31-1.586.466-2.59.466M147.324 125.932v-20.125h2.156l5.03 12.443v-12.443h2.877v20.125h-2.044l-5.144-13.387v13.387M158.824 120.9h4.312v-2.156h-4.312M164.574 125.932v-20.125h2.156l5.03 12.443v-12.443h2.877v20.125h-2.044l-5.144-13.387v13.387M180.605 122.866c.386.606 1.084.91 2.095.91 1.01 0 1.71-.304 2.094-.91.386-.606.58-1.5.58-2.684v-8.737c0-1.168-.192-2.04-.574-2.617-.382-.577-1.082-.865-2.1-.865s-1.72.288-2.1.865c-.382.577-.573 1.45-.573 2.617v8.737c0 1.183.193 2.078.578 2.684m2.095 3.268c-1.01 0-1.878-.153-2.6-.46-.723-.308-1.297-.757-1.724-1.348-.427-.59-.737-1.286-.932-2.084-.195-.796-.292-1.723-.292-2.78v-7.3c0-1.054.097-1.975.292-2.76.195-.787.505-1.47.932-2.05.427-.58 1-1.017 1.724-1.31.722-.29 1.59-.437 2.6-.437 1.96 0 3.376.56 4.245 1.684.868 1.122 1.303 2.747 1.303 4.873v7.3c0 1.04-.1 1.96-.298 2.757-.2.798-.51 1.494-.938 2.09-.427.595-1 1.047-1.723 1.358-.724.31-1.587.466-2.59.466M193.043 125.932l-3.594-20.125h2.874l1.438 9.344.73 5.75.707-5.75 1.437-9.343h2.875l1.437 9.344.707 5.75.73-5.75 1.437-9.343h2.875l-3.594 20.125h-2.876l-1.437-9.344-.72-5.75-.718 5.75-1.437 9.344" fill="#FFF" mask="url(#b)"/></g></g></svg>