<?xml version="1.0" encoding="utf-8"?>
<!-- Generator: Adobe Illustrator 17.0.0, SVG Export Plug-In . SVG Version: 6.00 Build 0)  -->
<!DOCTYPE svg PUBLIC "-//W3C//DTD SVG 1.1//EN" "http://www.w3.org/Graphics/SVG/1.1/DTD/svg11.dtd">
<svg version="1.1" id="Laag_1" xmlns="http://www.w3.org/2000/svg" xmlns:xlink="http://www.w3.org/1999/xlink" x="0px" y="0px"
	 width="1920px" height="1080px" viewBox="0 0 1920 1080" enable-background="new 0 0 1920 1080" xml:space="preserve">
<path fill="#A9CBCB" d="M1733,977.572c-34-11.284-186-53.392-44-48.468c120.247,4.17,220.411-28.895,292-48.08v-26.483
	c0,0-232-8.799-1021.675,2.287S181,834.734-55,851.25v70.758l202,2.781c128-3.361,492.194-1.062,670.097,9.485
	C995,944.821,801,987.126,589,982.487c-171.708-3.758-470.674,20.27-644,42.185V1129.7l2036-14.242V989.429
	C1899,992.754,1767,988.856,1733,977.572z M1739,1047.879c-102-0.149-248-24.621-338-25.243c-90-0.623-218,18.512-330.446,16.728
	c-112.446-1.784,10.379-8.116,104.888-27.631c182.443-37.671,343.557-7.74,471.557,10.902
	C1775,1041.279,1841,1048.029,1739,1047.879z"/>
<path fill="#A9CBCB" d="M751.863,798.586C918.356,796.294,1501,773.432,1683,787.57s306,2.154,306,2.154l-24,29.756
	c0,0-320-22.638-526-20.893s-379.772,28.947-613.886,29.795S400.239,795.964,326.62,800.9C253,805.836,341,775.025,433,775.981
	S578.726,800.97,751.863,798.586z"/>
<g>
	<path fill="#FFFFFF" d="M922.462,1015.635c14.25,14.25,33.188,2.6,33.188,2.6s11.65-18.938-2.6-33.188
		c-14.25-14.25-41.096-10.508-41.096-10.508S908.212,1001.384,922.462,1015.635z"/>
	<path fill="#FFFFFF" d="M1001.189,953.526c-9.5,9.5-22.125,1.734-22.125,1.734s-7.766-12.625,1.734-22.125
		c9.5-9.5,27.397-7.006,27.397-7.006S1010.689,944.026,1001.189,953.526z"/>
	<path fill="#FFFFFF" d="M932.68,1086.248c0,0-0.019-0.642-0.056-1.845c-0.018-0.602-0.04-1.344-0.067-2.216
		c-0.007-0.218-0.013-0.444-0.02-0.679c-0.006-0.237-0.018-0.455-0.011-0.788c0.008-0.615,0.016-1.27,0.025-1.961
		c0.038-1.362,0.017-2.944,0.139-4.513c0.141-1.549,0.295-3.224,0.458-5.014c0.275-1.774,0.529-3.664,0.888-5.629
		c0.209-0.975,0.423-1.974,0.643-2.997c0.21-1.025,0.45-2.062,0.754-3.1c0.288-1.041,0.581-2.104,0.88-3.187
		c0.321-1.07,0.696-2.137,1.053-3.23c0.354-1.096,0.733-2.197,1.168-3.282c0.423-1.09,0.853-2.196,1.288-3.317
		c1.832-4.414,3.973-8.855,6.276-13.277c4.617-8.827,9.871-17.535,14.301-26.43c2.207-4.449,4.266-8.939,5.976-13.469
		c1.67-4.535,3.153-9.079,4.177-13.589c0.307-1.12,0.501-2.248,0.725-3.365c0.211-1.118,0.458-2.224,0.637-3.327
		c0.159-1.108,0.315-2.205,0.47-3.288c0.078-0.543,0.156-1.084,0.233-1.62c0.063-0.538,0.1-1.075,0.151-1.608
		c0.178-2.132,0.427-4.215,0.449-6.241c0.063-2.024,0.186-3.99,0.109-5.877c-0.057-1.886-0.005-3.709-0.147-5.431
		c-0.118-1.729-0.23-3.368-0.336-4.909c-0.312-3.075-0.647-5.763-0.935-7.978c-0.738-4.413-1.16-6.934-1.16-6.934l-0.004-0.023
		c-0.045-0.27,0.137-0.525,0.407-0.571c0.246-0.041,0.48,0.107,0.554,0.338c0,0,0.786,2.457,2.161,6.758
		c0.61,2.175,1.338,4.829,2.105,7.901c0.334,1.55,0.689,3.199,1.063,4.938c0.398,1.74,0.618,3.603,0.956,5.538
		c0.359,1.935,0.529,3.975,0.767,6.089c0.278,2.113,0.338,4.314,0.474,6.584c0.027,0.567,0.069,1.14,0.085,1.716
		c0.001,0.576,0.003,1.156,0.004,1.739c0.002,1.171,0.003,2.356,0.005,3.553c-0.021,1.199-0.109,2.407-0.163,3.633
		c-0.066,1.225-0.104,2.468-0.254,3.708c-0.4,4.995-1.278,10.113-2.376,15.272c-1.136,5.15-2.644,10.279-4.296,15.319
		c-3.33,10.08-7.372,19.662-10.446,28.44c-1.532,4.385-2.841,8.572-3.84,12.498c-0.224,0.979-0.444,1.944-0.662,2.895
		c-0.233,0.948-0.406,1.88-0.556,2.793c-0.155,0.913-0.335,1.808-0.464,2.684c-0.107,0.874-0.213,1.731-0.316,2.571
		c-0.124,0.837-0.187,1.655-0.227,2.453c-0.053,0.795-0.105,1.572-0.156,2.329c-0.047,1.512-0.02,2.939-0.044,4.272
		c0.076,1.33,0.146,2.576,0.212,3.727c0.076,1.132,0.255,2.029,0.345,2.907c0.051,0.429,0.099,0.835,0.144,1.217
		c0.013,0.167,0.063,0.429,0.103,0.657c0.041,0.231,0.08,0.454,0.117,0.669c0.151,0.86,0.279,1.591,0.384,2.184
		c0.208,1.186,0.319,1.818,0.319,1.818c1.178,6.707-3.304,13.099-10.011,14.277c-6.707,1.178-13.099-3.304-14.277-10.011
		c-0.1-0.567-0.159-1.132-0.18-1.692L932.68,1086.248z"/>
</g>
</svg>
