<svg xmlns="http://www.w3.org/2000/svg" width="1920" height="1080" viewBox="0 0 1920 1080"><path fill="#FFF" d="M1781.726 659.586c-17.64-4.664-27.925 10.957-29.713 13.953-8.18.06-19.184-.012-26.7-.656-6.598.733-23.78 11.726-39.777 23.618.155-.908.325-1.87.5-2.88.308-1.746.698-3.593 1.056-5.456l.62-2.753c.086-.37.166-.738.247-1.105 4.208 1.224 13.366 2.658 19.55-5.332 8.255-10.668 3.5-28.178 3.5-28.178s-18.144-.214-26.4 10.455c-7.4 9.56-.67 19.856.806 21.89-.185.446-.37.898-.562 1.352l-1.107 2.66c-.685 1.798-1.403 3.594-2.02 5.294-.61 1.7-1.196 3.288-1.654 4.663-.474 1.366-.853 2.526-1.116 3.343l-.404 1.263.088.02c-7.88 6.117-15 12.113-19.78 16.732-2.496 2.41-5.415 5.113-8.62 7.99.45-1.487.92-3 1.388-4.542l1.072-3.174c.363-1.044.685-2.092 1.06-3.073.36-.945.704-1.856 1.034-2.725.47.215.754.322.754.322s14.793-1.636 16.458-15.023-11.352-26.026-11.352-26.026-15.717 9.067-17.382 22.453c-1.167 9.382 5.328 14.743 9.32 17.114l-1.558 2.622c-.553.923-1.055 1.905-1.604 2.89l-1.638 3.004c-1.032 2.038-2.103 4.07-3.042 6.002-.934 1.933-1.822 3.736-2.533 5.304-.567 1.21-1.047 2.27-1.428 3.125-21.832 18.7-49.56 39.88-53.248 38.035-1.748-.874 1.577-19.383 6.552-42.735l1.093-1.16c.678-.734 1.454-1.51 2.28-2.45l2.658-3.035 1.447-1.653 1.443-1.766 2.992-3.702 2.966-3.906c1-1.303 1.927-2.65 2.877-3.952.912-1.253 1.785-2.496 2.624-3.707-.537 3.303-.255 7.888 3.946 11.393 7.386 6.163 19.988 3.23 19.988 3.23s.53-11.052-5.233-17.588c1.442-.606 2.888-1.466 4.3-2.666 10.28-8.734 9.24-26.85 9.24-26.85s-17.71-3.952-27.99 4.783c-10.28 8.734-3.534 22.002-3.534 22.002s.125.09.35.24l-3.142 3.596c-1 1.148-2.042 2.326-3.117 3.5-1.076 1.174-2.136 2.397-3.255 3.56l-3.316 3.482-3.306 3.265-1.583 1.548c-.493.45-.974.89-1.447 1.32 5.484-24.943 12.16-52.958 16.42-70.564 3.543 2.43 18.708 11.563 32.5.536 15.74-12.585 14.993-39.68 14.993-39.68s-26.265-6.69-42.006 5.894c-11.02 8.81-9.677 21.3-7.88 28.006-5.913 9.75-15.124 22.327-25.037 26.034-.215-.762-.43-1.53-.65-2.3l-.697-2.735c-.222-.904-.473-1.793-.658-2.658-.37-1.73-.733-3.35-1.014-4.746l-.76-4.68-.535.023c-.2-3.617-1.555-9.317-7.768-11.908-9.474-3.95-21.394 3.013-21.394 3.013s3.44 13.37 12.913 17.322c8.424 3.513 14.62-3.33 15.893-4.893l-.016 1.29c.036 1.443.116 3.123.183 4.935.034.905.13 1.83.193 2.777l.22 2.872c.204 1.912.378 3.838.6 5.633.225 1.794.424 3.475.64 4.908.018.14.036.263.055.397-4.75 16.76-10.8 36.71-16 56.266-.02-.063-.037-.124-.056-.188-.518-1.697-1.01-3.52-1.534-5.343l-.696-2.734c-.222-.903-.473-1.792-.658-2.657-.37-1.73-.733-3.35-1.014-4.745l-.455-2.802-.01-.247c1.198-1.524 13.45-17.805 1.867-33.103-12.164-16.067-39.27-16.038-39.27-16.038s-7.382 26.08 4.782 42.148c2.81 3.71 6.056 6.075 9.387 7.535-3.223 5.064-4.316 10.613-4.316 10.613s11.864 6.043 20.764 1.712c3.042-1.48 4.767-3.7 5.72-5.98l.05 1.265c.033.906.128 1.83.192 2.778l.22 2.872c.205 1.913.378 3.84.6 5.634.225 1.795.424 3.476.64 4.91.196 1.432.383 2.638.52 3.485l.21 1.31.394-.102c-1.777 7.1-3.39 14.062-4.725 20.703-6.296 31.3-60.783-43.36-75.37-56.73-3.04-2.788-8.57-8.02-15.38-14.484-.333-1.04-.71-2.167-1.102-3.354-.55-1.67-1.203-3.437-1.82-5.206l-1-2.62c-.336-.862-.643-1.713-.982-2.527l-1.61-3.785c1.25.183 2.01.22 2.01.22s20.303-9.062 16.578-28.868c-3.725-19.806-28-31.864-28-31.864s-18.236 20.054-14.512 39.86c2.75 14.613 15.552 19.02 22.08 20.33.02.074.04.14.063.217.32 1.347.69 2.918 1.09 4.602.193.84.35 1.726.532 2.615l.532 2.698c.123.742.252 1.478.38 2.21-26.14-24.83-64.205-60.952-61.523-55.413 2.104 4.347 12.964 23.24 25.276 42.168l-1.54-.678c-.87-.394-1.75-.748-2.563-1.155l-1.64-.797c-.266-3.625-1.726-9.05-7.745-11.56-9.474-3.95-21.394 3.014-21.394 3.014s3.44 13.37 12.914 17.32 16.137-5.205 16.137-5.205.045-.272.084-.745l.33.24c.75.557 1.56 1.06 2.366 1.613l2.46 1.648c.838.53 1.675 1.06 2.5 1.58.828.517 1.635 1.047 2.436 1.517l.237.143c7.667 11.427 15.542 22.205 21.965 29.03 13.957 14.83 19.188 19.402 29.595 37.08-.712-.128-1.438-.26-2.19-.394-2.177-.387-4.475-.88-6.793-1.332l-3.428-.77c-1.13-.262-2.253-.495-3.322-.766l-1.906-.503c-.214-1.84-2.146-14.755-14.525-16.653-13.335-2.045-26.34 10.608-26.34 10.608s8.615 15.97 21.95 18.014c.72.11 1.414.167 2.09.19-1.427 5.643-.844 10.998-.844 10.998s13.125 2.227 20.328-4.562c4.666-4.397 4.024-9.915 2.994-13.26l1.79.733c2.237.843 4.47 1.732 6.586 2.49 2.115.76 4.09 1.48 5.797 2.05.778.27 1.493.51 2.145.73 2.12 3.798 4.452 8.085 7.087 13.026 9.77 18.317 33.834 28.088 42.505 57.468 2.46 8.338 4.326 18.28 5.668 29.192-2.014-1.767-4.072-3.628-6.16-5.467-1.378-1.237-2.718-2.506-4.06-3.74l-3.92-3.642-3.916-3.84c-.922-5.316-5.008-20.906-21.486-23.433-19.92-3.055-39.347 15.847-39.347 15.847s12.87 23.855 32.79 26.91c15.45 2.37 23.95-9.486 26.988-14.927l1.753 2.343 3.358 4.243c1.15 1.44 2.304 2.923 3.49 4.372 2.4 2.87 4.758 5.794 7.052 8.452l3.295 3.85c.49.58.976 1.133 1.45 1.673 2.023 24.447 1.807 52.19-.027 77.293-6.077 83.203 3.642 116.36-41.334 133.408l121.154-.16s-16.736-22.123-25.65-45.45c-10.434-27.298-14.093-182.738-9.23-209.143 1.79-9.724 18.22-31.172 39.69-54.66.242-.122.647-.33 1.23-.628.956-.492 2.31-1.195 3.9-2.058 1.606-.845 3.448-1.89 5.422-2.992 1.975-1.102 4.042-2.36 6.122-3.572.385-.24.766-.478 1.15-.72-2.387 3.637-6.505 12.035-.62 20.324 7.812 11 25.948 11.532 25.948 11.532s1.58-5 1.828-11.33c19.445 2.99 38.87-14.51 38.87-14.51s-11.957-24.327-31.746-28.135c-16.51-3.18-25.607 10.39-28.17 14.978-.892.4-1.824.815-2.786 1.248-1.013.446-2.09.854-3.167 1.296l-3.27 1.314c-1.19.435-2.368.877-3.53 1.308 22.417-23.404 48.117-47.196 68.12-62.312.385.013.784.025 1.213.036 1.41.052 3.056.066 4.816.09 1.07.017 2.19.01 3.323 0-2.866 1.233-5.79 3.553-7.06 7.916-2.866 9.856 5.39 20.923 5.39 20.923s7.808-2.975 12.625-8.938c8.327 9.503 24.718 9.992 24.718 9.992s5.472-17.3-2.34-28.298c-7.81-11-21.61-5.428-21.61-5.428s-.475.54-1.13 1.502l-2.81-.284c-.86-.092-1.747-.233-2.646-.352l-2.724-.38c-1.823-.308-3.643-.582-5.343-.9l-.645-.12c9.046-6.406 16.564-10.594 21.54-11.536 6.21-1.175 12.27-2.656 17.187-3.968.53 5.99 3.407 20.74 18.818 24.816 19.483 5.15 40.806-11.583 40.806-11.583s-10.267-25.083-29.75-30.234zm-130.29 97.483c.026.18.056.372.088.572-.472.076-.916.16-1.325.25.17-.11.347-.218.514-.33.246-.17.482-.33.722-.493zm74.408-60.535c-.15-.125-.295-.242-.434-.35l.645-.046c-.07.127-.14.262-.21.395z"/><head/></svg>