<svg xmlns="http://www.w3.org/2000/svg" width="1920" height="1080" viewBox="0 0 1920 1080"><path fill="#FFF" d="M1612.187 926.13s-17.897-2.495-27.397 7.005c-2.986 2.986-4.264 6.28-4.616 9.393l-.21-.978c-.768-3.072-1.496-5.726-2.106-7.9l-2.16-6.76c-.075-.23-.31-.378-.555-.337-.27.046-.452.3-.407.57l.004.024 1.16 6.934c.288 2.216.623 4.904.935 7.98l.336 4.908c.143 1.722.09 3.545.148 5.43.077 1.888-.046 3.854-.11 5.878-.02 2.026-.27 4.11-.448 6.24-.05.534-.088 1.07-.15 1.61l-.234 1.62c-.155 1.082-.31 2.18-.47 3.287-.18 1.103-.426 2.21-.637 3.327-.225 1.117-.42 2.245-.726 3.365-1.024 4.51-2.507 9.054-4.177 13.59-1.71 4.53-3.77 9.02-5.976 13.468-.17.345-.35.688-.525 1.032.852-6.32-.117-14.063-6.823-20.768-14.25-14.25-41.096-10.508-41.096-10.508s-3.742 26.844 10.508 41.095c10.57 10.57 23.715 6.89 29.8 4.284-2.094 3.758-4.187 7.514-6.163 11.293-2.302 4.422-4.443 8.863-6.275 13.277l-1.288 3.317c-.435 1.085-.814 2.186-1.168 3.282-.358 1.092-.733 2.16-1.054 3.23-.3 1.082-.592 2.145-.88 3.186-.304 1.038-.544 2.075-.754 3.1l-.643 2.997c-.36 1.965-.614 3.855-.89 5.63-.162 1.79-.316 3.464-.457 5.013-.122 1.57-.1 3.15-.14 4.513l-.015 1.24h23.955l-.044-.25-.118-.668c-.04-.228-.09-.49-.103-.657l-.145-1.217c-.09-.878-.27-1.775-.345-2.907l-.212-3.726c.024-1.333-.003-2.76.044-4.272l.156-2.33c.04-.797.103-1.615.227-2.452.103-.84.21-1.697.316-2.57.13-.877.31-1.772.465-2.685.15-.913.323-1.845.556-2.793.22-.95.44-1.916.663-2.895 1-3.926 2.308-8.113 3.84-12.498 3.074-8.78 7.116-18.36 10.446-28.44 1.65-5.04 3.16-10.17 4.295-15.32 1.098-5.16 1.976-10.277 2.376-15.272.15-1.24.19-2.483.255-3.708.054-1.226.142-2.434.163-3.633l-.005-3.553c0-.583-.003-1.163-.004-1.74-.017-.575-.06-1.148-.086-1.715-.136-2.27-.196-4.472-.474-6.585-.17-1.513-.308-2.986-.503-4.412.46.985.81 1.557.81 1.557s12.625 7.766 22.125-1.734 7.005-27.397 7.005-27.397z"/><head/></svg>