<svg xmlns="http://www.w3.org/2000/svg" width="1920" height="1080" viewBox="0 0 1920 1080"><path fill="#A9CBCB" d="M148.245 625.038c29.383 4.447 61.314 7.828 95.42 9.17 17.048.73 34.635.964 52.7.672 9.033-.144 18.184-.444 27.446-.874 9.264-.41 18.638-.966 28.116-1.67 18.955-1.408 38.32-3.438 58.03-6.09 19.717-2.618 39.778-5.887 60.115-9.84 20.333-3.978 40.96-8.555 61.793-13.854 20.835-5.297 41.878-11.316 63.067-18.056 3.393-1.07 6.79-2.167 10.19-3.276 5.104 2.73 10.216 5.35 15.337 7.866 28.97 14.202 58.213 25.226 87.626 34.068 29.413 8.81 59 15.38 88.66 20.022 29.66 4.633 59.394 7.34 89.067 8.2 29.67.86 59.285-.078 88.656-2.868 14.686-1.39 29.31-3.238 43.843-5.54 7.266-1.15 14.51-2.416 21.728-3.794l2.706-.522 2.808-.557 5.553-1.136 5.135-1.033 5.418-.954c28.768-5.13 54.74-11.114 80.166-17.38 25.31-6.31 49.796-12.877 73.767-19.67 47.866-13.615 93.702-27.964 138.054-42.442 44.32-14.522 87.054-29.294 128.247-44.017 20.59-7.377 40.797-14.734 60.577-22.113 19.793-7.355 39.197-14.662 58.17-21.957 37.934-14.617 74.226-29.027 108.712-43.18 34.466-14.183 67.187-28.014 97.944-41.48 30.754-13.492 59.56-26.6 86.26-39.2 9.062-4.27 17.866-8.47 26.445-12.607V0h-236.66c-19.81 15.233-41.57 31.51-65.18 48.68-24.564 17.82-51.072 36.64-79.496 56.036-14.19 9.73-28.868 19.602-43.944 29.675-15.096 10.046-30.646 20.208-46.584 30.537-15.95 10.31-32.31 20.75-49.06 31.292-16.756 10.525-33.916 21.114-51.428 31.8-17.52 10.667-35.384 21.45-53.62 32.18-18.235 10.733-36.808 21.495-55.69 32.23-37.74 21.483-76.808 42.804-116.666 63.27-19.913 10.184-40.014 20.202-60.083 29.603-10.022 4.69-20.005 9.222-29.89 13.573-9.843 4.302-19.566 8.377-28.798 12.03l-3.455 1.367c-.11.062-.977.345-.463.226l-1.102.324-2.204.65-3.38 1.018-.78.24-.888.255-1.777.513c-4.745 1.36-9.53 2.65-14.354 3.867-9.648 2.436-19.448 4.586-29.375 6.44-13.527 2.522-27.297 4.484-41.224 5.872 3.78-2.74 7.553-5.507 11.316-8.328 10.404-7.82 20.766-15.944 31.01-24.524 10.28-8.543 20.425-17.56 30.5-27.135 10.042-9.612 20.015-19.78 29.747-31.048 9.765-11.293 19.328-23.558 28.418-38.405 4.514-7.464 8.893-15.61 12.868-25.12 3.928-9.52 7.5-20.432 9.366-33.962.9-6.768 1.287-14.268.716-22.38-.546-8.073-2.206-16.91-5.204-25.67-2.988-8.772-7.417-17.452-12.8-25.06-5.374-7.6-11.617-14.19-17.91-19.482-6.308-5.314-12.667-9.51-18.755-12.918-6.1-3.405-11.957-6.03-17.537-8.18-5.583-2.145-10.903-3.814-16.016-5.2-5.11-1.393-10.03-2.507-14.75-3.396-9.473-1.804-18.35-2.84-26.847-3.542-8.516-.7-16.67-.998-24.604-1.055-7.94-.067-15.667.084-23.25.417-3.79.167-7.544.378-11.273.617l-5.568.376-5.83.475-4.98.4c-.565.06-.43.002-1.57.156l-1.25.156-2.5.312-10.018 1.28c-6.687.884-13.387 1.8-20.106 2.784-26.87 3.92-53.988 8.653-81.43 14.587-27.444 5.97-55.193 13.138-83.415 22.535-14.112 4.71-28.346 9.993-42.737 16.137-14.39 6.146-28.94 13.143-43.673 21.555-14.72 8.423-29.665 18.265-44.587 30.72-7.456 6.27-14.896 13.16-22.178 21.057-7.272 7.88-14.393 16.713-20.99 26.773-6.585 10.047-12.64 21.357-17.496 33.864-4.866 12.477-8.46 26.184-10.22 40.32-1.798 14.128-1.692 28.606.063 42.42 1.755 13.83 5.14 26.947 9.5 38.965 4.374 12.02 9.704 22.956 15.5 32.906 5.797 9.945 12.066 18.92 18.548 27.14-15.4 3.718-30.64 6.973-45.675 9.75-18.083 3.363-35.86 6.108-53.265 8.273-17.412 2.13-34.454 3.65-51.063 4.657-33.223 2.06-64.718 1.743-94.085-.078-29.37-1.923-56.616-5.43-81.474-10.05-24.867-4.584-47.347-10.22-67.344-16.154-39.996-11.956-70.002-25.06-90.058-34.617C6.92 452.05 3.26 450.243 0 448.604v139.48c19.268 6.768 41.98 13.925 68.05 20.6 23.99 6.175 50.82 11.814 80.195 16.353zm489.347-264.99c4.612-4.818 10.965-10.166 18.432-15.376 7.46-5.232 15.984-10.38 25.15-15.27 9.164-4.903 18.97-9.57 29.177-13.974 20.433-8.818 42.397-16.608 64.995-23.552 22.613-6.96 45.917-13.033 69.518-18.458 5.898-1.363 11.824-2.67 17.76-3.952l8.918-1.886 2.233-.465 1.116-.232c-.35.03.574-.15.8-.215l4.494-1.067 3.65-.897 3.924-.897c2.602-.57 5.183-1.106 7.732-1.61 5.095-1.002 10.065-1.87 14.83-2.553.818-.116 1.62-.22 2.424-.327-.633.863-1.272 1.727-1.926 2.59-5.945 7.746-12.705 15.58-20.018 23.178-14.6 15.274-31.133 29.78-48.387 43.38-17.287 13.608-35.39 26.324-53.83 38.288-18.454 11.952-37.293 23.103-56.3 33.5-7.018 3.823-14.06 7.542-21.115 11.164-3.164-1.1-6.304-2.226-9.385-3.406-9.09-3.476-17.787-7.293-25.834-11.37-8.044-4.07-15.437-8.416-21.794-12.757-6.336-4.323-11.617-8.682-15.27-12.237-1.833-1.77-3.258-3.32-4.274-4.456-.747-.832-1.27-1.43-1.633-1.742 1.224-1.644 2.785-3.47 4.612-5.4zm-7.87 11.076c.292-.976 1.06-2.503 2.312-4.346-.13.906-.363 2.104-.72 3.168-.393 1.172-.958 2.1-1.333 2.34-.384.26-.57-.15-.26-1.162z"/><path fill="#A9CBCB" d="M1918.753 491.564l-5.228 2.975c-15.04 8.513-37.31 20.767-66.357 35.395-29.04 14.63-64.867 31.617-106.79 49.682-41.912 18.074-89.915 37.22-143.03 56.448-53.11 19.232-111.337 38.53-173.534 57.118-62.19 18.604-128.358 36.474-197.247 52.983-68.892 16.478-140.507 31.62-213.51 44.62-72.99 13-147.385 23.928-221.545 31.758-37.073 3.916-74.08 7.025-110.724 9.153-36.64 2.14-72.923 3.245-108.375 3.08-35.406-.22-70.064-1.698-102.714-5.1-8.157-.85-16.197-1.798-24.035-2.91-7.852-1.09-15.547-2.3-22.977-3.677-14.898-2.702-28.89-6.01-41.155-9.802-1.498-.49-3.082-.93-4.506-1.44l-2.174-.737-1.087-.364c-.013-.01-.737-.235-.167-.067l-.8-.28-12.746-4.434-12.69-4.415c-4.064-1.448-8.12-2.894-12.164-4.337-15.978-5.677-32.272-11.635-48.265-17.495-32.025-11.792-63.365-23.723-93.854-35.492-60.982-23.575-118.56-46.74-171.622-68.45-7.24-2.967-14.39-5.906-21.458-8.82v258.958c37.102 12.23 75.982 24.813 116.45 37.536 32.18 10.098 65.32 20.33 99.45 30.46 17.102 5.047 34.265 10.102 52.18 15.196l13.303 3.795 12.948 3.592 13.006 3.607 4.424 1.236 4.317 1.183c2.896.808 5.7 1.465 8.56 2.197 22.706 5.59 44.594 9.325 66.058 12.042 10.747 1.38 21.365 2.46 31.917 3.35 10.563.913 21.03 1.58 31.452 2.1 41.678 2.07 82.527 1.534 123.12-.365 40.556-1.97 80.808-5.373 120.812-9.843 40.006-4.463 79.774-9.95 119.255-16.25 78.958-12.603 156.813-28.32 232.737-46.034 75.92-17.718 149.875-37.506 220.858-58.515 70.973-21.04 138.962-43.328 202.872-66.198 63.915-22.855 123.755-46.268 178.46-69.423 54.71-23.15 104.285-46.03 147.755-67.575 43.476-21.533 80.844-41.73 111.294-59.155 2.998-1.715 5.91-3.394 8.774-5.054v-152.95l-1.247.716z"/><g fill="#FFF"><path d="M1216.004 1045.105c-43.763.597-82.663 34.554-82.663 34.554h40.522s27.554-12.252 41.332-12.252c13.777 0 29.175 12.584 29.175 12.584l34.037-.333s-18.64-35.152-62.403-34.555zM976.12 1062.545c-35.27 8.008-52.348 17.156-73.225 17.447h155.077s-45.384-25.728-81.853-17.447zM902.895 1079.992h-2.145c.72.01 1.435.01 2.145 0zM1674.702 1051.652c-12.32-1.03-24.648-5.6-34.303-13.267-10.508-8.344-21.61-12.704-29.34-24.376-7.154-10.802-5.083-23.054-11.31-34.134-6.768-12.048-17.65-21.505-31.9-22.56-10.793-.8-20.88-39.27-42.57-54.793-44.268-31.683-94.047-68.427-115.26-78.217-11.413-5.268-30.352-17.835-50.177-32.37-.33-.522-.67-1.06-1.023-1.625-1.666-2.687-3.603-5.835-5.603-9.25-.734-1.24-1.477-2.522-2.22-3.82 3.178.587 7.216.31 10.742-3.1 7.113-6.882 5.494-20.096 5.494-20.096s-13.154-2.056-20.268 4.826c-1.684 1.63-2.652 3.4-3.157 5.153-.396-.775-.787-1.548-1.167-2.313l.282-.54-.7-.3c-.27-.546-.542-1.096-.81-1.63l-2.418-5.17-1.304-3.034c.93.334 1.493.486 1.493.486s21.764-4.55 22.323-24.696c.56-20.145-20.61-37.076-20.61-37.076s-21.087 15.04-22.55 34.536c-7.004-7.217-19.054-8.734-19.054-8.734s-6.247 14.687-.332 24.975c5.914 10.288 18.468 6.57 18.468 6.57s.17-.16.447-.458l1.25 1.338 3.553 3.844c.65.706 1.334 1.43 2.056 2.148.723.716 1.42 1.48 2.19 2.18l2.287 2.115c.78.672 1.578 1.305 2.338 1.935.385.31.75.627 1.133.917l1.152.824 2.127 1.513c.662.466 1.248.79 1.78 1.133l1.182.736c.163.474.322.944.492 1.42.736 1.982 1.44 4.023 2.228 6.023 1.018 2.66 2.063 5.304 3.11 7.87-30.1-23.034-58.387-47.503-61.715-54.826-1.88-4.14-11.916-14.217-25.845-26.447-3.103-4.865-6.73-10.475-10.434-16.045-2.505-3.76-5.042-7.497-7.465-10.973-1.228-1.728-2.388-3.413-3.538-4.982-.18-.244-.355-.483-.53-.724 2.993.212 10.278-.06 13.457-7.142 4.054-9.03-2.35-20.7-2.35-20.7s-5.392 1.236-10.31 4.53c-.336-1.13-.798-2.287-1.42-3.463-6.898-13.06-26.354-16.322-26.354-16.322s-8.273 17.91-1.375 30.97 22.528 9.074 22.528 9.074.263-.233.68-.66c.245.385.495.778.756 1.18.91 1.407 1.825 2.99 2.83 4.632.998 1.646 2 3.42 3.063 5.233 2.093 3.65 4.276 7.576 6.427 11.518.633 1.164 1.26 2.327 1.885 3.487-30.83-25.708-72.173-55.733-92.073-61.63-2.02-.598-4.337-1.275-6.902-2.018-.813-.676-1.69-1.39-2.606-2.145-.712-.597-1.483-1.178-2.248-1.785-.56-.437-1.127-.883-1.695-1.327 4.715-.44 11.534-2.477 14.68-10.17 5.062-12.382-4.123-27.853-4.123-27.853s-14.992 3.976-21.187 14.458c-7.234-4.505-17.315-3.59-17.315-3.59s-2.55 13.57 4.355 21.163c5.26 5.784 12.26 3.992 15.3 2.808l.05.047c.856.975 1.66 1.738 2.26 2.26.3.32.6.643.907.962l1.993 2.105.364.406c-10.536-3.01-23.47-6.648-37.02-10.436-.412-.268-.843-.547-1.312-.845-1.416-.927-3.103-1.957-4.896-3.07-1.796-1.11-3.756-2.233-5.686-3.383l-2.94-1.632c-.975-.53-1.91-1.08-2.855-1.56-.448-.225-.887-.45-1.318-.668 2.884.1 6.08-.65 9.132-3.155 8.934-7.335 8.303-22.87 8.303-22.87s-6.42-1.544-13.366-.59c.074-4.248-.853-8.845-3.42-13.634-11.123-20.738-42.398-25.614-42.398-25.614s-13.24 28.75-2.118 49.488c10.59 19.747 33.837 14.68 36.04 14.15.088.047.182.095.276.142l2.734 1.838c1.343.977 2.886 2.154 4.542 3.39.828.617 1.648 1.317 2.5 1.993l2.52 2.04c-38.037-10.593-75.986-21.02-75.986-21.02s12.905 11.514 31.326 22.352c-.005 0-.01.002-.016.004l-3.38.693c-1.118.22-2.218.47-3.286.654l-5.856.973-1.35.157c-3.696-5.494-12.733-15.716-27.346-12.58-19.704 4.226-31.142 28.8-31.142 28.8s20.51 17.722 40.215 13.494c5.034-1.08 8.81-3.337 11.648-6.096 4.042 8.26 12.844 13.66 12.844 13.66s11.745-10.806 10.596-22.617c-.783-8.056-7.064-11.447-10.98-12.79l1.664.008c1.106-.002 2.24-.06 3.4-.09l3.52-.115c2.094-.13 4.196-.228 6.192-.37 9.942 5.325 21.08 10.108 32.453 12.762 10.64 2.482 27.903 9.728 46.473 19.043-5.098-.88-8.554-1.02-8.554-1.02s-9.86 30.076 3.564 49.404c12.783 18.404 35.3 10.706 37.423 9.928.202.08.42.16.644.24l4.856 2.393 3.478 1.716c1.235.6 2.532 1.246 3.853 1.978l8.312 4.47c2.407 1.29 4.803 2.58 7.082 3.85-8.264-.224-16.897-3.976-34.197-8.128-9.673-2.32-24.03-5.38-39.534-8.005-3.394-1.99-7.6-4.487-11.86-6.915l-7.02-4.037c-1.44-.84-2.84-1.602-4.145-2.312.357-.092.557-.155.557-.155s10.242-10.093 3.494-21.244c-6.75-11.152-24.188-12.95-24.188-12.95s-6.497 16.283.25 27.434c4.7 7.766 12.764 7.994 17.23 7.416 1.61 1.164 3.475 2.45 5.426 3.93l6.467 4.837c1.027.762 2.05 1.527 3.056 2.287-15.08-2.25-30.47-3.856-43.14-3.814l-.358-.232c-1.518-.983-3.175-1.98-4.807-3l-2.488-1.452c-.825-.472-1.615-.96-2.415-1.387-1.6-.852-3.078-1.658-4.36-2.32l-1.163-.548c1.967-.464 10.82-3.053 11.337-12.16.582-10.247-9.945-19.18-9.945-19.18s-8.312 5.572-11.142 13.553c-.46-.19-.934-.367-1.44-.52-11.365-3.42-24.246 6.004-24.246 6.004s5.542 14.968 16.905 18.388c8.167 2.458 13.862-2.7 16.418-5.796l2.395 1.686c1.132.86 2.432 1.897 3.827 2.985.697.544 1.387 1.158 2.103 1.753l2.156 1.82c.22.2.442.394.664.592-9.636.556-17.013 2.378-20.38 6.05-9.906 10.808-29.81 25.61-39.466 32.56.074-.404.106-.637.106-.637s-7.327-20.992-27.375-18.942-34.102 25.23-34.102 25.23 18.453 19.853 38.5 17.803c14.68-1.5 20.175-13.71 22.07-20.148 14.017-1.77 55.898-6.904 77.95-7.907 26.742-1.214 91.167 31.606 91.167 31.606s-10.95 2.434-26.752 5.993c-.437-.13-.885-.26-1.35-.397l-2.618-.628-5.875-1.404c-2.083-.516-4.257-.866-6.516-1.334-2.26-.426-4.58-.944-6.957-1.31-2.372-.4-4.78-.803-7.19-1.207-2.408-.405-4.822-.732-7.194-1.096-2.373-.355-4.706-.706-6.966-1.01l-11.324-1.568c.067-.233.1-.366.1-.366s-3.824-16.297-18.996-16.35-27.528 16.19-27.528 16.19 12.243 16.326 27.415 16.378c2.085.007 3.95-.302 5.63-.827-.08 3.66 1.047 7.22 2.496 10.25-.805.19-1.61.38-2.405.566-4.108.967-8.362 2.168-12.69 3.542l-.208-.073c-1.357-.46-3.29-1.083-5.625-1.763-4.664-1.366-10.953-2.937-17.376-3.87-1.604-.233-3.217-.422-4.81-.567-1.595-.133-3.167-.234-4.694-.258-1.526-.03-3.004-.014-4.406.088-.7.034-1.38.095-2.038.178-.03.003-.058.01-.09.012-1.673-4.344-6.992-14.786-19.406-14.51-15.66.345-27.984 17.433-27.984 17.433s13.066 16.527 28.727 16.18c13.707-.302 18.2-13.283 19.108-16.517.542.016 1.093.04 1.666.097 1.31.094 2.69.28 4.107.516 1.42.23 2.878.54 4.352.88 1.472.355 2.96.753 4.437 1.193 4.717 1.402 9.307 3.18 13.11 4.823-19.082 7.073-38.464 16.56-52.522 23.95l-.114-.028c-.968-.234-2.347-.56-3.988-.915-1.64-.378-3.568-.76-5.625-1.18-2.058-.42-4.272-.793-6.47-1.203l-3.305-.512c-1.09-.16-2.153-.352-3.198-.473-2.09-.242-4.03-.485-5.696-.657l-.078-.005c.265-1.127.355-1.832.355-1.832s-5.84-16.266-21.407-14.536c-15.57 1.73-26.332 19.843-26.332 19.843s14.478 15.305 30.046 13.575c10.943-1.217 15.24-10.046 16.83-15.188l.243.06c1.59.45 3.434 1.017 5.404 1.6.984.292 1.99.663 3.016 1l3.103 1.053c2.062.772 4.13 1.503 6.046 2.256 1.18.465 2.302.903 3.35 1.322-8.096 4.408-13.086 7.366-13.086 7.366l-7.617 35.554c-6.344-3.068-17.886-6.433-28.428 2.262-15.547 12.823-14.388 39.903-14.388 39.903s26.365 6.29 41.912-6.532c14.49-11.95 6.977-30.097 5.888-32.51 12.505-11.343 39.545-33.553 64.624-38.678 24.104-4.926 56.13-9.14 87.018-13.102-.64.338-1.28.67-1.916.978l-3.704 1.823-3.52 1.545c-.768.353-1.525.62-2.25.88-1.12-.982-1.884-1.505-1.884-1.505s-18.455-2.415-24.46 13.35c-6.007 15.763 6.042 34.988 6.042 34.988s19.69-5.733 26.79-19.848c7.7 5.707 18.086 6.86 18.086 6.86s6.52-15.984-.04-27.017c-3.734-6.28-9.72-7.615-14.187-7.603l.516-.17c1.374-.45 2.718-.97 4.093-1.457l7.977-2.938 3.642-1.327c.754-.27 1.464-.532 2.157-.783 6.718-.866 13.295-1.723 19.628-2.578 14.426-1.946 39.072 5.283 64.72 15.338-.74.107-1.483.216-2.227.33-1.357.16-2.714.324-4.05.484-1.337.15-2.658.335-3.934.445-1.218.094-2.396.19-3.522.28-5.153-3.23-21.924-11.942-36.91.458-17.963 14.864-16.574 46.192-16.574 46.192s29.434 6.96 47.504-6.88c3.772 6.285 8.152 10.48 8.152 10.48s18.106-10.62 19.92-26.122c1.365-11.686-7.487-17.92-11.93-20.28l1.573.09c2.783.074 5.58.202 8.198.223 2.617.023 5.066.06 7.164.024.225 0 .43-.003.65-.005 16.197 6.85 32.12 14.36 45.482 20.953-18.41 1.44-34.982 14.512-34.982 14.512s8.87 21.47 25.728 31.21c-6.218 8.517-8.952 17.71-8.952 17.71s20.978 13.32 38.28 6.843 14.776-26.703 14.776-26.703-.73-1.082-2.094-2.592l2.368.72c1.396.412 2.85.748 4.327 1.14l4.488 1.143c3.02.656 6.046 1.385 8.898 1.94 1.428.28 2.808.552 4.116.81 1.31.268 2.553.464 3.7.673.676.12 1.31.232 1.918.336 17.762 16.077 45.67 36.9 75.18 47.482 40.628 14.566 51.48 73.143 43.714 82.957-13.567 12.674-30.092 29.364-55.853 32.584-32.417 4.05-62.403 17.747-62.403 17.747h96.99c-.11.11-.174.17-.174.17l195.346.164c-.272-.1-.536-.223-.804-.332h116.284s-51.866-26.108-74.558-28.006zm-339.646-294.148c-.387-.21-.772-.455-1.17-.688-.79-.478-1.624-.955-2.45-1.475-.812-.55-1.635-1.11-2.458-1.67-.83-.553-1.614-1.19-2.414-1.772-.798-.585-1.57-1.19-2.312-1.786l-4.07-3.26-1.474-1.17c1.065-1.307 2.547-3.452 3.458-6.13 3.357 5.005 8.215 8.137 11.886 9.936.066.264.13.527.2.798.436 1.555.907 3.24 1.405 5.023l.934 2.973-.392-.2-1.142-.58zm-226.183 63.125c.057-.017.118-.035.176-.05-.235.29-.49.624-.757.996-.202-.222-.4-.434-.598-.638.39-.092.782-.19 1.178-.31zm-26.54-59.297l7.172 1.616c2.224.492 4.51 1.035 6.833 1.585 2.32.558 4.688 1.085 7.033 1.684l6.995 1.787c2.315.56 4.542 1.26 6.72 1.862 1.59.47 3.17.885 4.662 1.333-10.787 2.443-22.77 5.174-34.616 7.907.61-1.298 1.078-2.674 1.334-4.128 1.23-6.973-3.035-11.413-6.13-13.65zm126.4 68.118c.233.022.475.034.71.05-.466.138-.965.3-1.49.485-.077-.22-.154-.434-.228-.632l1.007.098zm-27.46-152.504c-.61-.068-6.846-.706-13.296.95-.386-3.95-1.696-8.106-4.395-12.276 6.24 3.778 12.206 7.59 17.69 11.326zm27.622 34.276c-4.677 2.598-8.518 4.358-11.968 5.456l-6.303-2.58c-2.79-1.162-5.8-2.34-8.807-3.514l-8.822-3.456c-1.396-.568-2.78-1.06-4.097-1.515-.782-.275-1.53-.537-2.254-.793 2.972-.17 6.196-1.248 9.05-4.2 7.856-8.124 5.735-22.974 5.636-23.636 22.377 15.25 36.612 29.212 27.565 34.238zm109.8 177.572c-1.483-.103-2.96-.16-4.367-.297l-4.062-.432-.527-.056c1.892-2.467 2.858-4.28 2.858-4.28s.18-8.71-4.11-17.156c3.17 1.694 4.945 2.67 4.945 2.67l12.205 14.248c1.433 1.673 3.23 3.628 5.33 5.784-2.51-.034-5.128-.146-7.772-.21-1.508-.09-3.016-.182-4.5-.272zM1893.402 1007.566c-.226-10.66-1.354-19.862-6.726-29.156-4.543-7.86-10.946-11.31-19.29-14.84-1.734-.732-12.097-2.83-12.886-4.318 32 60.29 15.603 83.845-3.513 94.044-7.45 1.56-13.794 4.13-19.082 7.08-11.025-4.887-30.525-11.63-42.707-4.907-17.742 9.79-22.916 24.36-22.916 24.36h73.922v-.275h27.406c-.275 0 3.816-6.607 4.177-7.047 2.207-2.69 4.087-4.58 7.07-6.003 2.54-1.212 3.702-1.555 5.356-4.123 2.506-3.89 3.68-8.505 5.308-12.786 5.106-13.42 4.18-27.907 3.882-42.03z"/></g><path fill="#A9CBCB" d="M629.98 372.286c.376-.24.94-1.168 1.334-2.34.357-1.064.59-2.262.72-3.168-1.252 1.844-2.02 3.37-2.313 4.346-.31 1.013-.124 1.42.26 1.162z"/><head/></svg>