<?xml version="1.0" encoding="UTF-8" standalone="no"?>
<svg width="60px" height="60px" viewBox="0 0 60 60" version="1.1" xmlns="http://www.w3.org/2000/svg" xmlns:xlink="http://www.w3.org/1999/xlink">
    <!-- Generator: Sketch 3.7.2 (28276) - http://www.bohemiancoding.com/sketch -->
    <title>Page 1</title>
    <desc>Created with Sketch.</desc>
    <defs>
        <polygon id="path-1" points="0 60 60 60 60 0 0 0"></polygon>
    </defs>
    <g id="Page-1" stroke="none" stroke-width="1" fill="none" fill-rule="evenodd">
        <g id="Artboard-1">
            <g id="Page-1">
                <g id="Group-3" fill="#FFFFFF">
                    <path d="M13.514,51.2565 C31.098,68.8405 54.465,54.4655 54.465,54.4655 C54.465,54.4655 68.84,31.0975 51.257,13.5135 C33.673,-4.0695 0.547,0.5475 0.547,0.5475 C0.547,0.5475 -4.07,33.6725 13.514,51.2565" id="Fill-1"></path>
                </g>
                <mask id="mask-2" fill="white">
                    <use xlink:href="#path-1"></use>
                </mask>
                <g id="Clip-5"></g>
                <path d="M25.992,44.959 L31.863,44.959 L31.863,39.264 L25.992,39.264 L25.992,44.959 Z M25.992,36.522 L25.992,29.702 C26.766,29.174 27.501,28.58 28.198,27.917 C28.896,27.256 29.549,26.526 30.158,25.729 C30.768,24.932 31.251,24.062 31.609,23.119 C31.966,22.176 32.145,21.241 32.145,20.315 C32.145,19.506 31.954,18.897 31.573,18.487 C31.193,18.077 30.645,17.871 29.93,17.871 C29.274,17.871 28.778,18.139 28.444,18.671 C28.11,19.205 27.943,19.87 27.943,20.666 C27.943,21.393 28.055,22.12 28.277,22.846 L22.758,23.901 C22.418,22.6 22.248,21.37 22.248,20.209 C22.248,17.959 22.887,16.146 24.164,14.769 C25.442,13.392 27.363,12.703 29.93,12.703 C32.52,12.703 34.524,13.392 35.942,14.769 C37.359,16.146 38.068,18.112 38.068,20.666 C38.068,22.94 37.521,25.05 36.425,26.995 C35.329,28.94 33.809,30.475 31.863,31.6 L31.863,36.522 L25.992,36.522 Z" id="Fill-4" fill="#9944EE" mask="url(#mask-2)"></path>
            </g>
        </g>
    </g>
</svg>